<svg width="70" height="41" viewBox="0 0 70 41" fill="none" xmlns="http://www.w3.org/2000/svg"><g clip-path="url(#auroragrandspa_svg__a)" fill="#D0B26C"><path d="m9.84 40.662-1.62-3.477H2.243l-1.53 3.477H0l5.587-12.608h.232l5.872 12.608H9.84Zm-7.313-4.12h5.391l-2.776-5.974-2.615 5.975ZM21.948 28.178v7.633c0 1.558-.427 2.788-1.281 3.692-.842.892-2.017 1.338-3.523 1.338-1.53 0-2.752-.446-3.666-1.338-.913-.904-1.37-2.14-1.37-3.71v-7.615h1.69v7.687c0 1.32.32 2.354.961 3.103.64.75 1.537 1.124 2.687 1.124 1.186 0 2.112-.38 2.776-1.142.676-.76 1.014-1.825 1.014-3.192v-7.58h.712ZM33.578 40.662h-1.85l-3.043-5.831a3.955 3.955 0 0 1-.445.017h-2.509v5.814h-1.69V28.178h4.2c1.482 0 2.65.31 3.505.928.866.618 1.299 1.42 1.299 2.407 0 .845-.32 1.558-.961 2.14-.63.583-1.507.952-2.634 1.106l.498.945h1.032l2.598 4.958Zm-5.89-6.456c1.151 0 2.035-.243 2.652-.73.617-.5.925-1.154.925-1.963 0-.808-.308-1.456-.925-1.944-.617-.499-1.5-.749-2.651-.749H25.73v5.386h1.958ZM40.568 28c1.708 0 3.197.612 4.466 1.837 1.27 1.225 1.904 2.752 1.904 4.583 0 1.831-.635 3.36-1.904 4.584-1.27 1.224-2.758 1.837-4.466 1.837a6.397 6.397 0 0 1-3.132-.803c-.961-.547-1.744-1.314-2.349-2.3-.593-1-.89-2.105-.89-3.318 0-1.212.297-2.312.89-3.299.605-.999 1.388-1.766 2.349-2.3A6.288 6.288 0 0 1 40.568 28ZM37.24 38.665c.83 1.022 1.94 1.534 3.328 1.534 1.387 0 2.49-.512 3.31-1.534.83-1.035 1.245-2.45 1.245-4.245s-.415-3.204-1.246-4.226c-.818-1.035-1.922-1.552-3.31-1.552-1.387 0-2.497.517-3.327 1.552-.818 1.022-1.228 2.431-1.228 4.226 0 1.796.41 3.21 1.228 4.245ZM57.959 40.662h-1.851l-3.043-5.831a3.955 3.955 0 0 1-.444.017h-2.51v5.814h-1.69V28.178h4.2c1.482 0 2.65.31 3.505.928.866.618 1.299 1.42 1.299 2.407 0 .845-.32 1.558-.961 2.14-.629.583-1.507.952-2.634 1.106l.499.945h1.032l2.598 4.958Zm-5.89-6.456c1.15 0 2.034-.243 2.651-.73.617-.5.925-1.154.925-1.963 0-.808-.308-1.456-.925-1.944-.617-.499-1.5-.749-2.651-.749H50.11v5.386h1.958ZM68.15 40.662l-1.62-3.477h-5.979l-1.53 3.477h-.712l5.588-12.608h.231L70 40.662h-1.85Zm-7.314-4.12h5.392l-2.776-5.974-2.616 5.975ZM7.811 6.634h4.787v6.207h-.534l-1.014-1.605c-1.044 1.07-2.408 1.605-4.093 1.605-1.174 0-2.26-.25-3.256-.75-.996-.499-1.809-1.242-2.438-2.229C.635 8.876.32 7.74.32 6.456c0-1.879.611-3.424 1.833-4.637C3.387.606 4.947 0 6.833 0c1.649 0 2.99.476 4.021 1.427 1.032.95 1.572 2.229 1.62 3.834h-.748c-.047-1.38-.492-2.485-1.334-3.317C9.562 1.1 8.47.678 7.118.678c-1.483 0-2.675.517-3.577 1.551-.902 1.023-1.352 2.39-1.352 4.102 0 1.784.474 3.204 1.423 4.263.95 1.058 2.183 1.587 3.701 1.587 1.436 0 2.634-.535 3.595-1.605v-3.3H7.81v-.642ZM24.273 12.662h-1.85L19.378 6.83a3.96 3.96 0 0 1-.444.018h-2.51v5.814h-1.69V.178h4.2c1.482 0 2.65.31 3.505.928.866.618 1.299 1.42 1.299 2.407 0 .844-.32 1.558-.961 2.14-.629.583-1.506.952-2.633 1.106l.498.945h1.032l2.598 4.958Zm-5.89-6.456c1.15 0 2.034-.243 2.651-.73.617-.5.925-1.154.925-1.963 0-.808-.308-1.456-.925-1.944-.617-.499-1.5-.749-2.651-.749h-1.957v5.386h1.957ZM34.464 12.662l-1.62-3.477h-5.978l-1.53 3.477h-.712L30.21.053h.231l5.872 12.61h-1.85Zm-7.314-4.12h5.392l-2.776-5.974-2.616 5.975ZM47.02.178h.712v12.61h-.373l-9.2-11.718v11.592h-.712V.178h2.171l7.402 9.417V.178ZM53.793.178c2.242 0 4.022.565 5.339 1.695 1.316 1.13 1.975 2.645 1.975 4.547 0 1.903-.659 3.418-1.975 4.548-1.317 1.13-3.097 1.694-5.339 1.694h-3.825V.178h3.825Zm0 11.842c1.803 0 3.162-.493 4.075-1.48.913-.987 1.37-2.36 1.37-4.12 0-1.76-.456-3.133-1.37-4.12-.913-.986-2.272-1.48-4.075-1.48h-2.135v11.2h2.135ZM4.893 27c-1.388 0-2.503-.357-3.345-1.07-.83-.725-1.246-1.677-1.246-2.854h.712c0 .987.35 1.784 1.05 2.39.712.595 1.643.892 2.794.892.89 0 1.601-.202 2.135-.606.534-.405.8-.952.8-1.641 0-.476-.136-.88-.409-1.213a2.431 2.431 0 0 0-1.05-.785c-.426-.19-.901-.362-1.423-.517a46.392 46.392 0 0 1-1.548-.5 9.468 9.468 0 0 1-1.441-.659 2.97 2.97 0 0 1-1.05-1.052C.61 18.933.48 18.392.48 17.762c0-1.082.374-1.95 1.121-2.604.76-.666 1.756-.999 2.99-.999 1.222 0 2.206.327 2.954.981.747.642 1.12 1.504 1.12 2.586h-.711c0-.88-.309-1.587-.925-2.122-.605-.535-1.4-.803-2.385-.803-.854 0-1.536.203-2.046.607-.498.404-.747.945-.747 1.623 0 .475.13.88.391 1.212.273.333.623.595 1.05.785.439.178.92.345 1.441.5.522.154 1.044.326 1.566.517.522.178.996.392 1.424.642.438.25.788.6 1.05 1.052.272.452.409.993.409 1.623 0 1.094-.398 1.974-1.193 2.64-.783.665-1.815.998-3.096.998ZM14.762 14.338c1.625 0 2.864.309 3.718.927.866.618 1.3 1.462 1.3 2.532 0 1.106-.428 1.986-1.282 2.64-.854.654-2.1.98-3.736.98H12.36v5.405h-1.69V14.338h4.092Zm-.09 6.438c1.08 0 1.905-.268 2.474-.803.57-.535.854-1.254.854-2.158 0-.868-.285-1.557-.854-2.068-.57-.512-1.394-.767-2.473-.767H12.36v5.796h2.313ZM28.069 26.822l-1.62-3.478h-5.978l-1.53 3.478h-.712l5.587-12.61h.232l5.872 12.61h-1.851Zm-7.313-4.12h5.391l-2.776-5.975-2.615 5.975Z"/></g><defs><clipPath id="auroragrandspa_svg__a"><path fill="#fff" d="M0 0h70v41H0z"/></clipPath></defs></svg>