<svg width="864" height="450" viewBox="0 0 864 450" fill="none" xmlns="http://www.w3.org/2000/svg">
	<mask id="temple_svg__a" style="mask-type:alpha" maskUnits="userSpaceOnUse" x="0" y="0" width="864" height="450">
		<path fill="#1D144C" d="M0 0h864v450H0z" class="svg-elem-1"></path>
	</mask>
	<g mask="url(#temple_svg__a)" stroke="#413E39">
		<path
			d="M768.1 217.09V594.7H96.5V217.09c0-137.177 101.529-253.055 240.706-289.979 38.265-10.151 62.153-28.463 76.477-44.255 7.16-7.894 11.928-15.155 14.908-20.448a78.13 78.13 0 0 0 3.204-6.296c.223-.497.406-.921.549-1.266.207.416.478.95.815 1.592a115.45 115.45 0 0 0 4.03 7.009c3.626 5.853 9.171 13.791 16.848 22.135 15.352 16.685 39.242 35.011 73.374 41.534C666.579-35.956 768.1 79.919 768.1 217.09Z"
			class="svg-elem-2"></path>
		<path
			d="M714.7 218.248v317.651H149.9V218.248c0-115.381 85.377-212.857 202.426-243.918 32.205-8.546 52.312-23.963 64.372-37.26 6.028-6.648 10.042-12.763 12.551-17.22a66.091 66.091 0 0 0 2.699-5.304c.155-.346.286-.65.395-.908.163.325.366.722.609 1.186a97.448 97.448 0 0 0 3.393 5.903c3.053 4.928 7.72 11.61 14.182 18.636 12.921 14.048 33.032 29.479 61.764 34.972C629.331 5.4 714.7 102.872 714.7 218.248Z"
			class="svg-elem-3"></path>
		<path
			d="M432.342-28.771c.116.228.252.493.408.79a79.916 79.916 0 0 0 2.77 4.82c2.492 4.022 6.301 9.476 11.576 15.21 10.546 11.463 26.961 24.058 50.414 28.542C592.919 45.913 662.5 125.358 662.5 219.384V478.3H202.1V219.384c0-94.032 69.588-173.48 165.006-198.798 26.281-6.973 42.694-19.554 52.539-30.409 4.92-5.425 8.198-10.417 10.247-14.057a54.087 54.087 0 0 0 2.205-4.332c.091-.205.173-.391.245-.56Z"
			class="svg-elem-4"></path>
		<path
			d="M432.341 28.215a61.781 61.781 0 0 0 2.364 4.15 79.373 79.373 0 0 0 9 11.819c8.198 8.907 20.96 18.695 39.196 22.18C556.927 86.005 610.9 147.61 610.9 220.509V421.3H253.7V220.508c0-72.904 53.981-134.514 128.017-154.148 20.425-5.416 33.185-15.19 40.841-23.628 3.827-4.217 6.376-8.098 7.971-10.928a42.33 42.33 0 0 0 1.812-3.588Z"
			class="svg-elem-5"></path>
		<path
			d="m432.339 78.598.035.068c.353.67.886 1.63 1.61 2.797a59.264 59.264 0 0 0 6.723 8.82c6.123 6.647 15.658 13.953 29.282 16.556 55.131 14.614 95.311 60.446 95.311 114.663V370.9h-266V221.502c0-54.223 40.188-100.059 95.328-114.668 15.25-4.04 24.782-11.333 30.504-17.633 2.86-3.148 4.766-6.046 5.958-8.16a31.725 31.725 0 0 0 1.249-2.443Z"
			class="svg-elem-6"></path>
	</g>
</svg>
