<svg width="1121" height="100%" viewBox="0 0 1121 1236" fill="none" xmlns="http://www.w3.org/2000/svg">
<path d="M560.542 374.226C560.65 374.438 560.775 374.682 560.919 374.954C561.504 376.065 562.389 377.659 563.591 379.596C565.995 383.471 569.669 388.724 574.757 394.247C584.93 405.289 600.765 417.421 623.389 421.74C715.4 446.125 782.5 522.628 782.5 613.17V862.5H338.5V613.17C338.5 522.623 405.608 446.116 497.628 421.735C522.978 415.019 538.81 402.901 548.308 392.445C553.055 387.218 556.217 382.41 558.193 378.903C559.182 377.15 559.874 375.722 560.32 374.73C560.403 374.547 560.476 374.379 560.542 374.226Z" stroke="currentColor" class="svg-elem-1"></path>
<path d="M858.5 611.514V946.5H262.5V611.514C262.5 489.831 352.596 387.035 476.109 354.279C510.084 345.269 531.296 329.015 544.017 314.996C550.376 307.988 554.61 301.542 557.257 296.843C558.58 294.493 559.507 292.58 560.103 291.252C560.278 290.864 560.424 290.525 560.544 290.24C560.72 290.592 560.942 291.03 561.213 291.544C561.996 293.033 563.181 295.169 564.791 297.767C568.012 302.963 572.936 310.008 579.753 317.415C593.384 332.225 614.598 348.493 644.908 354.283C768.413 387.044 858.5 489.837 858.5 611.514Z" stroke="currentColor" class="svg-elem-2"></path>
<path d="M944.5 609.641V1041.5H176.5V609.641C176.5 452.746 292.608 320.217 451.759 277.989C495.493 266.385 522.793 245.453 539.161 227.406C547.344 218.383 552.792 210.085 556.197 204.037C557.899 201.013 559.091 198.551 559.858 196.843C560.145 196.203 560.372 195.669 560.545 195.251C560.788 195.744 561.121 196.404 561.546 197.212C562.553 199.127 564.078 201.877 566.15 205.223C570.295 211.912 576.632 220.984 585.405 230.522C602.95 249.594 630.252 270.539 669.258 277.993C828.401 320.226 944.5 452.751 944.5 609.641Z" stroke="currentColor" class="svg-elem-3"></path>
<path d="M1031.5 607.748V1137.5H89.5V607.748C89.5 415.27 231.922 252.695 427.125 200.896C480.733 186.67 514.19 161.012 534.249 138.893C544.277 127.835 550.953 117.665 555.125 110.254C557.21 106.548 558.67 103.533 559.609 101.441C560.016 100.533 560.326 99.7994 560.546 99.2585C560.85 99.8808 561.294 100.767 561.883 101.886C563.117 104.233 564.985 107.604 567.525 111.704C572.604 119.903 580.371 131.024 591.124 142.714C612.628 166.093 646.088 191.765 693.892 200.9C889.086 252.705 1031.5 415.276 1031.5 607.748Z" stroke="currentColor" class="svg-elem-4"></path>
<path d="M1120.5 605.816V1235.5H0.5V605.816C0.5 377.014 169.842 183.768 401.925 122.197C465.632 105.295 505.39 74.8119 529.224 48.5365C541.139 35.4005 549.072 23.3191 554.028 14.517C556.506 10.1159 558.239 6.53434 559.355 4.0504C559.89 2.85887 560.282 1.91985 560.547 1.26402C560.56 1.29154 560.574 1.31958 560.587 1.34814C560.949 2.09071 561.494 3.18078 562.227 4.57475C563.693 7.36262 565.913 11.3663 568.931 16.237C574.967 25.9777 584.196 39.1889 596.974 53.0776C622.528 80.852 662.288 111.349 719.092 122.201C951.167 183.777 1120.5 377.019 1120.5 605.816Z" stroke="currentColor" class="svg-elem-5"></path>
</svg>
