<svg version="1.0" xmlns="http://www.w3.org/2000/svg" width="426.667" height="426.667" viewBox="0 0 320 320"><path d="M159.3 12.5c0 .8.4 1.2.9.9.5-.3.6-1 .3-1.5-.9-1.3-1.2-1.1-1.2.6zM137.5 14c.3.5.8 1 1.1 1 .2 0 .4-.5.4-1 0-.6-.5-1-1.1-1-.5 0-.7.4-.4 1zm10 .9c.3 1.8 0 2-2 1.7-1.9-.4-2.3-.1-2 1.4.2 1-.4 2.5-1.3 3.2-1.5 1.2-1.6 1.1-.3-.5 1.5-2 .2-2.3-1.9-.5-.8.7-.6.3.4-.9 1.8-2.1 1.8-2.2-.2-2-1.1 0-1.9.4-1.6.8.6 1-2.4 1.9-4.1 1.3-.8-.4-1.2-1-.9-1.5.3-.5-.2-.6-1-.3s-1.7 1.3-2 2.1c-.5 1.2-.3 1.3.6.5.9-.7 1.7-.6 2.5.4 1.1 1.1.7 1.2-2.4.8-2-.2-4.1-1-4.5-1.7-.6-.9-.8-.9-.8 0 0 .7-.5 1.3-1.1 1.3-.5 0-.7-.6-.3-1.3.4-.6-.4-.2-1.7.9-1.3 1.2-3.1 2.2-3.9 2.2-.8.1-2.4.3-3.5.5s-2.4-.1-2.8-.7c-.6-.7-.7-.5-.4.6.4.9-.1 1.9-1 2.2-1.1.4-1.4.2-.9-.9 1.3-3.4-1.1-1.2-2.7 2.5-.9 2.2-2.2 4-2.8 4-.5 0-.8.4-.5.8.2.4-.4.9-1.5.9-2.1.2-2.6-1.2-.7-2.3.7-.5.8-.3.3.7-.5.8.1.5 1.3-.5 2.7-2.3 2.8-3.6.5-3.6-1.4 0-1.5.2-.4.9.8.5.9 1.1.3 1.5-.6.4-1.6-.2-2.2-1.1-1.1-1.7-1.1-1.7-.6-.1.5 1.7-.4 2.2-4 2.1-.6 0-1.1.6-1.1 1.3 0 .7.4 1.1.9.8.4-.3.8-.1.8.4 0 .6-.7 1.3-1.6 1.6-.9.4-1.2 1.1-.7 1.8 1.1 1.9 1.2 3.7.3 4.3-.5.3-.7-.3-.5-1.5.2-1.1-.1-2.2-.6-2.5-.5-.4-.6-1.2-.3-1.8.4-.7.4-.9-.1-.5-.4.4-1.4.3-2.2-.3-1-.9-1.3-.8-1.3 0 0 .7-.5.9-1 .6-.6-.4-1-.3-.9.2.5 2.7-.1 3.5-1.6 2.3-1.3-1.1-1.4-1-.9.5.6 1.4.4 1.6-.7.9-2.5-1.6-3.7-1.3-3.1.8.4 1.5.1 1.9-.9 1.6-.8-.3-1.3-1.1-1.1-1.7.1-.7-.2-1-.8-.6-.6.3-.8 1-.5 1.5.3.4.2 1-.2 1.3-.5.2-.2.2.6 0s1.1.2.8 1.2c-.4.8-.2 1.7.4 2 .5.4.8.1.7-.7-.2-.8.5-1.2 1.7-1 1.6.2 1.7.1.5-.7-1.2-.8-1-1 .8-.8 2.2.1 3.2 1.7 1.1 1.7-.5 0-.7.5-.3 1.2.5.7.3.8-.6.3-.8-.5-1.8-.2-2.5.9-1.3 1.8-6 3.2-5 1.5.4-.5 1-.7 1.5-.4.5.3 1.1.1 1.5-.5 1-1.6-1.7-1.2-3.7.7-1 .9-1.8 1.1-1.8.5 0-.6.5-1.4 1-1.7 1.2-.8 1.3-3.5.1-3.5-.5 0-.8.8-.7 1.7 0 1-.4 1.8-1.1 1.8-.6 0-1.5.4-2 .9s-.3.6.5.2c2.3-1.3 1.2 1.2-1.5 3.3-1.4 1.2-2.3 2.5-1.9 2.9.7.7 1.1.8 3.9 1.1.9.1.8.4-.2 1-.8.5-2 .7-2.8.4-.7-.3-1.3.2-1.3 1.1 0 .9-.5 1.6-1.1 1.6-.5 0-.8.4-.4 1 .3.5 1.3.7 2.3.4 1.4-.5 1.4-.4.2.4-2.5 1.9-4.2-.5-2.4-3.3 1-1.5 1.2-2.5.5-3-.6-.3-1.1-.3-1.1.1s-.7-.1-1.6-1.2c-1.5-1.9-1.5-1.9-.6.1 1 2.2.5 4.8-.8 4-.5-.3-1.2 0-1.6.6-.5.8-.3.9.5.5.8-.5 1.4 0 1.8 1.3.3 1.2 1 2.1 1.7 2.1.6 0 .3.5-.7 1.1-1.4.8-2.2.8-3-.1-.9-.8-.8-1 .3-.7.8.2 1.2.2.7 0-.4-.3-.5-.8-.3-1.2.3-.4-.5-.8-1.7-.8-1.7-.2-1.8 0-.7.7 1.2.8 1.2 1-.3 1.6-.9.3-1.7 1.2-1.7 1.9s-.8 1.9-1.7 2.6c-1.5 1.2-1.6 1.2-.9-.6.6-1.6.5-1.8-.5-.8s-1 1.6-.1 2.5c.9.9.7 1.4-.6 2.4-2.5 1.9-3.7 1.7-2.1-.4 1.3-1.6 1.3-1.6-.5-.2-1.1.8-2.1 1.4-2.3 1.2-.3-.2-.8-.1-1.1.3-.4.4-.2.6.3.5 2.2-.5 2.7.1 1.5 1.5-1 1.2-1.6 1.3-2.9.3-1.4-1.2-1.4-1.1-.2.5.9 1.2 1.7 1.4 2.6.7 1.2-1 2.5-.4 2.5 1.2 0 .5-.4.7-.9.3-.5-.3-1.3-.1-1.6.5-.5.8-1.2.7-2.3-.2-1.4-1-1.5-1-.5.2 1.8 1.9 1.6 2.7-.7 3.3-1.4.4-1.8 1.1-1.4 2.8.3 1.3.6 3.1.8 3.8.1.8.9 1.7 1.7 1.9 1.1.3 1.1.1-.1-.7-.9-.7-1-1.1-.3-1.1.6 0 1.5.5 1.9 1.2.5.8 1.1.6 1.9-.6 1.1-1.5 1.3-1.5 1.9-.1.3.9.2 1.3-.3 1-.5-.3-1.2-.1-1.6.5-.4.6-1.1.8-1.6.5-.5-.4-.9-.1-.9.5 0 .7-.7.7-2.3-.2-3-1.6-5.7-2-5.7-.8 0 .6.6.9 1.3.7.7-.1 1.1.6.9 1.9-.1 1.2.5 2.7 1.5 3.5 1.4 1.2 1.6 1.2.8 0-.5-.9-.4-1.2.3-.7.6.3 1.5-.2 2.1-1.1.9-1.7 1-1.6.9.2 0 1.1.2 2.9.6 4 .6 1.6.4 1.5-.6-.3-1.5-2.4-3.1-2-2.1.6.5 1.1.2 1.4-1 .9-.9-.3-1.9-.2-2.2.3-.5.9 1.6 1.5 3.8 1.1 1.1-.2-1 3.6-2.5 4.5-.6.4-.8.3-.5-.3.4-.7-.7-1-3.1-.9-2 0-3.7-.3-3.7-.9 0-.5.4-.9.8-.7.5.1.5-.2.2-.8-.5-.8-1.3-.6-2.6.6-2 1.8-2.6 2.9-1 2 .5-.3 1.4.1 2 .8 1 1.2.8 1.5-1.1 1.9l-2.3.4 2.3.2c1.2 0 2.5-.6 2.8-1.4.4-.8 1-1.5 1.6-1.5.5 0 .6.5.2 1.2-.4.7-.3.8.4.4s2-.2 2.9.4c1.6 1 1.6 1-.3.5-1.4-.4-2.1-.1-2.1 1 0 1.8-.1 1.8 3.2.5 1.7-.7 2.4-.7 2 0-.3.6-1.3 1-2.1 1s-1.2.5-.9 1c.4.6 1.1.7 1.7.4.7-.5.8-.2.3.5-.5.9-1 1-1.8.2-2.3-2.3-2.9-1-.6 1.5 1.6 1.7 1.8 2.3.7 1.9-.9-.4-1.9-1.3-2.2-2.1-.3-.8-1.1-1.4-1.7-1.4-.8 0-.8.4.1 1.5s.9 1.5.1 1.5c-.7 0-.9.5-.5 1.2.4.8.3 1-.2.5s-.9-1.2-.9-1.5c0-.4-.4-1.3-.8-2-.5-.7-.4-1.2.3-1.2.6 0 .9-.4.5-.9-.3-.6.3-1.5 1.2-2.1 1.7-1.1 1.7-1.1 0-.6-1 .3-2.1.6-2.3.6-.2 0-.4.7-.4 1.5s-.5 1.5-1.1 1.5c-.6 0-.8-.7-.4-1.8.5-1.4.4-1.5-.7-.4s-1 1.5.2 2.5c2.2 1.8 2.2 3.5-.1 4.2-1.4.5-1.8 1.2-1.3 2.7.5 1.7.3 1.8-1.5.9-1.7-1-2-.9-1.5.4.3.8 1 1.3 1.4 1 .4-.3.7.6.6 2 0 1.4-.4 2.5-.8 2.5-.5 0-.8.5-.8 1.1 0 .5.5.7 1 .4.6-.3 1 0 1 .7 0 1 .3.9.9-.2.6-.8.7-1.8.4-2.4-.3-.5-.1-.6.5-.2.6.3 1.3.2 1.7-.3.3-.6-.3-.8-1.5-.6-2.3.5-2.5-.4-.6-3 1.8-2.5 5.5-2.8 4.8-.3-.2 1 .1 1.8.7 1.8s1.1.4 1.1 1c0 .5-.3.9-.7.9-2.1-.3-3.4.2-2.8 1.1.4.6 1.1.7 1.7.4.7-.4.8-.2.4.5-.6.9-1.1.9-2.1.1-.8-.7-1.5-.7-1.9-.1-.6.8 3 2.7 4.5 2.4.3-.1.6.4.6 1.2 0 1.2-.4 1.1-2.1-.1-2.5-1.7-4.6-1.8-4.6-.2 0 .6.3.8.6.5.4-.3 1.5-.2 2.6.4 1.4.8 1.7 1.4.9 2.3-.6.7-.7 1.7-.3 2.1.4.5.2.5-.5.1-1.7-1-3.5 2.8-2.1 4.2.9.9.9 1.2-.1 1.2-.7 0-.9.5-.6 1 .4.6 1 .8 1.4.6.4-.3.8.2.8 1 0 1-.4 1.1-1.1.4-2.3-2.3-2.8-.8-.5 1.7l2.4 2.8-2.7-2.4c-1.4-1.2-3.1-2-3.7-1.7-.6.4-2.1.2-3.3-.4-2.1-1-2.1-1-.5.3 1.8 1.5 2.4 3.2.7 2.2-.6-.4-.5.5.2 2 .8 1.8 1.7 2.4 2.9 2 1.3-.5 1.7-.1 1.6 1.4 0 1.1-.5 1.7-.9 1.5-.5-.3-.5-1.1-.1-1.7.4-.7.1-.7-.9.1-1.5 1.2-1.9.9-3.3-1.7-.8-1.7-1.8-3.1-2.1-3.1-.2 0 0 .9.6 2.1 1.7 3.1 2 5.9.8 5.9-.7 0-.3.6.7 1.4 1.2.8 1.6 1.9 1.2 3.1-.5 1.3-1.1 1.4-2 .7-.9-.8-1.7-.8-2.7 0-1.2.8-1.1.9.3.4 1.3-.4 2 0 2.4 1.4.3 1.1 1 2 1.5 2s.6.5.2 1.2c-.4.6-.3.8.4.5.5-.4.9-1.8.7-3.2-.1-1.4.2-2.8.7-3.1.4-.3.6-.9.3-1.4-.3-.4.2-1.3 1.1-2 1.2-1.1 1.7-1.1 2.7 0 1 1 .9 1.2-.5.7-2.1-.7-3.4.9-1.4 1.6.7.3 1.4 1.7 1.3 3.1 0 2.4-.1 2.5-1.3.9-1.2-1.7-1.3-1.6-1.1.4.1 1.3.5 2.4.9 2.4.4.1 1.2.2 1.7.3.6 0 1.6.8 2.3 1.6 1.1 1.2 1.1 1.2-.2.3-1.3-1-1.8-.8-2.8.8-.7 1.1-1.7 1.7-2.2 1.4-.6-.4-.8-1.1-.4-1.6.3-.5 1-.7 1.5-.4.5.4.9.2.9-.3 0-1.7-2.8-2.2-3.4-.6-.6 1.7.5 5.2 1.8 5.4.5.1 1.3-.5 1.8-1.4 1-1.9 2.8-2.1 2.8-.4 0 .6-.3.9-.6.5-.4-.3-1.5.4-2.6 1.6-1.1 1.2-1.6 1.6-1.2.8.4-.9.3-1.2-.4-.8-.5.4-.8 1.7-.5 3 .5 2.2.5 2.2-1.1.2-1.7-2-1.7-2-.6.3.6 1.2.8 2.7.4 3.3-.4.6 0 1.5.7 2 2.2 1.3.3 2.2-2.3.9-2-1-2.1-1-.6.3 1 .8 1.5 1.7 1.1 2.1-.4.4.1.4 1.2.1 1.6-.6 1.5-.3-.5 1.5-2.2 1.9-2.2 2-.3 1.1 1.5-.8 2.4-.8 2.8 0 .5.7 1.4.5 2.9-.5 1.9-1.2 2.3-1.2 2.3-.1 0 .8-.5 1.1-1 .8-.5-.3-.8 0-.5.8.3.8 1 1.4 1.6 1.4.5 0 1.3.3 1.7.7.9.9-1.6.5-3.3-.5-.6-.5-1.2-.4-1.2 0 0 1.2 3.7 4.3 4.3 3.6.3-.3.4.2.3 1.1-.1.9-.8 2.2-1.6 2.9-1.2 1-1.2.9-.1-.6.9-1.2 1-1.7.2-1.7-.6 0-1.6 1.1-2.1 2.5s-1.7 2.8-2.5 3.1c-.8.4-1.5 1.1-1.5 1.6 0 .6.6.6 1.4-.1 1-.8 1.6-.9 2.1-.1.3.5 0 1-.7 1-.8 0-.7.4.4 1.1 1 .5 1.5 1.6 1.2 2.4-.7 1.8 1.2 2 2.2.3.5-.7.3-.8-.7-.3-1.2.8-1.2.6 0-.8.7-.9 1-1.7.7-1.7-.4 0 0-.7.9-1.6 1.3-1.3 1.9-1.4 2.8-.5.9 1 .9 1.2-.2.9-.7-.2-1.6.3-1.9 1.1-.3 1 .1 1.3 1.6.9 1.6-.5 2-.2 1.7 1.4-.6 2.9-1.2 3.3-3 1.8-1.4-1.2-1.7-.9-1.4 1.7 0 .5-1 1.1-2.3 1.5-2.3.6-2.3.6-.1.7 1.6.1 2.1.6 1.6 1.6-.3.9.2 2.2 1.3 3 1.7 1.2 2.2 1.1 4.9-1.3 1.6-1.5 2.4-2 1.7-1-.9 1.1-1 1.8-.2 2.3.6.4.7 1.3.1 2.3-1 2.1-.3 4.4 1.1 3.6.6-.4.8-.2.4.4-.3.6-.1 1.4.5 1.7.5.4.8 1.3.5 2-.3.8 0 1.5.7 1.8.6.2.4.6-.6 1-.9.3-1.6.3-1.5-.1.1-.4-.3-1.7-1-2.8-.6-1.2-.8-2.4-.5-2.8.3-.3.1-.6-.6-.6s-1-.4-.6-.9c.3-.6-.5-1.5-1.7-2.2l-2.2-1.2 1.8 2.9c1.1 1.5 2 3.8 2.2 5 .3 2.8-2.2 3.9-3.5 1.6-.9-1.5-1-1.4-.8.5 0 1.2.4 2 .8 1.7.4-.2 1 .3 1.3 1.2.5 1.3.9 1.4 2.1.4 1.6-1.4 2.1 0 .5 1.6-.6.6-.6 1.5 0 2.4.7 1.1 1 1.1 1 .2 0-.7.5-1 1-.7.8.5.7 1.2-.2 2.3-.7.9-.8 1.3-.3 1 .6-.3 1.9.4 3 1.5 1.7 1.7 1.7 1.9.3 1.4-2.7-1-2.1.6.7 2 1.4.6 2.3.7 1.9.2-.3-.5 0-.9.5-.9.6 0 1.1-.5 1.1-1.1 0-.5-.5-.7-1.2-.3-.7.5-.8.3-.3-.6.6-.9.4-1.1-.5-.5-.9.6-1.1.4-.5-.5.6-.9.4-1.1-.6-.5-1.1.7-1.2.6-.2-.6.8-.9.9-2 .3-2.9-.8-1.2-1-1.3-1-.1 0 1.1-.5 1-2-.4-2.2-2-1.9-3.5.3-1.7 1 .9 1.4.8 1.4-.3 0-.8-.5-1.1-1-.8-.6.4-.7.1-.2-.7.6-.9.4-1.1-.6-.5-1.2.7-1.2.6 0-.6 1-1.1 1.5-1.1 1.8-.1.3.6 1 .9 1.6.5.8-.5.8-.2 0 .9-1.3 1.5-.8 2.8.9 2.8.5 0 .6-.4.3-1-.3-.5-.1-1 .4-1 1.2 0 1.4 1.3.4 2.4-1.3 1.3-1.2 3.8.2 3.2 1-.3 1.2 0 .8 1.1-.5 1.2-.3 1.4.8.7 3-1.8 4.1-1.4 2.5 1.1-.9 1.3-1.2 2.6-.7 3 .5.3 1.1.2 1.4-.2.2-.5.2-.2.1.5-.2.7.6 1.7 1.9 2.2 1.7.7 1.8.9.4.9-1.4.1-1.6.5-.7 2.1.9 1.6.8 1.8-.5 1.4-.8-.3-1.3-1-1-1.5.3-.4-.4-1.3-1.5-1.9-1.2-.7-1.9-1.8-1.6-2.5.3-.8.1-1.7-.4-2-.6-.4-1 .3-1 1.5s-.4 1.8-1 1.5c-.5-.3-1-.1-1 .5 0 .7.7.9 1.6.6 1.2-.4 1.4-.1.9 1.4-.4 1.2-.2 2 .5 2 .6 0 .8-.5.5-1-.3-.6 0-1 .7-1 .8 0 1.4.9 1.5 2 .1 1.1-.2 1.8-.7 1.5-.5-.3-1.2-.1-1.5.5-.4.6-.3 1 .2.9 2-.3 2.7.2 1.3 1.2-1.2.8-1.1.9.6.4 2.1-.5 4.3 1 4.2 3 0 .5.8 1.4 1.8 2 1.1.5 2.2 1.4 2.5 1.9.4.5 1.2.5 1.8.2.6-.4 1-.4.9.1-.2.5 1.2 3.2 3 6 1.9 2.9 3.1 5.7 2.8 6.2-.4.5-.1 1.3.5 1.7.8.4.9.3.5-.4s-.2-1.2.4-1.2c.6 0 .9-.4.6-.9-.4-.5-.3-1.1.1-1.4.5-.2.2-.2-.4-.1-.7.2-1.4-.1-1.4-.6-.1-.6-.2-1.5-.3-2 0-.6-.8-1.5-1.6-2-1.1-.7-1.1-1-.2-1 1 0 1-.5.1-2.1-.8-1.6-1.3-1.8-1.9-.9-.5.9-.9.9-1.4.1-.4-.6-.3-1.1.3-1.1.5 0 1.3-.9 1.6-2 .3-1.1 1.1-2 1.8-2 .8 0 .8.3-.1 1.2-1.9 1.9-1.4 3.2.6 1.7 1.4-1.1 1.5-1.1.5 0-1.3 1.5-.6 4.4.8 3.5.5-.3.9 0 .9.5 0 .6-.5 1.1-1.1 1.1-.5 0-.7.5-.4 1 .5.8 1.1.8 1.9.1.7-.6 1.6-.8 1.9-.4.4.3.7-.2.8-1.3 0-1.1.3-1.4.6-.6.6 1.5-1.6 4.4-2.8 3.6-.5-.3-.9-.1-.9.3 0 .5 1 1.4 2.1 2.2 1.9 1.1 2.1 1.1 1.6-.2-.3-.9.2-2.1 1.1-2.8 1.4-1.1 1.5-1.1.5.1-1.7 1.8.2 5.1 2.4 4.3 1.1-.4 1.4-.3.9.5-.4.7-.2 1.2.3 1.2.6 0 1.1.5 1.1 1.1 0 .8-.4.8-1.5-.1-.8-.6-2-.8-2.6-.4-.8.5-.9.3-.4-.6.6-.9.4-1.1-.5-.5-.8.5-1.1.4-.7-.2.3-.5 0-1-.8-1-2 0-1.9 1.3.1 2.1 1.4.5 1.4.9.3 2.4-.7.9-.9 1.4-.5 1 .5-.4 1.5-.3 2.2.3 1 .8 1.2.6.9-1.3-.4-2.2-.4-2.3 1.1-.3 1.3 1.8 1.3 2.1-.3 3.2-1.4 1.1-1.4 1.5-.4 2.6 1 1 1.2.9.9-.2-.2-.7.3-1.6 1-1.8.6-.3 1.2.3 1.2 1.2 0 1.1.5 1.5 1.4 1.2.8-.3 2 .1 2.7.9.6.8 1.4 1.2 1.7.9.3-.3 1.1.4 1.9 1.5.8 1.1 2.1 2 2.9 2 .8 0 1.4.3 1.4.8 0 .4.9 1.3 2.1 2 1.2.8 1.8.9 1.4.3-.3-.6.1-1.1.9-1.1.9 0 1.6-.6 1.6-1.3 0-.8.3-.8.9.2.5.8 1.8 1.6 2.7 1.7 1 .2 2.3 1 2.9 1.8 1 1.3 1.3 1.2 2.3-.2 1-1.5 1.1-1.5.5.2-.4 1.3-.3 1.7.5 1.2.6-.3 1.3-.2 1.6.3.3.5-.8.7-2.4.6-1.7-.1-3 .1-3 .6s.5.9 1.1.9c.5 0 .8.4.5.8-.3.5.1.9.9.9s1.2-.4.9-.9c-.5-.8 3-1.3 5.1-.8.6.2 1.7.3 2.6.4 2 0 1.9 3.3-.1 4.6-.8.5-1.2 1-.7 1 .4 0 1.6-.6 2.8-1.3 1.7-1 2.2-.9 3.5.7.8 1.1 1.4 1.5 1.4.8s-.9-1.7-2-2.4-2-1.8-2-2.5c0-.8.8-.5 2 .7 1.3 1.3 3 1.8 5 1.6 1.7-.2 3.3.1 3.6.6.3.5 1.2.4 2-.3.9-.7 1.4-.8 1.3-.3-.8 4.4 2.1 5.4 6 2l2.4-2.1-1.9 3-1.8 3 2.8-2.5c2.7-2.3 2.8-2.4 1.7-.3-1.6 3.2-1.4 3.6.9 1.3 2.2-2.2 4-2.6 4-.9 0 .5-.5.7-1.2.3-.7-.4-.8-.3-.4.4 1 1.7 3.6.3 2.9-1.6-.7-1.8-.5-1.7 1.7 1.2 1 1.3 1 1.7.3 1.2-.7-.4-1.3-.3-1.3.2 0 .6.6 1.2 1.4 1.5 1 .4 1.3-.1 1.1-1.9-.1-1.3.2-2.7.7-3 .4-.3.8-.2.7.3-.4 2.5.4 4.1 2.5 5.1 1.3.6 2.7.8 3 .5 1-1 .7-4.5-.4-3.8-.5.3-.7 1.2-.3 2 .3.8.3 1.5 0 1.5-1 0-3.7-3.1-3.7-4.3 0-.7.4-.6 1 .3.7 1.1 1.2 1.2 2.1.3 1.3-1.3 4.9.3 4.5 2.1-.2.6-.1.8.1.3.3-.4 1-.4 1.6 0 .7.3.3-.4-.8-1.8-1.1-1.3-1.6-2.1-1.1-1.7.5.4 1.6.2 2.5-.5 1.4-1.1 1.4-1 .2.5-1.5 2-.2 2.5 1.7.6.7-.7 1.2-.9 1.2-.5s.9.3 2-.3c1.6-.8 1.8-.8 1.4.4-.3.8-1.4 1.3-2.4 1.1-1.4-.3-1.6.1-1.2 1.8.5 1.9.7 2 1 .4.4-1.8.4-1.8 1.8 0 1.3 1.7 1.4 1.7.7-.1-.5-1.4-.3-1.7.7-1.1.9.6 1.1.4.5-.5-.6-1-.4-1.2.9-.7 1 .4 2 .7 2.3.7.3 0-.1.8-.8 1.7-1.3 1.6-1.2 1.7.3.4 1-.7 1.5-1.8 1.2-2.3-.3-.5 0-.8.7-.7 2.1.4 8.9-2.8 8.9-4.2 0-.7.7-.4 1.5.7.8 1 1.5 1.5 1.5 1s.7-.3 1.5.4c1.2 1 1.6.9 2.1-.4.3-.9 1-1.6 1.6-1.6.5 0 .6.6.2 1.2-.6.9-.3.9.9 0 .9-.8 2.2-1 2.8-.6.8.4.9.3.5-.4-1-1.6.7-1.5 2.3.1 1.1 1 1.2.9.6-.2s-.4-1.3.8-.8c1.2.5 1.5 0 1.2-2.6-.2-1.8-.1-2.6.2-2 .2.7 1 1.3 1.6 1.3.6 0 2 .8 3.1 1.7 1.2 1 1.5 1.1.9.3-.7-.8-1.3-1.7-1.3-2 0-1 3.3-.9 4.6.1.7.5 1.1.3 1.1-.6 0-.8-.4-1.2-.9-.9-.4.3-.8.2-.9-.3 0-.4-.2-1.8-.3-3-.2-1.3 0-2.1.2-1.8.3.3 1.1-.3 1.9-1.3 1.3-1.5 1.3-1.5.4.4-.8 1.6-.6 2.6.5 4 1.4 1.8 1.5 1.8.9-.2-.7-2.8 2.1-6 3.9-4.4.7.5 1.6.7 1.9.3.4-.3 1.3 0 2.2.7 1.3 1.1 1.4 1 .9-.4-.4-.9-.3-1.6.2-1.5 2.1.4 3.5-.2 2.9-1.1-.9-1.4.8-1.3 2.3.2.7.7 1.2.9 1.2.6 0-.4-.7-1.4-1.6-2.3-.9-.9-1.3-1.9-.9-2.3.3-.4 1.2 0 1.8.9 2.3 3.1 4.5-1.5 2.4-4.9-.5-.6-.4-1.2.2-1.2.5 0 1.3.9 1.6 2 .3 1.1 1.1 2 1.6 2 .6 0 .7-.5.3-1.2-.5-.7 0-.9 1.4-.6 1.6.4 1.9.2 1.5-1-.4-1-.2-1.3.5-.8.8.5 1 .2.6-.8-.3-.9-.1-1.6.5-1.6s1.1.4 1.1 1c0 .5.5 1 1.1 1 .8 0 .8-.5-.1-1.5-1-1.2-1-1.6.1-1.9 4.3-1.4 4.4-1.4 2.7-1.5-1-.1-1.8-.6-1.8-1.2s.9-.8 2-.4c1.2.4 2 .2 2-.6s.4-.8 1.5.1c.9.7 1.8 1 2.2.6.3-.3 0-.6-.8-.6-1.2 0-1.1-.2.1-1.1 1.3-.9 1.3-1-.1-.6-.9.3-2.2 0-2.9-.6-1-.9-1.1-.9-.5.2.6 1 .4 1.2-.5.6s-1.1-.4-.5.4c.6 1 .3 1.1-1.4.2-1.7-1-2.1-.9-2.2.4-.3 3.1-.4 3.5-1.2 3.5-1.2-.1-3.5 2.4-3.1 3.2.3.4-.5 1.2-1.6 1.8-1.3.7-2 .7-2 0 0-.5.8-1 1.8-1 1.4 0 1.5-.2.2-.9-.8-.6-1.8-.7-2.4-.4-.5.3-.6.1-.2-.6.4-.6 1.1-.9 1.6-.6 1.2.8 5-2.5 6.1-5.2.6-1.6 1.3-2.1 2.5-1.6 1.3.5 1.5.3.9-.8-.4-.8-.5-1.1 0-.7.4.4 1.4 0 2.2-1 1.2-1.6 1.3-1.6.7 0-.3 1-.1 1.8.5 1.8s1.1-.9 1.1-2c0-1.2-.7-2-1.7-2-1.5 0-1.6-.2-.3-1 .9-.6 1.7-.5 2.2.3.4.7.8.9.9.4.1-.4.3-1.2.4-1.7.1-.6.3-1.5.4-2.1 0-.5.6-.7 1.1-.4.6.3 1 .2 1-.4 0-.5-.6-1.1-1.2-1.4-1.7-.6 2.2-3.8 3.9-3.2.7.2 1.5 0 1.8-.5.3-.5 1.5-.7 2.6-.5 1.1.2 3 0 4.2-.5 2.1-.8 2.1-.9.2-.9-1.2-.1-2.7-.7-3.4-1.4-1.1-1-1.2-.9-.6.2.6 1 .4 1.2-.5.6-.8-.5-1.1-.4-.7.2.5.8-.4.9-4.4.4-.7-.1-2.1-3.1-1.4-3.1.2 0 1 .6 1.8 1.4.9.9 1.9 1.1 2.8.5 1.2-.7 1.2-.9 0-.9-1.1 0-1.1-.3-.1-1.5 1.2-1.4 1-1.5-1.5-1.1-1.5.3-2.4.2-2-.2.3-.4 1.8-.7 3.3-.7 1.4-.1 2.8-.7 3-1.4.3-.9 0-1.1-.8-.6-.9.5-1.1.4-.6-.4.4-.6 1.1-.9 1.6-.6.5.3 1.2-.4 1.5-1.6.4-1.1 1.3-1.8 2-1.5.8.3 1.2-.2 1-1.2-.2-.9-.4-1.9-.4-2.2-.1-.3-.5.1-1 .8-.7 1.1-.9 1.1-1.4 0-.3-.9.2-1.4 1.4-1.5 1-.1 1.9.3 1.9.8 0 .6.5.7 1.2.3.7-.5.5-1.1-.7-2.1-1.8-1.2-1-1.9 1.8-1.4 1 .1.9-.7-.4-3.1-.9-1.6-.8-1.9.2-1.3.9.6 1.1.3.6-.8-.4-1 .3-2.1 1.9-3.1 1.3-.9 2.4-2.1 2.4-2.7 0-.7-.6-.6-1.7.2-1.5 1.3-1.5 1.2-.2-.8.9-1.6 1.6-1.9 2.1-1 .7 1.2 1.2.2.9-1.7-.1-.5.4-1.3 1.1-1.7 1-.6.9-1.1-.6-2.2s-1.6-1.6-.6-2.2c.9-.5 1.1-.4.6.3-.4.7-.3 1.2.3 1.2.5 0 1.2-.6 1.4-1.3.4-.9.6-.9.6.1.1.8.6 1 1.4.6 1-.6 1-.4 0 .7-1.5 1.6-1.7 3.3-.3 2.4.6-.3.7.1.3 1-.4 1.2-.8 1.3-1.3.5-.5-.9-.9-.9-1.4-.1-.4.6-.2 1.1.5 1.1s.5.6-.6 1.3c-1.1.9-1.5 1.9-1 2.7.5.8.4 1.1-.3.6-.7-.4-1 .2-.9 1.4.1 1.9.3 1.9 1.3.6 1.5-2.2 2.2-2 2.6.6.2 1.4 1.1 2.2 2.5 2.3 1.2.1 2-.2 1.7-.7-.4-.5-1.3-.7-2.1-.4-1.1.5-1.4.1-1-1.4.3-1.3-.1-2.1-1.4-2.5-1-.4-1.9-1.1-1.9-1.6 0-1.2.6-1.1 3 .3 2.3 1.5 3.9.3 2-1.5-1-.9-1.1-.9-.6 0 .8 1.5-1 1.8-1.9.4-.3-.6.3-1.4 1.2-2 1-.6 1.5-1.1 1.1-1.1-.5 0 .1-.9 1.3-2.1 1.7-1.7 1.8-2.3.7-3.7-1.1-1.4-1.1-1.5.6-.9 1.7.7 1.7.6.5-.9s-1.2-1.6.8-1c1.2.4 2.4.2 2.8-.3.4-.7-.1-.8-1.1-.4-1.2.4-1.5.3-1-.5s.1-1-1.1-.6c-1.6.5-1.6.4.1-1 1.6-1.3 1.7-1.8.6-3.1-1-1.2-1-1.8 0-3 .7-.9 1.9-1.4 2.7-1.1.8.3 1.2.2.8-.3-.3-.5 0-1.2.5-1.4.6-.3.5-.4-.2-.3-.7.2-2.2 0-3.4-.5-1.8-.6-2.1-.4-1.8 1.7.1 1.3-.1 2.4-.6 2.4-.4 0-.6 1.3-.5 3 .1 1.6-.1 2.7-.6 2.5-.4-.3-.6.6-.3 2 .3 1.6 0 2.5-.8 2.5s-.6.5.4 1.1c1.7 1 1.4 3.9-.4 3.9-.6 0-.8-.7-.5-1.5.4-.8.2-1.7-.4-2-.5-.4-.6-1.1-.3-1.7.4-.6-.2-.8-1.7-.3-1.9.5-2.1.4-.9-.4 1.4-1 .7-1.5-1.3-1.2-.5.1-.5-.4-.2-1 .5-.8 1-.8 1.8 0 1.8 1.8 3.1 1.3 1.6-.6-1-1.1-1-1.4-.1-.9.6.4 1.2.3 1.2-.3 0-.5-.6-1.2-1.2-1.5-.7-.3-.2-.3 1.2.1 2.1.5 2.3.4 1.3-.9-1-1.1-1-1.7 0-2.7 1-1.1.7-1.2-1.3-.8-2.3.6-2.3.5.3-.5 1.5-.7 2.7-1.6 2.7-2.1 0-.4-.4-.6-.9-.2-.5.3-1.3 0-1.7-.6-.5-.8-.3-.9.6-.4.9.5 1 .2.5-1.4-.4-1.4-.1-2.8.8-3.9 1.5-1.7 1.7-2.1 1.7-4.3 0-.5.5-.7 1.1-.3.8.4.7.9-.2 1.5-.8.5-.9.9-.3.9.6 0 1.9-1 3-2.2 1.8-2.2 1.8-2.2 0-.8-1.8 1.4-1.8 1.3-1.1-.9.5-1.8.4-2.2-.5-1.6-.8.5-1.1.4-.6-.3.3-.5 0-1.2-.6-1.5-1-.3-1-.7-.1-1.7s.9-1.9-.3-4.3c-.9-1.6-1.1-2.6-.6-2.3 1.7 1 2.5-1.4 1-3.2-1.2-1.5-1.1-1.6.5-.3.9.8 2.1 1.1 2.4.7.4-.4.2-1.1-.5-1.5-.8-.4-1-1.5-.6-2.6.6-1.4.4-1.6-.7-1-.8.5-.5-.2.6-1.5 1.7-2 1.7-2.2.3-1.7-1 .3-2 .2-2.3-.4-.4-.5-.3-.9.2-.8 2 .3 3.4-.2 2.8-1.1-.3-.5-1.3-.7-2.3-.3-1.1.3-.9 0 .6-1.1 1.2-1 2.2-2.2 2.2-2.8 0-.6-1-.3-2.2.8-1.3 1.1-1.8 1.3-1.1.3 1-1.2 1-1.8 0-2.9-.9-1.1-.7-1 .7 0 1.8 1.4 1.9 1.3 1.3-.2-.3-1-.2-2 .3-2.3.6-.4 1-1.1 1-1.8 0-.8-.3-.8-1.2.1-.7.7-1.7 1.2-2.2 1.2-.6 0 0-.7 1.2-1.6 1.8-1.3 2-1.9 1.1-3.6-.8-1.5-.8-1.9 0-1.4.7.5 1.1-.2 1.1-1.6 0-1.8.2-2 1-.8.5.8.5 1.9 0 2.5-.9 1.1-.8 4 .2 5 1.1 1.1 3.1-2.5 2-3.8-1.1-1.2-1.2-1.7-1.2-4.2 0-1-.9-1.3-3-1-1.6.2-3.2-.1-3.6-.6-.3-.5-.2-.9.3-.8 1.8.3 3.3-.2 3.3-1.1 0-.5-.7-.7-1.5-.4-.8.4-1.5.1-1.5-.6 0-.6.5-.8 1.2-.4.8.5.9.2.5-1-.4-1-.3-1.5.3-1.1 1.3.8 1.3-.1-.1-2.6-.8-1.5-1.4-1.7-2.3-1-.9.8-1.3.7-1.3-.4 0-.8.4-1.2.8-.9.4.2.7-.5.6-1.7-.1-1.2-.9-2.4-1.9-2.7-1-.2-1.8-.8-1.8-1.3s.6-.6 1.4-.3c1.1.4 1.3 0 .9-1.5-.3-1.1-.9-1.9-1.3-1.6-1 .6-.8-1.5.3-3.1 1.1-1.9-.5-2.5-2-.6-1.1 1.3-1 .9.1-1.4 1.5-3 1.4-3.2-.9-5-3-2.3-3.1-2.6-.4-4.2 1.5-1 1.9-1 1.4-.1-.6.8-.4 1 .5.4s1.1-.4.5.6c-.6 1.1-.5 1.1.5.2.7-.6 2-.9 2.9-.6 1 .3 1.2.2.5-.4-.6-.4-1-1.5-.9-2.4.4-2.1-2.8-1.8-5.7.7-1.8 1.5-2 1.5-.9.1 1.5-1.9.2-2.4-1.7-.5-.9.9-1.2.9-1.2 0 0-.7.5-1.2 1-1.2.6 0 1-.5 1-1.1 0-.5-.4-.8-.9-.5-.5.4-1.7.3-2.6 0-1.4-.6-1.3-.8.5-2.1 1.1-.8 1.7-1.9 1.4-2.5-.4-.7-.9-.6-1.4.3-.5.7-1.6 1.4-2.4 1.5-.9.1-1.4-.2-1-.7.3-.5 1-.7 1.5-.4.8.6 1.3-.9 1-2.8-.1-.5.3-.6.9-.2.5.3 1 .1 1-.6 0-.6-.8-.9-1.9-.6-1.5.3-1.8.1-1.4-1.2.3-.9-.4-.5-1.5.9-1.1 1.3-1.8 2.9-1.5 3.4.3.5.1.6-.6.2-.8-.5-.5-1.6 1-3.7 1.2-1.7 1.8-3.3 1.5-3.7-.4-.3-1.1 0-1.6.8s-1.2 1.1-1.6.7c-.4-.3.4-1.6 1.7-2.8 1.7-1.5 1.9-1.9.7-1.5-1 .3-1.8.1-1.8-.4 0-.6.6-1 1.4-1 .7 0 1.9-.7 2.6-1.5.7-.8 1.6-1.2 2.1-.9.5.3.9 0 .9-.5 0-1.4-1.3-1.4-2.8.1-1.5 1.5-1.6-.3-.2-2 .6-.6.7-.9.3-.7-.4.3-1.3-.5-2-1.7-.7-1.3-1.2-1.7-1.3-1 0 .7-.5 1-1 .7-.8-.5-.7-1.1.1-2.1.6-.8.9-1.7.6-2.1-1-.9-5.8-1.2-5.2-.3.3.4-.6 1.5-2 2.4-1.4.9-2.6 1.5-2.6 1.4-.6-1.3-.5-4.6.2-4.3.4.3 1 .1 1.3-.4.4-.5-.6-1.4-2.1-2-1.9-.8-2.1-1-.6-.7 1.5.3 2 0 1.6-1-.3-.8-.9-1.2-1.3-.9-.4.3-1.4-.2-2.1-1.1-1.2-1.4-1.4-1.4-2.6.2-.7 1-1.3 1.4-1.3.9 0-.5.7-1.7 1.7-2.7 1.5-1.7 1.5-1.9-.3-4-1-1.2-1.4-1.9-.8-1.5.6.3 1.1 0 1.1-.8s-.4-1.2-.9-.9c-.4.3-1.1-.2-1.4-1.1-.5-1.3-.9-1.3-2.2-.3-1.3 1.1-1.5 1-.9-.6.4-1 .2-2.5-.4-3.2-.6-.7-.8-1.8-.4-2.4.4-.6.3-1-.2-.9-2.1.4-3.4-.2-2.7-1.3.4-.7.3-.8-.4-.4-.8.5-.8 1.3 0 3.1.6 1.3 1.4 2.2 1.9 2 .4-.3 1-.1 1.3.4.4.5.2 1.2-.3 1.5-.5.4-1.2.2-1.6-.4-.9-1.5-2.5-1.2-2.5.5 0 .8.3 1.4.8 1.4 1.9-.3 3.2.2 3.2 1.2 0 .8-.4.8-1.2.2-.7-.6-2.3-.9-3.6-.8-1.3.1-2.5-.2-2.8-.7-.3-.5 0-.7.8-.6 1.3.3 1.3-.1.3-5.9-.2-1.3.2-2.1.8-2 .6.1 1.2-.7 1.3-1.8.2-1.5.2-1.6-.2-.2-.3.9-1 1.5-1.5 1.1-.5-.3-.6-1.1-.3-1.7.5-.8.3-.8-.7 0-.7.7-1.8 1.3-2.4 1.3-.5-.1 0-.9 1.3-2 1.2-1 1.8-2.1 1.3-2.4-.5-.3-1.2.2-1.6 1.2-.6 1.6-.7 1.6-2.1-.2-.8-1.1-1.4-1.6-1.4-1 0 .5-.9 1.5-2.1 2.2-1.2.8-1.8.9-1.4.3.3-.6.2-1.1-.4-1.1-.5 0-1.3.4-1.6 1-.3.5-1.1 1-1.8 1-.6 0-.2-.6.9-1.4 1.5-1.2 1.6-1.7.7-2.7-2.6-2.6-5-1.8-4.4 1.4.1.5-.3.6-.9.2-.7-.4-.7-1.2 0-2.4 1.3-2.5 0-3.5-1.7-1.3-1.2 1.6-1.3 1.6-.6-.2.5-1.4.3-1.7-.7-1.1-.8.5-1.1.4-.7-.2 1-1.6-1.8-3.4-3.8-2.6-1.5.5-1.7.3-1.1-1.3 1.2-3.2 1.2-3.9-.4-4-.8-.1-1.8-.3-2.2-.4-.5-.1-1.3-.3-1.8-.4-.6 0-1.5-.8-2-1.6-.6-.9-1-1-1-.3s-.7 1-1.5.7c-.8-.4-1.5-.1-1.5.4 0 .6.9.9 1.9.7 1.5-.3 1.8 0 1.4 1.3-.5 1.1-.8 1.2-1.1.4-.3-1-.7-1-1.9-.1-1.1 1-1.4 1-1.1-.2.2-.9-.4-1.3-1.4-1.1-1 .2-1.8-.2-1.8-.8 0-.5.5-.9 1.1-.8.6.2 1.3-.6 1.5-1.7.2-1.6-.2-1.5-2.4 1-1.4 1.6-2.3 2.2-1.9 1.2.9-2.2 1.5-4.4.9-3.4-.2.4-1.1 0-1.9-1-1.3-1.7-1.3-1.6-.3.4.6 1.3.9 2.4.8 2.4-.2.1-1.5.3-3 .4-2.6.4-5.7-1.9-4.4-3.2.3-.3.6-.1.6.7 0 .9.3 1 1.4.1 1-.9 1.5-.8 2 .4.3.8 1.1 1.5 1.7 1.5.8 0 .6-.7-.4-1.8-1.3-1.5-1.4-2.1-.4-3.2.6-.8.3-.7-.9.3-2.2 1.8-3.9 2.3-3 .9.3-.5-.1-.9-.9-.9s-1.2.4-.9.9c.3.4-.1.8-.8.9-.7 0-2.1.2-3 .4-1 .2-1.7 0-1.6-.3.3-1.9-1.7-4.2-3.6-4.1-2.1 0-2.1.1-.1 1 1.6.7 1.3.8-1.3.4-1.9-.3-3.1-.1-2.7.4.3.5 0 1.3-.6 1.7-.8.4-.9.3-.5-.4s.2-1.2-.5-1.2c-.9 0-.9-.3 0-1.4.9-1.1.9-1.6 0-2.2-.8-.4-.9-.3-.5.4s.3 1.2-.3 1.2c-.5 0-1.3.9-1.6 2-.3 1.1-1.1 2-1.7 2-.6 0-.5-.6.2-1.6 1.1-1.2 1-1.8-.4-3.2-1.1-1.2-1.9-1.3-2.4-.6-.8 1.2-4.2 1.5-4.2.3 0-.9-2.6-.6-3.6.4-.4.4-1.3.2-2.1-.4-.9-.8-1.7-.8-2.6 0-.8.6-1.7.8-2.1.4-.4-.4-.4 0-.1.9.5 1.2.2 1.6-1.2 1.3-1-.2-2-.4-2.3-.4-.3-.1.2-.5 1-1.1.8-.5 1.1-1.3.6-1.7-.5-.4-1.1-.2-1.3.4-.3.7-1.3 1.3-2.4 1.3-1.9 0-2.2 1.9-.4 3.3.6.5.4.7-.5.4-.9-.2-1.5-1.6-1.5-3.5 0-1.6-.3-3.4-.7-3.8-.4-.3-.6.3-.3 1.5zm14 2.1c.5.7 1.1.8 1.9.1.7-.6 1.7-.6 2.6-.1.8.5 1.7.7 2.1.4.4-.2 1-.1 1.3.4.3.4-1.7.8-4.4.8-2.8 0-4.6-.5-4.3-1 .4-.5-.1-.7-1.1-.3-1 .4-1.5.3-1.1-.3.8-1.3 2.2-1.3 3 0zm11.6 1.3c-1.3 1.3-2.6.3-1.6-1.2.3-.6 1.1-.8 1.7-.5.6.4.6 1-.1 1.7zM146.7 20c-.5 3.1-1.2 3.1-1.3-.1-.1-1.6.2-2.6.7-2.3.5.3.7 1.4.6 2.4zm39.3 0c0 .5-1 1-2.2.9-2.2 0-2.2-.1-.3-.9 1.1-.5 2.1-.9 2.3-.9.1-.1.2.3.2.9zm-62.3 2.5c0 .8-.4 1.2-.9.9-.4-.3-.8 0-.8.7s-.3.9-.6.6c-.4-.4-.1-1.3.6-2.2 1.5-1.9 1.7-1.9 1.7 0zm6.3 1.2c0 .3-.3.3-.7 0-.3-.4-1.2-.2-2 .5-1.1.9-1.2.7-.7-.7.6-1.4.4-1.6-.6-1-.9.5-1.1.4-.6-.3.5-.9 1.3-.9 2.7-.2 1 .6 1.9 1.4 1.9 1.7zm25-1.7c0 .5-.5 1-1.1 1-.5 0-.7-.5-.4-1 .3-.6.8-1 1.1-1 .2 0 .4.4.4 1zm-35.8 2.8c-.7.2-.9.9-.6 1.5.4.7.2.7-.7-.1-1.1-1-1.7-.8-3.1 1-1.3 1.6-1.6 1.7-1.2.5.5-1.3.2-1.6-1.2-1.1-1.7.6-1.7.5.1-.9 1.1-.8 2.7-1.3 3.7-1.2 1 .2 1.8-.1 1.8-.6 0-.6.5-.7 1.2-.3.9.6.9.9 0 1.2zM189 24c0 .5-.2 1-.4 1-.3 0-.8-.5-1.1-1-.3-.6-.1-1 .4-1 .6 0 1.1.4 1.1 1zm-77.9 4.5c.5-.3.6.1.3 1-.6 1.4-.8 1.4-1.9-.2-.7-1-1-2.2-.7-2.8.4-.5.8-.2 1 .8.2.9.8 1.5 1.3 1.2zm5 .8c-1 .9-1.1.8-.5-.6.3-1 .9-1.5 1.2-1.2.3.3 0 1.1-.7 1.8zm68.4-1.3c.3.5.1 1-.4 1-.6 0-1.1-.5-1.1-1 0-.6.2-1 .4-1 .3 0 .8.4 1.1 1zm28.5 0c0-1 .3-1.1 1.1-.3.6.6 1.8.9 2.7.6 1-.4 1.3-.2.8.6-.5.7-1.6.9-2.8.5-1.4-.4-1.8-.2-1.4.5.5.7.1.9-.8.5-.9-.3-1.6-1.4-1.6-2.3 0-1.4.2-1.4 1-.1.8 1.3 1 1.3 1 0zm-104.3 3.3c0 .8-.6 1.4-1.4 1.4-.9 0-1-.4-.2-1.4.6-.7 1.2-1.3 1.4-1.3.1 0 .2.6.2 1.3zm8.8.7c-.3.5-1.2 1-1.8 1-.7 0-.6-.4.3-1 1.9-1.2 2.3-1.2 1.5 0zm-16.9 3.9c0 1.1-.4 1.7-.8 1.5-.4-.3-.8-1.2-.8-2s.4-1.4.8-1.4.8.9.8 1.9zm3.9-1c.3.5.2 1.2-.3 1.5-.5.3-.9-.1-.9-.9 0-1.7.3-1.9 1.2-.6zm116.2.6c0 .8-.4 1.2-.9.9-.4-.3-.8-.9-.8-1.5 0-.5.4-.9.8-.9.5 0 .9.7.9 1.5zM93.4 36.6c.4.9.4 1.9.1 2.2-.3.3-.5 0-.5-.6 0-.7-.7-1.2-1.6-1.2-.8 0-1.2-.5-.9-1 .9-1.5 2.2-1.2 2.9.6zM86 40.1c0 .6-.4.7-1 .4-.5-.3-1-1.1-1-1.6 0-.6.5-.7 1-.4.6.3 1 1.1 1 1.6zm5-.7c-1.3 1.3-4 1.7-4 .6 0-.9 1.7-1.7 3.8-1.7.9 0 .9.4.2 1.1zm139 .6c0 .5-.2 1-.4 1-.3 0-.8-.5-1.1-1-.3-.6-.1-1 .4-1 .6 0 1.1.4 1.1 1zm8.5 3.3c0 .7.8 1.1 1.7 1.1 1-.1 1.4.4 1.1 1.2-.4 1-.9 1.1-1.8.4-.6-.5-1.4-.8-1.6-.5-.3.2-.6-.8-.7-2.2-.1-1.5.1-2.3.5-1.9.5.4.8 1.3.8 1.9zm-2.8 1.9c-.3.8-.6.5-.6-.6-.1-1.1.2-1.7.5-1.3.3.3.4 1.2.1 1.9zm4.9 4c1.9 2.3 1.9 2.3-.2.5-1.1-.9-2.4-1.4-2.7-1-.4.3-.7.1-.7-.5 0-1.9 1.5-1.4 3.6 1zm-162.3-.3c.4.1.7.6.7 1.2 0 .8-.5.7-1.6-.1-1.3-1.1-1.6-1-2 .7-.4 1.4-1.3 2-2.9 1.9l-2.2-.1 2-2.1c1.2-1.2 2.8-2 3.6-1.9.9.2 1.9.4 2.4.4zM67 56c-.6 1.1-1.3 2-1.6 2-.2 0 0-.9.6-2s1.3-2 1.6-2c.2 0 0 .9-.6 2zm186.4 1.1c-.3.5 0 1.7.7 2.5 1 1.2 1 1.7-.1 2.7-1 1-1.2.9-.7-.5.7-2-.9-3.5-1.6-1.6-.3.7-.4-.1-.2-1.7.3-3.8.3-3.7 1.5-3 .6.4.8 1.1.4 1.6zM74.5 58c.3.6-.1.7-.9.4-1.8-.7-2.1-1.4-.7-1.4.6 0 1.3.4 1.6 1zM250 59.4c0 .2-.8 1-1.7 1.7-1.6 1.3-1.7 1.2-.4-.4 1.3-1.6 2.1-2.1 2.1-1.3zM62.4 63.6c.3.8.2 1.3-.2 1.1-.4-.3-1.3.1-2 .9s-.9 1.4-.3 1.4c.5 0 1.2.8 1.5 1.7.4 1 .4 1.4 0 1.1-.3-.4-1.4.2-2.3 1.3-1.9 2.3-5.8 3.3-6.7 1.6-.4-.7-.4-.9 0-.5.7.6 5.1-3 5.1-4.2.1-.6 3.6-6 4-6 .2 0 .6.7.9 1.6zm4.6.4c0 .5-.5 1-1.1 1-.5 0-.7-.5-.4-1 .3-.6.8-1 1.1-1 .2 0 .4.4.4 1zm-2.5 3c.3.6-.1.7-.9.4-1.8-.7-2.1-1.4-.7-1.4.6 0 1.3.4 1.6 1zm192 1.8c-.3.3-1.1 0-1.8-.7-.9-1-.8-1.1.6-.5 1 .3 1.5.9 1.2 1.2zm.5 1.6c0 .2-.8 1-1.7 1.7-1.6 1.3-1.7 1.2-.4-.4 1.3-1.6 2.1-2.1 2.1-1.3zm12.5 1.5c.3.5.1 1.3-.5 1.6-.8.5-.7 1.1.1 2.1.6.7 1.6 1.1 2.2.7.6-.3.7-.1.3.5-.4.7-.1 1.2.6 1.3 1 0 1.1.2 0 .6-.9.3-1 .9-.2 1.8s.5 1.2-1.2 1c-3.7-.4-3.8-.4-3.5-1.8.1-.6-.4-1.1-1.2-.9-.9.2-1.1-.3-.6-1.5.7-1.7 1.3-4 1.4-5.6.1-1 1.9-.9 2.6.2zm-10.8 1.6c0 .8-.4 1.2-.9.9-.5-.3-.6-1-.3-1.5.9-1.3 1.2-1.1 1.2.6zM265 75c0 .5-.5 1-1.1 1-.5 0-.7-.5-.4-1 .3-.6.8-1 1.1-1 .2 0 .4.4.4 1zM57 77c1 1.8.9 1.9-1.4.8-1.4-.6-2.3-1.5-2-1.9.9-1.5 2.3-1 3.4 1.1zm-4.4 3.6c-1.1.7-2.5 1-3.2.7-.7-.2-1.5.1-2 .8-.5.8-.3 1 .6.4.8-.5 1.1-.4.6.3-.3.6-.1 1.4.5 1.8.8.4.9.3.5-.4s-.5-1.2-.2-1.2c.2 0 1.1-.3 2-.6.9-.3 1.6-.1 1.6.6 0 .6-.4.8-1 .5-.5-.3-1 .1-1 .9 0 3.1-3.8 1.1-4.5-2.2-.2-1.4.1-2.2 1-2.2.8 0 1.9-.9 2.5-2 1-1.9 1.1-1.9 2.8-.2 1.7 1.6 1.7 1.7-.2 2.8zm7.9-1.7c.3.5.2 1.2-.3 1.5-.5.3-.9-.1-.9-.9 0-1.7.3-1.9 1.2-.6zm-4 2.1c-.3.5-1.2 1-1.8 1-.7 0-.6-.4.3-1 1.9-1.2 2.3-1.2 1.5 0zm212.3 4.1c-.3.8-.7.3-1.1-1-.4-1.7-.3-2.1.5-1.3.5.5.8 1.6.6 2.3zM47 91.5c0 .6-.7 1.2-1.5 1.2-.9 0-1.4-.9-1.3-2.3.2-1.7.5-2 1.5-1.2.7.6 1.3 1.6 1.3 2.3zm5.7-1.1c0 .8-.6 1.2-1.5.9-1.1-.5-1.1-.7 0-1.4.7-.5 1.3-.9 1.4-.9 0 0 .1.6.1 1.4zM267 90c0 .5-.5 1-1.1 1-.5 0-.7-.5-.4-1 .3-.6.8-1 1.1-1 .2 0 .4.4.4 1zM51.8 96.1c-.3.8-.7.3-1.1-1-.4-1.7-.3-2.1.5-1.3.5.5.8 1.6.6 2.3zm233.6 7c-.6 1.1-2.4.2-2.4-1.1 0-.5.7-.7 1.5-.4.8.4 1.2 1 .9 1.5zM51 106c0 .5-.2 1-.4 1-.3 0-.8-.5-1.1-1-.3-.6-.1-1 .4-1 .6 0 1.1.4 1.1 1zm227.5 2c.3.5.1 1-.4 1-.6 0-1.1-.5-1.1-1 0-.6.2-1 .4-1 .3 0 .8.4 1.1 1zm2.6 2.9c-.8.5-1 1.4-.6 2.2.6 1.1.5 1.1-.5.2-1.4-1.2-.6-3.3 1.3-3.3.8 0 .7.3-.2.9zm-3.1.5c0 .2-.8 1-1.7 1.7-1.6 1.3-1.7 1.2-.4-.4 1.3-1.6 2.1-2.1 2.1-1.3zm-240 3.9c0 .7-1 1.3-2.2 1.4-2.2.2-2.2.1-.4-1.3 2.4-1.7 2.6-1.7 2.6-.1zm4.2.9c-.4 1.6-.2 1.9.8 1.3.9-.5 1.1-.4.6.4-.4.6-1.2.9-1.7.6-1.2-.8-1.2-4.5 0-4.5.5 0 .7 1 .3 2.2zm4.3 1.8c.3.5.1 1-.4 1-.6 0-1.1-.5-1.1-1 0-.6.2-1 .4-1 .3 0 .8.4 1.1 1zm-1.9 5.6c.1.9 0 1.3-.4 1-.3-.4-.7-1.4-.8-2.2-.1-.9 0-1.3.4-1 .3.4.7 1.4.8 2.2zm240.4 1.9c0 .7-3 1.3-3.4.7-.3-.4.4-.9 1.5-.9 1-.1 1.9 0 1.9.2zm2.4 6c-.7 1.6-2.4 2.1-2.4.6 0-.8.7-1.3 2.7-2 .1-.1 0 .6-.3 1.4zm-247.1 2c-.3.9-.8 1.4-1 1.1-.3-.3-.2-.9.2-1.5.9-1.6 1.5-1.3.8.4zm-5.4 14.4c-.1 1.3-.2 1.3-.6-.1-.3-1.4-.9-1.6-2.3-.8-2.4 1.3-3.7-.5-1.9-2.6 1-1.3 1.4-1.2 3 .2 1.1 1 1.8 2.4 1.8 3.3zm258.5-1.9c-.6.6-1 .2-1.1-1.2-.2-1.6.1-1.8 1-.9.7.7.8 1.4.1 2.1zm-4.4-1c0 .5-.2 1-.4 1-.3 0-.8-.5-1.1-1-.3-.6-.1-1 .4-1 .6 0 1.1.4 1.1 1zm-252.5 5c-.3.5-1.2 1-1.8 1-.7 0-.6-.4.3-1 1.9-1.2 2.3-1.2 1.5 0zm-5.5 1.9c0 .8-1.9 3.7-2.1 3.1 0-.3-.2-1.2-.4-2.1-.1-.9.4-1.6 1.1-1.6.8 0 1.4.3 1.4.6zm254.4 3.9c.3.5-.1.9-.9.9s-1.2-.4-.9-.9c.3-.4.7-.8.9-.8.2 0 .6.4.9.8zm1.6 7.8c0 .8-1.9 1.3-2.4.6-.3-.5.1-.9.9-.9s1.5.2 1.5.3zm-250.3 7.7c0 .8-.6 1.4-1.4 1.4-1.7 0-1.7-1.4 0-2 .6-.3 1.2-.6 1.3-.6 0-.1.1.5.1 1.2zm-2.6 4c-.7.7-.5 1.4.7 2.4 1.3 1 1.3 1.2.2.8-1.1-.4-1.6.2-1.8 2.2-.1 2.1 0 2.4.8 1.3.5-.8 1-1 1-.4 0 1.2-2.9 4.1-3.1 3-.5-2.3-.4-3.2.3-4.2.5-.7.3-1.4-.7-1.7-.8-.4-1.2-1.3-.9-2.2.3-.8 1.1-1.2 1.7-.8.6.4.8 0 .4-1-.4-1.1-.2-1.4.9-1 1.1.4 1.2.9.5 1.6zm250.9.9c0 .4-.4.8-.9.8-.6 0-1.2-.4-1.5-.8-.3-.5.1-.9.9-.9s1.5.4 1.5.9zM39.8 196c-.7 1-1.4 1.7-1.7 1.5-.4-.4 1.8-3.5 2.5-3.5.2 0-.1.9-.8 2zm-3.8 2c-1.3.8-1.2 1 .4 1 1.4 0 1.6.3.7 1.3-.6.8-.7 1.8-.3 2.2.4.5.1.5-.6.1s-1-1.1-.7-1.6c.3-.5.1-1.1-.5-1.5-1.3-.8-.3-2.5 1.3-2.5.7 0 .6.4-.3 1zm251.5 3.9c.3.5.2 1.2-.3 1.5-.5.3-.9-.1-.9-.9 0-1.7.3-1.9 1.2-.6zm-245.6 6.4c1.3-.4 1.4-.3.1.5-.8.6-1.8.8-2.4.5-.5-.3-.6-.1-.2.5.3.6 1.5.9 2.6.7 1.9-.4 1.9-.3.3 2-2.2 2.8-3.8 1.7-3.9-2.6 0-1.8.3-2.6.9-2 .5.5 1.7.7 2.6.4zM277 214c0 .5-.2 1-.4 1-.3 0-.8-.5-1.1-1-.3-.6-.1-1 .4-1 .6 0 1.1.4 1.1 1zm-2.9 3.7c-1.2 2-1.4 1.4-.5-1.2.4-.9.9-1.4 1.1-1.1.3.2 0 1.3-.6 2.3zm-3.1 1.7c0 .2-.7.7-1.6 1-.8.3-1.2.2-.9-.4.6-1 2.5-1.4 2.5-.6zm-220.5 3.4c-.3.3-1.1 0-1.8-.7-.9-1-.8-1.1.6-.5 1 .3 1.5.9 1.2 1.2zm-4.9 4.8c.1.9 0 1.3-.3 1-.4-.3-1.2-.1-2 .5-.8.7-1.3.8-1.3.1 0-.5.7-1.3 1.6-1.6.9-.3 1.2-1.1.8-1.8-.4-.7-.3-.9.1-.5.5.4 1 1.5 1.1 2.3zM55 234c0 .5-.5 1-1.1 1-.5 0-.7-.5-.4-1 .3-.6.8-1 1.1-1 .2 0 .4.4.4 1zm-5 1.6c0 .8-1.9 1.3-2.4.6-.3-.5.1-.9.9-.9s1.5.2 1.5.3zm15 9.8c0 .3-.4.8-1 1.1-.5.3-1 .1-1-.4 0-.6.5-1.1 1-1.1.6 0 1 .2 1 .4zm-3 2.6c0 .5-.4 1-1 1-.5 0-1-.5-1-1 0-.6.5-1 1-1 .6 0 1 .4 1 1zm1.5 2c-.8 1.3 1.4 4.2 2.6 3.4.9-.5 1.3.9 1 3.3-.1.7.2 1.3.8 1.3.5 0 1.2-.6 1.4-1.3.4-.9.6-.9.6 0 .1.7-.8 1.7-1.8 2.3-1.6.8-2.2.7-2.9-.6-.5-.9-1.2-1.5-1.5-1.5-1.8.3-2.7 0-2.5-.7.5-1.3-2.8-5.2-3.7-4.4-.5.4-.5.1-.1-.6s1.2-1 1.7-.7c.5.4 1.7.1 2.6-.4 2.3-1.3 2.6-1.3 1.8-.1zm191 1.9c-.3.6-1.1 1.1-1.6 1.1s-.4-.6.3-1.4c1.4-1.6 2.4-1.3 1.3.3zm-1.2 4.7c-.7 1.9-1 1.8-1.6-.5-.3-1.3-.1-1.8.9-1.4.7.2 1 1.1.7 1.9zm-6.5 3.5c-.3.8-.7.3-1.1-1-.4-1.7-.3-2.1.5-1.3.5.5.8 1.6.6 2.3zM77 262c0 .5-.7.7-1.5.4-.8-.4-1.5-.8-1.5-1 0-.2.7-.4 1.5-.4s1.5.4 1.5 1zm166 0c0 .5-.5 1-1.1 1-.5 0-.7-.5-.4-1 .3-.6.8-1 1.1-1 .2 0 .4.4.4 1zm-6.4 6.5c.1 1.4-.2 2.5-.6 2.5-.6 0-.7-3.6-.1-4.8.4-.7.6.1.7 2.3zm-153-.3c.4.7.3.8-.4.4s-1.2-.2-1.2.5-.3 1-.6.6c-.6-.5.3-2.7 1.1-2.7.2 0 .7.5 1.1 1.2zm158.9-.2c.3.6-.1.7-.9.4-1.8-.7-2.1-1.4-.7-1.4.6 0 1.3.4 1.6 1zm-15 6c-.3.5-1.2 1-1.8 1-.7 0-.6-.4.3-1 1.9-1.2 2.3-1.2 1.5 0zm6 0c-.3.5-1.2 1-1.8 1-.7 0-.6-.4.3-1 1.9-1.2 2.3-1.2 1.5 0zm-146.7 3.7c-.8 1-.6 1.3.6 1.3.9 0 1.6.6 1.7 1.2 0 1 .2 1 .6 0 .8-2 2.2-1.4 1.6.8-.5 1.9-.7 1.9-2.3.5-.9-.8-1.9-1.3-2.2-1-.2.3-1-.6-1.6-1.9-.9-2.1-.9-2.4.4-1.9 1 .4 1.3 0 .8-1.3-.5-1.5-.4-1.6.4-.4.8 1 .8 1.8 0 2.7zm5.2-2.2c0 .1-.6.7-1.3 1.3-1 .8-1.3.6-1.3-.7 0-1.1.6-1.7 1.3-1.4.7.3 1.3.6 1.3.8zm7-.1c0 .3-.4.8-1 1.1-.5.3-1 .1-1-.4 0-.6.5-1.1 1-1.1.6 0 1 .2 1 .4zm129.8 1.6c-.7 1-1.4 1.7-1.7 1.5-.4-.4 1.8-3.5 2.5-3.5.2 0-.1.9-.8 2zm-132.4.9c.3.5-.2 1.5-1.2 2.2-1.5 1.2-1.6 1.2-.5-.2.7-.9 1-1.9.6-2.2-.3-.4-.4-.7 0-.7.3 0 .8.4 1.1.9zm139 2.3c-.3.5-1.2.4-2-.3-1.9-1.6-1.8-1.8.6-1.2 1.1.3 1.7.9 1.4 1.5zm-6 3.3c-.5 1.3-3.4 1.6-3.4.3 0-.4.7-.8 1.5-.8.9 0 1.2-.6.9-1.8-.5-1.3-.4-1.4.4-.3.6.8.8 1.9.6 2.6zM96.2 285c.6 0 .5-.7-.3-1.8-1.2-1.5-1.2-1.6.2-.5.9.7 2 .9 2.4.5.5-.4.5-.2.1.5-.3.6.3 1.8 1.5 2.6 1.4 1.1 1.7 1.6.7 1.9-2.1.7-8.7-4.3-8.8-6.7 0-.5.7.1 1.6 1.3.8 1.2 2 2.2 2.6 2.2zm11.8-3.4c0 .8-1.9 1.3-2.4.6-.3-.5.1-.9.9-.9s1.5.2 1.5.3zm116.1 1.8c.5-.3.9 0 .9.6 0 1.5-2.3.7-2.6-.8-.1-.7 0-.8.3-.2.2.5.9.8 1.4.4zm-109.6 2.5c-.9.8-3.6 1-3 .2.2-.4 1.1-.8 2-.8.8 0 1.3.3 1 .6zm80 1c.3.5.2 1.2-.3 1.5-.5.3-.9-.1-.9-.9 0-1.7.3-1.9 1.2-.6zm-84 1.9c-.3.3-1.1 0-1.8-.7-.9-1-.8-1.1.6-.5 1 .3 1.5.9 1.2 1.2zm10.5 1.7c0 .2-.9.3-1.9.2-1.1 0-1.8-.5-1.5-.9.4-.6 3.4 0 3.4.7zm4-.5c0 .5-.5 1-1.1 1-.5 0-.7-.5-.4-1 .3-.6.8-1 1.1-1 .2 0 .4.4.4 1zm65.6 1.6c.1.9 0 1.3-.4 1-.3-.4-.7-1.4-.8-2.2-.1-.9 0-1.3.4-1 .3.4.7 1.4.8 2.2zm9.9-1.7c-.9.8-3.6 1-3 .2.2-.4 1.1-.8 2-.8.8 0 1.3.3 1 .6zm12.5 2c0 1.3-2.9.8-3.4-.5-.3-.7.2-1 1.5-.7 1 .3 1.9.9 1.9 1.2zm-38-.5c0 .3-.4.8-1 1.1-.5.3-1 .1-1-.4 0-.6.5-1.1 1-1.1.6 0 1 .2 1 .4zm25.5 2.6c-.3.5-1.2 1-1.8 1-.7 0-.6-.4.3-1 1.9-1.2 2.3-1.2 1.5 0zm4.9.7c.3.8.2 1.2-.3.8-.5-.3-1.1 0-1.3.7-.3.7-.7.3-1-.8-.6-2.3 1.8-3 2.6-.7zm-76 1.1c.3.5-.1.9-.9.9s-1.2-.4-.9-.9c.3-.4.7-.8.9-.8.2 0 .6.4.9.8zm63.3-.1c-.4.3.1 1.2 1.1 1.9.9.7 1.5 1.5 1.2 1.7-.9.9-4.2-2.1-3.5-3.2.3-.6.9-1.1 1.2-1.1.4 0 .3.3 0 .7zm4.3.3c0 .5-.4 1-1 1-.5 0-1-.5-1-1 0-.6.5-1 1-1 .6 0 1 .4 1 1zm5-.5c0 .2-1 .9-2.2 1.5-2.2 1.1-2.2 1-.4-.4 2.1-1.7 2.6-1.9 2.6-1.1zm-27 1.9c0 .3-.4.8-1 1.1-.5.3-1 .1-1-.4 0-.6.5-1.1 1-1.1.6 0 1 .2 1 .4zm-34.2 2.4c1.5-1.2 1.6-1.1.3.4-1.4 1.9-3.2 1.5-3-.5 0-.8.2-.8.6.1.4 1 .8 1 2.1 0zm41.7.2c.3-.5 1.2-1 1.8-1 1.7.1-2.4 2.4-4.5 2.5-1 .1-1.4-.4-1.1-1.2.4-1 .9-1.1 1.8-.3s1.5.8 2 0z"/><path d="M58.4 67.8c.4.6-.2 1.7-1.4 2.4-2.3 1.5-2.7 3-.5 2.2 2.3-.9 3.8-4.1 2.3-5-.7-.4-.8-.3-.4.4zM267 76.1c.1 1.4 2.3 4.9 3.2 4.9 1.2 0 .3-3.2-1.4-4.7-1.4-1.3-1.8-1.3-1.8-.2zm-216.5 3c-.4.6-.4 1.3-.1 1.6.3.4.6.1.6-.6s.5-.9 1.2-.5.8.3.4-.4c-.9-1.5-1.3-1.5-2.1-.1zm-20 66c-.4.6-.4 1.3-.1 1.6.3.4.6.1.6-.6s.5-.9 1.2-.5.8.3.4-.4c-.9-1.5-1.3-1.5-2.1-.1zM40 212c-.9.6-1 1-.3 1 .6 0 1.5-.5 1.8-1 .8-1.2.4-1.2-1.5 0zm20.7 39.7c-.3.5.3 1.9 1.4 3.2 1.1 1.4 1.9 1.8 1.9 1 0-1.2.2-1.2.9 0 .5.7 1.1.9 1.3.5.7-1.1-4.9-5.7-5.5-4.7zm2.4 2c1.3 1.6 1.2 1.7-.3.4-1-.7-1.8-1.5-1.8-1.7 0-.8.8-.3 2.1 1.3zM97 285.4c0 .2.8 1 1.8 1.7 1.5 1.3 1.6 1.2.3-.4s-2.1-2.1-2.1-1.3zm28-269.5c0 .6.4 1.3 1 1.6.6.3.7-.1.4-.9-.7-1.8-1.4-2.1-1.4-.7zm10.5 1c-.3.5-.2 1.2.3 1.5.5.3.9-.1.9-.9 0-1.7-.3-1.9-1.2-.6zm-7 1.2c-.4.6-.5 1.2-.2 1.5.2.3.7-.2 1-1.1.7-1.7.1-2-.8-.4zm60.1.8c-.4.5-.2 1.2.3 1.5.5.4 1.2.2 1.5-.3.4-.5.2-1.2-.3-1.5-.5-.4-1.2-.2-1.5.3zM119 20.4c.7.7 1.3.7 2 0 .6-.6.3-1-1-1s-1.6.4-1 1zm88.3 2.1c0 .8.4 1.5.9 1.5.4 0 .8-.4.8-.9 0-.6-.4-1.2-.8-1.5-.5-.3-.9.1-.9.9zm12.3 1.3c-.3.5.1.9.9.9s1.2-.4.9-.9c-.3-.4-.7-.8-.9-.8-.2 0-.6.4-.9.8zM221 28c0 .5.5 1 1.1 1 .5 0 .7-.5.4-1-.3-.6-.8-1-1.1-1-.2 0-.4.4-.4 1zM93.9 29.2c-.7 2.3-.4 3.8.7 4.2 1.1.4 1.2.1.5-1.3-.6-1-.7-2.1-.4-2.5.3-.3.3-.6 0-.6-.4 0-.7.1-.8.2zm124.5 2c-.5.7-.3.8.5.3.7-.4 2.2.2 3.7 1.6 2 1.9 2.4 2 2.4.6 0-.9.5-1.7 1.1-1.7.5 0 .7.5.4 1-.8 1.2 1.4 4.2 2.5 3.5.4-.2 1.7.7 3 2 2.1 2.2 4.8 2.6 3.5.4-.4-.5.2-.9 1.2-1 1.1 0 1.3-.3.5-.6-.7-.3-2 .1-2.9.9-1.5 1.1-1.6 1.1-1-.4.3-1 .2-2-.4-2.3-.5-.4-.7-1.1-.4-1.6.4-.5.1-.9-.4-.9-1.4 0-1.4 1.3.1 2.8.8.8.8 1.2.1 1.2-1.6 0-3.4-2.5-2.5-3.6.4-.4-.1-.2-1.1.6-1.7 1.2-1.8 1.2-1.5-.6.2-1.1-.3-2-1.2-2-.8-.1-1.7-.3-2-.4-2.3-.8-5-.8-5.6.2zM66.7 46.1c.7.7 1.5 1 1.8.7.3-.3-.2-.9-1.2-1.2-1.4-.6-1.5-.5-.6.5zM243 48c0 .5.5 1 1.1 1 .5 0 .7.5.3 1.2-.4.7-.3.8.4.4.6-.4.9-1.3.5-2.1-.6-1.7-2.3-2-2.3-.5zm8.1.6c0 1.1.3 1.4.6.6.3-.7.2-1.6-.1-1.9-.3-.4-.6.2-.5 1.3zM67.6 49.7c-.6 1.4-.5 1.5.5.6.7-.7 1-1.5.7-1.8-.3-.3-.9.2-1.2 1.2zm185.8 1.1c-.9.5-.8 1 .1 1.9 1.1 1 1.3.9 1.2-.7-.1-1.1-.1-2-.2-2 0 0-.5.4-1.1.8zm3.5 5.5c-.8 3.3.4 4.3 2.2 2 .8-1 .9-1.4.2-1-.7.5-1.3-.1-1.5-1.5-.3-2.1-.4-2.1-.9.5zm4.6 1.7c.3.5.8 1 1.1 1 .2 0 .4-.5.4-1 0-.6-.5-1-1.1-1-.5 0-.7.4-.4 1zM56.6 60.2c.3.4.9.8 1.5.8.5 0 .9-.4.9-.8 0-.5-.7-.9-1.5-.9s-1.2.4-.9.9zm202 .7c-1.5 1.6-1.5 1.9-.1 3.1 1.1.9 1.5.9 1.5.1s.4-.8 1.4.1c.8.7 1.2 1.5 1 1.7-.2.2.1 1.2.6 2.1.7 1.3.5 2.1-.5 3-2.2 1.8-1.8 3.2.4 1.8 1.1-.7 1.7-1.6 1.5-2-.3-.5.2-1.1 1-1.4 2.2-.9 2-3.1-.3-3.9-1.3-.4-1.8-1.2-1.5-2.3.5-1.3.4-1.4-.4-.3-.7.9-1.2 1-1.6.2-.4-.6-1.2-.8-1.8-.5-.6.4-.9.1-.6-.7.3-.8 1.2-1.3 2.2-1.1 2 .4 2.1-.4.2-1.1-.8-.3-2.1.2-3 1.2zm6.9 6c.3.5 0 1.3-.6 1.7-.7.4-.9.3-.5-.4.3-.5 0-1.3-.6-1.5-.9-.4-1-.6-.1-.6.6-.1 1.4.3 1.8.8zm1-2.8c-.3.4.2.6 1 .5 2.1-.3 2.8-1.3 1-1.3-.9 0-1.8.4-2 .8zm6.5 10c0 .5.5.7 1 .4.6-.3 1-.8 1-1.1 0-.2-.4-.4-1-.4-.5 0-1 .5-1 1.1zm2 1.3c0 .2.7.7 1.6 1 .8.3 1.2.2.9-.4-.6-1-2.5-1.4-2.5-.6zm5 6.6c-.9.6-1 1-.3 1 .6 0 1.5-.5 1.8-1 .8-1.2.4-1.2-1.5 0zm-5.5.8c-1.5 1.1-1.7 3-.4 5.4 1.1 2 1.2 2.1 2.5.4 1.1-1.6 1.2-1.3 1 1.8-.2 2 .1 3.9.6 4.2.5.3.1 1.5-.9 2.7-1.6 1.8-1.6 2-.1 1.4.9-.3 2.2.1 2.9.9 1.1 1.4 1.3 1.4 2.1 0 .5-.8 1.6-1.3 2.6-1 1.5.5 1.5.4-.1-.6-.9-.6-1.5-1.5-1.2-2.1.4-.5.1-.9-.5-.9-.7 0-.9.7-.6 1.6.5 1.2.2 1.5-1 1-.8-.3-1.9-.6-2.2-.6-.4 0 0-.5.8-1 1.1-.7 1.1-1 .2-1-.7 0-1.1-.4-.7-1 .3-.5 1.3-.7 2.3-.4 1.4.5 1.4.4.2-.4-.8-.6-1.8-.8-2.2-.6-.4.3-.8.1-.8-.4 0-.6.7-1.2 1.5-1.6.8-.3 1.5-1.1 1.4-1.8 0-1-.2-1-.6-.1-.2.7-.9 1.3-1.5 1.3s-.8-.7-.4-1.5c.5-1.4-.4-1.9-3.1-1.6-1.7.2-2.3-1.3-1.1-2.9.8-1.2.9-1.2.4.3-.3 1.1-.2 1.6.4 1.2 1.2-.7 1.4-3.5.3-3.5-.5 0-1.2.4-1.8.8zM43.5 85c-.3.5-.1 1 .4 1 .6 0 1.1-.5 1.1-1 0-.6-.2-1-.4-1-.3 0-.8.4-1.1 1z"/><path d="M278.8 84.7c.7.3 1.6.2 1.9-.1.4-.3-.2-.6-1.3-.5-1.1 0-1.4.3-.6.6zm4.7 3.3c.3.5.8 1 1.1 1 .2 0 .4-.5.4-1 0-.6-.5-1-1.1-1-.5 0-.7.4-.4 1zM39.7 92.1c.7.7 1.5 1 1.8.7.3-.3-.2-.9-1.2-1.2-1.4-.6-1.5-.5-.6.5zm242.3-.7c0 .2.7.6 1.5 1 .8.3 1.5.1 1.5-.4 0-.6-.7-1-1.5-1s-1.5.2-1.5.4zM38.7 94c1 1.1.9 1.6-.5 2.7-1.2 1-.7.9 1.6-.2 1.7-.8 3.2-1.1 3.2-.6 0 .5-1 1.3-2.2 1.7l-2.3.7 2.3.8c1.3.5 2.1 1.2 1.8 1.7-.2.4.4.8 1.5.8 2.6 0 2.4-1.2-.3-1.9-1.8-.5-1.9-.8-.9-2.1.8-.9 1.8-1.3 2.5-1 .6.3.2-.1-.8-1-1-.8-2.3-1.3-2.8-1-.5.3-1.7 0-2.6-.7-1.4-1.1-1.5-1.1-.5.1zM33 98c0 .5.5 1 1.1 1 .5 0 .7-.5.4-1-.3-.6-.8-1-1.1-1-.2 0-.4.4-.4 1zm248 7.8c0 .5.9 1.7 2 2.7 1.1 1 1.7 2.2 1.4 2.7-.3.5-.1 1.5.6 2.3.8.9.8 1.5 0 2-.6.3-.8 1.1-.4 1.6.3.5.9.7 1.4.4.5-.3.7.8.5 2.5-.2 1.6.1 3.2.6 3.6.5.3.6 1 .3 1.6-.5.7-.2.8.6.3 1-.6 1.2-.4.7.8-.3.8.1 2.1.9 2.7.8.7 1.5 1 1.5.6.5-2.3.4-3.3-.2-4.6-.4-.9-.3-2.3.2-3.3.8-1.3.6-1.9-.5-2.3-.9-.3-1.3-1-1-1.5.3-.5.2-.9-.3-.8-2.3.4-2.5-.3-.5-1.7 2.2-1.5 2.1-3.9-.2-3.1-.7.3-1.8-.4-2.5-1.5-1-1.6-.9-1.9.6-1.6 1.1.2 1.8-.3 1.8-1.2 0-.9-.9-1.5-2.5-1.5-1.4 0-3.1-.4-3.7-.8-.7-.5-1.3-.4-1.3.1zm7.5 7.6c2.4-1 1.7.2-1.2 2.2-2.2 1.4-2.5 1.4-1.5.2.9-1.1 1-1.8.2-2.3-.5-.3-1-1.2-1-1.8 0-.7.5-.4 1.1.5.5 1 1.6 1.5 2.4 1.2zm.9 6.2c1.2.4 1.3 1.1.6 2.4-.5.9-.6 2.1-.2 2.6.4.5-.1.2-1.1-.5-1.2-1-1.4-1.7-.7-2.6.8-.9.7-1.5-.2-1.8-.7-.3-1-.6-.6-.6.3-.1 1.3.2 2.2.5zm1.3 7.9c0 .8-.4 1.2-.9.9-.5-.3-.6-1-.3-1.5.9-1.3 1.2-1.1 1.2.6zM31.5 106.9c-.3.5-.2 1.2.3 1.5.5.3.9-.1.9-.9 0-1.7-.3-1.9-1.2-.6z"/><path d="M289.5 110c-.3.5-.1 1 .4 1 .6 0 1.1-.5 1.1-1 0-.6-.2-1-.4-1-.3 0-.8.4-1.1 1zm-258.1 1.7c.3.4.1 1.2-.6 2-.8 1.1-.7 1.2.6.7.9-.3 1.6-1 1.6-1.6 0-.5.6-.6 1.3-.2.6.4.8.3.4-.1-.4-.5-1.5-1-2.3-1.1-.9-.1-1.3 0-1 .3zm259.6 4.7c0 .8.4 1.7.9 2 .5.4.7-.3.4-1.4-.6-2.3-1.3-2.6-1.3-.6zm-263.6 2c.1.8.5 1.8.8 2.2.4.3.5-.1.4-1-.1-.8-.5-1.8-.8-2.2-.4-.3-.5.1-.4 1zm8 .7c-.3.6 0 1.5.7 2 2.3 1.4 3 1 1.9-1.1-1.2-2.3-1.6-2.4-2.6-.9zm256.9 3.4c-.3.9-.3 1.8-.1 2.1.3.3.8-.4 1.1-1.6.6-2.3-.1-2.7-1-.5zm.7 5.4c0 1.1.4 2.2.9 2.5.4.3.6-.6.3-1.9-.5-3-1.2-3.3-1.2-.6zM31 128c0 .5.6 1 1.3 1 .8 0 .7.4-.3 1-2 1.3-3.3 1.2-2.4-.2.4-.7.3-.8-.5-.4-.6.4-.9 1.1-.6 1.6.3.4.2 1-.2 1.3-.5.2-.3.2.4.1.7-.2 1.5.1 1.8.6.4.6.1 1-.4 1-.6 0-1.1.5-1.1 1.1 0 .8.4.8 1.4 0 .9-.8 1.6-.8 2-.2.4.5-.3 1.2-1.4 1.6-1.1.3-2 1-2 1.5s-.7 1-1.5 1.2c-1 .2-.7.7 1 1.5 3.1 1.4 5.7-.6 5.1-3.9-.2-1.4.7-3 2.2-4.3 2.3-2 2.3-2.2.7-2.8-1.2-.5-1.6-.3-1.2.7.4 1 .1 1.3-.8 1-.8-.3-1.4-.9-1.3-1.2 0-.4 0-1.3-.1-2-.1-1.4-2.1-1.7-2.1-.2zm2.1 4.3c-.1 1.2-1.5.9-1.9-.4-.3-.6.1-1 .8-.8.6.3 1.1.8 1.1 1.2zM32 138c-.8.5-1.1 1-.7 1 .5 0 .5.5.2 1-.4.6-1.1.8-1.6.4-1.2-.7.8-3.4 2.5-3.4.6 0 .4.5-.4 1zm258.9-6.3c-.7 3.8-.3 6 .8 5.6.7-.3 1.1-.9.8-1.3-.3-.5-.2-1 .2-1.3.5-.2.2-.2-.5 0-.8.1-1.2-.3-.9-.9.2-.7 1.3-1.2 2.3-1 1.6.2 1.7.1.4-.7-1.8-1.3-3-1.4-3.1-.4z"/><path d="M25.3 136.5c0 .7.6 1.1 1.4.8.7-.3 1.3-.6 1.3-.8 0-.2-.6-.5-1.3-.8-.8-.3-1.4.1-1.4.8zm270.9 3.7c-.7.7-1.2 1.7-1.2 2.2 0 .6.5.3 1.1-.7.6-.9 1.5-1.4 2.1-1.1.7.4.8.2.4-.4-.9-1.5-.9-1.5-2.4 0zM21 142.1c0 .5.5.7 1 .4.6-.3 1-.8 1-1.1 0-.2-.4-.4-1-.4-.5 0-1 .5-1 1.1zm274 5.4c-.7.9-1 1.8-.6 2.2.3.3.6.1.6-.6s.4-1 .8-.7c.5.3.9-.1.9-.9 0-1.9-.2-1.9-1.7 0zM21.5 150c-.3.5-.1 1 .4 1 .6 0 1.1-.5 1.1-1 0-.6-.2-1-.4-1-.3 0-.8.4-1.1 1z"/><path d="M290.7 149.7c-.4.3 0 1.6.8 2.9 1.3 2 1.2 2.3-.3 2.9-1.6.6-1.5.8.2 2.1 1.1.8 1.4 1.4.7 1.4s-1 .4-.6.9c.3.5.1 1.2-.3 1.5-1 .6-.9 3.6.2 5.4.4.7-.1 2.3-1.3 3.8-1.5 2-1.8 3.1-1.1 4.4.7 1.3.7 2.1-.1 2.5-1.5 1 1.8 4.4 4.1 4.2 1-.1 1.6-.5 1.3-1.1-.4-.5.1-.7 1-.3 1 .3 1.7.2 1.7-.4 0-.6-.8-.9-1.7-.8-3.1.3-4.4-.1-3.8-1.1.3-.5 1.3-.7 2.3-.4 1.5.5 1.5.4-.1-.6-.9-.6-1.5-1.6-1.1-2.2.4-.6 1-.5 1.5.3s.9.9.9.3c0-.6-.7-1.7-1.5-2.4s-1.2-1.6-.9-2.1c.3-.5 1.4.1 2.5 1.3 1.1 1.3.7.2-1-2.4-3.1-4.6-3.1-4.7-.9-4.6 1.3.1 3 .6 3.8 1.2 1.3 1 1.3.9.1-.7-.8-1-2-1.6-2.8-1.3-.7.3-1.3-.1-1.3-1s.5-1.2 1.3-.8c.8.5.8.2-.2-.9-1.1-1.4-1.1-2 0-3.4 1-1.1 1-1.4.2-.9-.8.4-1.3.2-1.3-.7 0-1 .9-1.3 2.8-1.1 1.6.2 1.9.1.7-.2-2.6-.8-4.5-2.4-4.5-3.7 0-.7.4-.7 1.2.1 1.6 1.6 2.5 1.5 3.2-.4.5-1.4.4-1.5-.9-.4-1.2 1-1.6.9-2.1-.4-.7-1.7-1.6-2-2.7-.9zm1.4 20.7c-.9 1-.9 1.6-.1 2.1s.8 1.1-.1 2.1c-.6.8-.8 1.4-.4 1.4s.2.6-.4 1.4c-1 1.1-.8 1.7.6 2.5 1 .6 1.3 1.1.7 1.1-1.6 0-3.7-2.7-2.6-3.4.5-.3.8-1.8.7-3.3-.2-2.5 1-5.3 2.2-5.3.3 0 0 .6-.6 1.4zM25 155.4c0 .2.7.7 1.6 1 .8.3 1.2.2.9-.4-.6-1-2.5-1.4-2.5-.6zm5.6 2.4c-.3.5.1.9.9.9s1.5-.4 1.5-.9c0-.4-.4-.8-.9-.8-.6 0-1.2.4-1.5.8z"/><path d="M295 160.3c0 .4 1.2.5 2.6.3 3.8-.7 4-1.4.5-1.2-1.7 0-3.1.4-3.1.9zm2 2.1c0 .2.8 1 1.8 1.7 1.5 1.3 1.6 1.2.3-.4s-2.1-2.1-2.1-1.3zm-272.4 1.4c-.3.5.1.9.9.9s1.5-.4 1.5-.9c0-.4-.4-.8-.9-.8-.6 0-1.2.4-1.5.8zm2.5 3.9c-.1 1.2.4 2.5.9 2.8 1.2.7 1.2-.2 0-3-.8-1.9-.9-1.9-.9.2zm267.4.3c.3.5 1.1 1 1.6 1 .6 0 .7-.5.4-1-.3-.6-1.1-1-1.6-1-.6 0-.7.4-.4 1zm4.1 1.8c-.3.5.1.9.9.9s1.2-.4.9-.9c-.3-.4-.7-.8-.9-.8-.2 0-.6.4-.9.8zm-275 2.1c.9.9 3.4.9 3.4.1 0-.5-.9-.8-2-.7-1 .1-1.7.3-1.4.6zm3.6 4.1c0 1.4.2 1.9.5 1.2.2-.6.2-1.8 0-2.5-.3-.6-.5-.1-.5 1.3zm268.8-.6c0 .2.8 1 1.8 1.7 1.5 1.3 1.6 1.2.3-.4s-2.1-2.1-2.1-1.3zM21.5 180c-.3.5-.1 1 .4 1 .6 0 1.1-.5 1.1-1 0-.6-.2-1-.4-1-.3 0-.8.4-1.1 1zm271.5 4c0 .5.5 1 1 1 .6 0 1-.5 1-1 0-.6-.4-1-1-1-.5 0-1 .4-1 1zm4-.6c0 .2.7.7 1.6 1 .8.3 1.2.2.9-.4-.6-1-2.5-1.4-2.5-.6zm-267.4 3.4c1.5 1 1.1 4.7-.4 4.4-.8-.1-1.1.2-.7.8.5.8 1.1.7 2.1-.1.8-.6 1.8-.9 2.1-.5.4.4.1 1.1-.6 1.5-1.1.7-1.1 1 0 1.5.8.3.3.4-1.1.2-2.4-.5-2.4-.4-.6.9 1.7 1.3 2.1 1.2 3.8-1.1 1.9-2.4 1.9-2.6.3-4.4-.9-1-1.5-2.2-1.2-2.7.3-.4-.6-.9-2-1-1.5 0-2.2.2-1.7.5zm4.5 6.4c-1.1 1.1-1.3 1-.6 0 .4-.8-.1-2.3-1.1-3.5-1.8-2.2-1.8-2.2.6 0 2 1.9 2.2 2.5 1.1 3.5zm254.2-5.2c-3 1.8-4.5 4.9-2.5 5.1.4 0 1.7.2 2.9.5 1.5.2 2.6-.3 3.4-1.7.6-1.1.8-2.3.6-2.6-.3-.2-.8.5-1.2 1.6-.3 1.2-1.1 2.1-1.6 2.1-.6 0-.8-.4-.4-.9.3-.5 0-1.3-.6-1.7-.8-.5-.9-.3-.4.6.6.9.4 1.1-.5.5-.9-.6-1.1-.4-.5.5.6.9.4 1.1-.4.6-.9-.6-.8-1.3.5-2.7 1.8-2 2.9-2.5 1.9-.9-.3.5-.1 1 .4 1 .6 0 1.1-.7 1.1-1.6 0-.8.5-1.2 1-.9.6.3 1 .1 1-.4 0-1.6-1.1-1.4-4.7.9zm6.4-.6c-.4 1-.1 1.3.8.9.8-.3 1.2-.9.9-1.4-.7-1.2-1.1-1.1-1.7.5zm.3 3.6c-1.4 1-2.1 2.2-1.7 2.6.4.4.7.2.7-.5s.5-.9 1-.6c.6.4.7 1.1.4 1.7-.4.7-.2.8.5.4.6-.4.9-1.2.5-1.7-.3-.5 0-1.6.6-2.4 1.7-2 1-1.8-2 .5zm4.6-1.2c-.3.5.1.9.9.9s1.2-.4.9-.9c-.3-.4-.7-.8-.9-.8-.2 0-.6.4-.9.8zM289 199.9c0 .6.5 1.3 1.1 1.6.6.4.8 1.3.6 1.9-.3.7 0 1.3.7 1.3 1.7 0 1.6-2.5-.1-3.1-.8-.3-1.1-1-.8-1.6.3-.5.1-1-.4-1-.6 0-1.1.4-1.1.9zm3.6.3c.3.5 1 .6 1.5.3 1.3-.9 1.1-1.2-.6-1.2-.8 0-1.2.4-.9.9zM38 203.5c0 1 2.9 2.4 3.4 1.7.3-.6-.3-1.2-1.4-1.5-1.1-.3-2-.4-2-.2zm-10.1.7c-.5 1.9-.8 5-.4 4.6.7-.7 1.5-4.8.9-4.8-.2 0-.4.1-.5.2zm1.6 4.9c-.4.6-.5 1.2-.2 1.5.2.3.7-.2 1-1.1.7-1.7.1-2-.8-.4zm3.5 2.3c0 .2.7.7 1.6 1 .8.3 1.2.2.9-.4-.6-1-2.5-1.4-2.5-.6zm255.6.7c.4.8 3 .6 3.8-.2.3-.3-.5-.5-1.9-.5-1.3 0-2.2.3-1.9.7zm-1.2 1.6c.4.8.2 1.3-.6 1.3-.9 0-.9.3.2 1 1.4.9.7 1.4-1.3 1.1-.5-.1-.6.3-.2.9.5.8 1.1.8 2 0 1.4-1.2 1.4-3.5 0-4.7-.4-.4-.5-.2-.1.4zm-244.8 1.8c-.3.8-.1 1.7.3 2 .5.3 1.1-.2 1.5-1 .3-.8.1-1.7-.3-2-.5-.3-1.1.2-1.5 1zm-10.5.9c-.9 1-.8 1.5.3 1.9 1.1.4 1.3.1.9-1-.5-1.2-.3-1.4.7-.8.9.5 1.1.4.6-.3-.9-1.5-1.1-1.5-2.5.2zm259.2.1c0 .8.4 1.2.9.9.5-.3.6-1 .3-1.5-.9-1.3-1.2-1.1-1.2.6zm-253.3.4c0 .7-.5.9-1.2.5-.7-.5-.8-.3-.3.5.5.9 1 1 1.8.2.6-.6.8-1.4.4-1.8-.4-.3-.7-.1-.7.6zm-2.5 3.1c.3.6.1 1-.6 1s-1 .3-.6.6c.3.3 1.3.2 2.2-.4 1.6-.8 1.6-.9.1-1.5-1-.4-1.5-.3-1.1.3zm4.1 1.7c.7.4 1.4 1.7 1.7 2.8.5 1.6.5 1.5.4-.4-.1-1.4-.9-2.6-1.7-2.8-1-.3-1.1-.2-.4.4zm246.1.8c-.4.8-.3 1.6.1 1.9.4.3.9-.4.9-1.5.2-2.3-.3-2.5-1-.4zm-240.1.8c.3 1 .9 1.5 1.2 1.2.3-.3 0-1.1-.7-1.8-1-.9-1.1-.8-.5.6zm-10.3.3c.4.4.1 1.4-.6 2.3-1.1 1.4-1 1.5.8.1 1.1-.8 2.1-1.5 2.3-1.6.2-.1-.5-.5-1.5-.8-.9-.4-1.4-.4-1 0zm239.7.5c0 .5-.4.8-.8.5-1.3-.8-.8 4 .6 5.6 1 1.3.8 1.5-1.3 1.3-3.2-.4-3.1-.1.3 2 1.5 1 2.4 1.4 2 1-.4-.4 0-1.4 1-2.1.9-.8 1.2-1.4.5-1.4-.6 0-1-.9-.8-2 .4-2.1-.9-2.8-1.8-1-.3.6-.4.5-.3-.2.4-2.2 2.6-2 3.4.3l.9 2.3.5-2.6c.3-1.9.1-2.5-1.1-2.4-.9 0-1.5-.5-1.3-1.2.1-.6-.2-1.2-.8-1.2-.5 0-1 .5-1 1.1zm-235.7 7.4c0 .8.4 1.2.9.9.5-.3.6-1 .3-1.5-.9-1.3-1.2-1.1-1.2.6zm241.7-.6c0 .7-.5.9-1.2.5-.7-.5-.8-.3-.3.5.5.9 1 1 1.8.2.6-.6.8-1.4.4-1.8-.4-.3-.7-.1-.7.6zm-239.3 4.2c.4 1.3.8 1.8 1.1 1 .2-.7-.1-1.8-.6-2.3-.8-.8-.9-.4-.5 1.3zm235.2 0c-1.2 2.4.3 5 1.6 2.8.6-.8.4-1-.5-.4-1 .6-1.2.4-.7-.9.4-1 .7-2 .7-2.2 0-.3.5-.2 1.2.2s.8.3.4-.4c-1-1.6-1.4-1.5-2.7.9zm-5.6.1c-.4.7-.8 1.7-.9 2.3-.4 3.8-.6 4-1.3 2.1-.6-1.7-1-1.4-3.1 2-3.3 5.3-3.3 5.1-1.5 5.1.8 0 1.5-.4 1.5-.8 0-.5.7-.6 1.5-.3.8.4 1.5.1 1.5-.6 0-.6.5-.8 1-.5.6.4.7 1.1.4 1.7-.5.7-.2.8.5.4.9-.6.9-1.2-.3-2.5-.9-1-1.3-2-1-2.4.4-.3 1.5.4 2.6 1.6l2 2.2-1.6-2.7c-2.4-4.1-1.9-4.5 1.6-1.2 2.6 2.3 2.8 2.4 1.1.3-1.8-1.9-2-2.8-1.1-3.7.9-.9.9-1.2-.1-1.2-.7 0-1-.4-.6-.9.3-.5.1-1.2-.4-1.5-.5-.4-1.3-.1-1.8.6zm1.4 2c.2 1.7 0 1.9-.7.8-.5-.8-.6-1.8-.4-2.2.8-1.2 1-1 1.1 1.4zm-4.1 5.5c-.2.9-1 1.7-1.9 1.9-1.3.2-1.4-.1-.4-1.7 1.5-2.3 2.6-2.5 2.3-.2zm-224.8-4c.7.3 1.6.2 1.9-.1.4-.3-.2-.6-1.3-.5-1.1 0-1.4.3-.6.6zm10.9 0c-.4.3-.7 1.1-.7 1.7 0 .6.5.5 1.2-.2.6-.6.9-1.4.7-1.7-.3-.3-.9-.2-1.2.2zm-7.2 5.3c-.3.6.1.7.9.4 1.8-.7 2.1-1.4.7-1.4-.6 0-1.3.4-1.6 1zm7.5-.1c0 .5.7 1.2 1.6 1.5 1.4.5 1.5.4.4-.9-1.4-1.7-2-1.9-2-.6zm-6 4.2c0 .5.5.7 1 .4.6-.3 1-.8 1-1.1 0-.2-.4-.4-1-.4-.5 0-1 .5-1 1.1zm2.4 2.3c.1.8.5 1.8.8 2.2.4.3.5-.1.4-1-.1-.8-.5-1.8-.8-2.2-.4-.3-.5.1-.4 1zm210.1 1.6c-.3.5-1.2.7-1.9.4-2.3-.9-2.9 1.6-.9 3.8 1 1.2 1.2 1.8.6 1.4-.7-.4-2.1-.2-3 .4-1.6 1-1.6 1.1.2.6 2-.6 2-.6.1.9-2.6 2-3.2 5.5-.8 5.5.9 0 1.3-.4.7-.8-1.4-1-1.7-3.2-.5-3.2.6 0 1 .6 1 1.2 0 .9.3.8.9-.2.6-.8.7-1.8.5-2.2-.3-.4.2-.8 1.1-.8 1.1 0 1.5-.5 1.1-1.5-2-5.1-2-5.1-.4-3.8.8.7 1.8.9 2.3.5.4-.4.5.4.1 1.8-.3 1.4-.3 1.9 0 1.2.3-.6 1.1-.9 1.7-.5.7.3.9.3.5-.2-.4-.4-.3-1.4.3-2.1.8-.9.5-1.5-1-2.3-1.2-.7-2.2-.7-2.6-.1zm3.5 1.5c0 .2-.9.3-1.9.2-1.1 0-1.8-.5-1.5-.9.4-.6 3.4 0 3.4.7zm-209.5 2.4c-.3.5-.2 1.2.3 1.5.5.3.9-.1.9-.9 0-1.7-.3-1.9-1.2-.6zm2.9 3.8c.4.4 1.6.8 2.8 1 2.8.4 1.8-.6-1.2-1.2-1.2-.2-2-.1-1.6.2zm5.9 2.9c.9.3 1.5 1 1.2 1.5-.4.5-.1.9.5.9 1.9 0 .5-2.5-1.6-2.7-1.6-.2-1.6-.1-.1.3z"/><path d="M259.3 263.5c0 .8.4 1.2.9.9.5-.3.6-1 .3-1.5-.9-1.3-1.2-1.1-1.2.6zm-192 4c0 .8.4 1.5.9 1.5.4 0 .8-.7.8-1.5s-.4-1.5-.8-1.5c-.5 0-.9.7-.9 1.5zM85.5 284c-.4.6.1.7 1.1.3 1.3-.5 1.5-.3.9.7-.5.9-.4 1.1.4.6.6-.4.9-1.2.6-1.7-.8-1.2-2.2-1.2-3 .1zm134.6 3.3c-1 1.2-.6 1.5 2.3 1.4 1.9-.1 3.2-.5 3-.9-.3-.5-1-.5-1.6-.2-.6.4-1.4.1-1.8-.5-.5-.9-1-.8-1.9.2zm-117.5 2.4c-.3.3-.6 1.1-.6 1.7 0 .6.4.5.9-.2.6-1.1 1.3-.8 2.9 1.2 1.7 2.2 2.1 2.4 2.6 1 .7-1.9.4-2.5-1.6-2.8-.7-.1-1.8-.5-2.4-.9-.6-.3-1.4-.4-1.8 0z"/><path d="M103.5 294c.3.5.8 1 1.1 1 .2 0 .4-.5.4-1 0-.6-.5-1-1.1-1-.5 0-.7.4-.4 1zm13.7 2.3c1 .8 1.5 1.7 1.1 2.1-.4.4.1.4 1 0 2-.7 2-.7-1.3-2.3-2.2-1.1-2.3-1-.8.2zm-3.2 1.1c0 .2.7.7 1.6 1 .8.3 1.2.2.9-.4-.6-1-2.5-1.4-2.5-.6zm15.1 2.9c-.1 1.3.5 1.6 2.5 1.3 1.9-.4 2.7 0 3.4 1.7.8 2.1.9 2 .7-.5-.1-1.5-.4-2.5-.8-2.2-.4.2-1.1 0-1.4-.6-.5-.8-1.1-.8-2 0-1 .8-1.4.7-1.8-.2-.4-.8-.6-.6-.6.5zm59.9-.4c0 .9 3 2.4 3.6 1.8.2-.1-.6-.8-1.6-1.5-1.1-.7-2-.8-2-.3zm-2 2.1c0 .5.5 1 1.1 1 .5 0 .7-.5.4-1-.3-.6-.8-1-1.1-1-.2 0-.4.4-.4 1zm-2.9.9c-.8.5-.9 1.1-.3 1.5.5.3 1.2-.1 1.6-.9.6-1.7.6-1.8-1.3-.6zm-54.5 1.3c.3.5 1 .6 1.5.3 1.3-.9 1.1-1.2-.6-1.2-.8 0-1.2.4-.9.9zm17.4-.2c0 .5.5 1 1 1 .6 0 1-.5 1-1 0-.6-.4-1-1-1-.5 0-1 .4-1 1z"/></svg>