<?xml version="1.0" standalone="no"?>
<!DOCTYPE svg PUBLIC "-//W3C//DTD SVG 20010904//EN"
 "http://www.w3.org/TR/2001/REC-SVG-20010904/DTD/svg10.dtd">
<svg version="1.0" xmlns="http://www.w3.org/2000/svg"
 width="320.000000pt" height="320.000000pt" viewBox="0 0 320.000000 320.000000"
 preserveAspectRatio="xMidYMid meet">
<metadata>
Created by potrace 1.11, written by Peter Selinger 2001-2013
</metadata>
<g transform="translate(0.000000,320.000000) scale(0.100000,-0.100000)"
fill="#000000" stroke="none">
<path d="M1593 3075 c0 -8 4 -12 9 -9 5 3 6 10 3 15 -9 13 -12 11 -12 -6z"/>
<path d="M1375 3060 c3 -5 8 -10 11 -10 2 0 4 5 4 10 0 6 -5 10 -11 10 -5 0
-7 -4 -4 -10z"/>
<path d="M1475 3051 c3 -18 0 -20 -20 -17 -19 4 -23 1 -20 -14 2 -10 -4 -25
-13 -32 -15 -12 -16 -11 -3 5 15 20 2 23 -19 5 -8 -7 -6 -3 4 9 18 21 18 22
-2 20 -11 0 -19 -4 -16 -8 6 -10 -24 -19 -41 -13 -8 4 -12 10 -9 15 3 5 -2 6
-10 3 -8 -3 -17 -13 -20 -21 -5 -12 -3 -13 6 -5 9 7 17 6 25 -4 11 -11 7 -12
-24 -8 -20 2 -41 10 -45 17 -6 9 -8 9 -8 0 0 -7 -5 -13 -11 -13 -5 0 -7 6 -3
13 4 6 -4 2 -17 -9 -13 -12 -31 -22 -39 -22 -8 -1 -24 -3 -35 -5 -11 -2 -24 1
-28 7 -6 7 -7 5 -4 -6 4 -9 -1 -19 -10 -22 -11 -4 -14 -2 -9 9 13 34 -11 12
-27 -25 -9 -22 -22 -40 -28 -40 -5 0 -8 -4 -5 -8 2 -4 -4 -9 -15 -9 -21 -2
-26 12 -7 23 7 5 8 3 3 -7 -5 -8 1 -5 13 5 27 23 28 36 5 36 -14 0 -15 -2 -4
-9 8 -5 9 -11 3 -15 -6 -4 -16 2 -22 11 -11 17 -11 17 -6 1 5 -17 -4 -22 -40
-21 -6 0 -11 -6 -11 -13 0 -7 4 -11 9 -8 4 3 8 1 8 -4 0 -6 -7 -13 -16 -16 -9
-4 -12 -11 -7 -18 11 -19 12 -37 3 -43 -5 -3 -7 3 -5 15 2 11 -1 22 -6 25 -5
4 -6 12 -3 18 4 7 4 9 -1 5 -4 -4 -14 -3 -22 3 -10 9 -13 8 -13 0 0 -7 -5 -9
-10 -6 -6 4 -10 3 -9 -2 5 -27 -1 -35 -16 -23 -13 11 -14 10 -9 -5 6 -14 4
-16 -7 -9 -25 16 -37 13 -31 -8 4 -15 1 -19 -9 -16 -8 3 -13 11 -11 17 1 7 -2
10 -8 6 -6 -3 -8 -10 -5 -15 3 -4 2 -10 -2 -13 -5 -2 -2 -2 6 0 8 2 11 -2 8
-12 -4 -8 -2 -17 4 -20 5 -4 8 -1 7 7 -2 8 5 12 17 10 16 -2 17 -1 5 7 -12 8
-10 10 8 8 22 -1 32 -17 11 -17 -5 0 -7 -5 -3 -12 5 -7 3 -8 -6 -3 -8 5 -18 2
-25 -9 -13 -18 -60 -32 -50 -15 4 5 10 7 15 4 5 -3 11 -1 15 5 10 16 -17 12
-37 -7 -10 -9 -18 -11 -18 -5 0 6 5 14 10 17 12 8 13 35 1 35 -5 0 -8 -8 -7
-17 0 -10 -4 -18 -11 -18 -6 0 -15 -4 -20 -9 -5 -5 -3 -6 5 -2 23 13 12 -12
-15 -33 -14 -12 -23 -25 -19 -29 7 -7 11 -8 39 -11 9 -1 8 -4 -2 -10 -8 -5
-20 -7 -28 -4 -7 3 -13 -2 -13 -11 0 -9 -5 -16 -11 -16 -5 0 -8 -4 -4 -10 3
-5 13 -7 23 -4 14 5 14 4 2 -4 -25 -19 -42 5 -24 33 10 15 12 25 5 30 -6 3
-11 3 -11 -1 0 -4 -7 1 -16 12 -15 19 -15 19 -6 -1 10 -22 5 -48 -8 -40 -5 3
-12 0 -16 -6 -5 -8 -3 -9 5 -5 8 5 14 0 18 -13 3 -12 10 -21 17 -21 6 0 3 -5
-7 -11 -14 -8 -22 -8 -30 1 -9 8 -8 10 3 7 8 -2 12 -2 7 0 -4 3 -5 8 -3 12 3
4 -5 8 -17 8 -17 2 -18 0 -7 -7 12 -8 12 -10 -3 -16 -9 -3 -17 -12 -17 -19 0
-7 -8 -19 -17 -26 -15 -12 -16 -12 -9 6 6 16 5 18 -5 8 -10 -10 -10 -16 -1
-25 9 -9 7 -14 -6 -24 -25 -19 -37 -17 -21 4 13 16 13 16 -5 2 -11 -8 -21 -14
-23 -12 -3 2 -8 1 -11 -3 -4 -4 -2 -6 3 -5 22 5 27 -1 15 -15 -10 -12 -16 -13
-29 -3 -14 12 -14 11 -2 -5 9 -12 17 -14 26 -7 12 10 25 4 25 -12 0 -5 -4 -7
-9 -3 -5 3 -13 1 -16 -5 -5 -8 -12 -7 -23 2 -14 10 -15 10 -5 -2 18 -19 16
-27 -7 -33 -14 -4 -18 -11 -14 -28 3 -13 6 -31 8 -38 1 -8 9 -17 17 -19 11 -3
11 -1 -1 7 -9 7 -10 11 -3 11 6 0 15 -5 19 -12 5 -8 11 -6 19 6 11 15 13 15
19 1 3 -9 2 -13 -3 -10 -5 3 -12 1 -16 -5 -4 -6 -11 -8 -16 -5 -5 4 -9 1 -9
-5 0 -7 -7 -7 -23 2 -30 16 -57 20 -57 8 0 -6 6 -9 13 -7 7 1 11 -6 9 -19 -1
-12 5 -27 15 -35 14 -12 16 -12 8 0 -5 9 -4 12 3 7 6 -3 15 2 21 11 9 17 10
16 9 -2 0 -11 2 -29 6 -40 6 -16 4 -15 -6 3 -15 24 -31 20 -21 -6 5 -11 2 -14
-10 -9 -9 3 -19 2 -22 -3 -5 -9 16 -15 38 -11 11 2 -10 -36 -25 -45 -6 -4 -8
-3 -5 3 4 7 -7 10 -31 9 -20 0 -37 3 -37 9 0 5 4 9 8 7 5 -1 5 2 2 8 -5 8 -13
6 -26 -6 -20 -18 -26 -29 -10 -20 5 3 14 -1 20 -8 10 -12 8 -15 -11 -19 l-23
-4 23 -2 c12 0 25 6 28 14 4 8 10 15 16 15 5 0 6 -5 2 -12 -4 -7 -3 -8 4 -4 7
4 20 2 29 -4 16 -10 16 -10 -3 -5 -14 4 -21 1 -21 -10 0 -18 -1 -18 32 -5 17
7 24 7 20 0 -3 -6 -13 -10 -21 -10 -8 0 -12 -5 -9 -10 4 -6 11 -7 17 -4 7 5 8
2 3 -5 -5 -9 -10 -10 -18 -2 -23 23 -29 10 -6 -15 16 -17 18 -23 7 -19 -9 4
-19 13 -22 21 -3 8 -11 14 -17 14 -8 0 -8 -4 1 -15 9 -11 9 -15 1 -15 -7 0 -9
-5 -5 -12 4 -8 3 -10 -2 -5 -5 5 -9 12 -9 15 0 4 -4 13 -8 20 -5 7 -4 12 3 12
6 0 9 4 5 9 -3 6 3 15 12 21 17 11 17 11 0 6 -10 -3 -21 -6 -23 -6 -2 0 -4 -7
-4 -15 0 -8 -5 -15 -11 -15 -6 0 -8 7 -4 18 5 14 4 15 -7 4 -11 -11 -10 -15 2
-25 22 -18 22 -35 -1 -42 -14 -5 -18 -12 -13 -27 5 -17 3 -18 -15 -9 -17 10
-20 9 -15 -4 3 -8 10 -13 14 -10 4 3 7 -6 6 -20 0 -14 -4 -25 -8 -25 -5 0 -8
-5 -8 -11 0 -5 5 -7 10 -4 6 3 10 0 10 -7 0 -10 3 -9 9 2 6 8 7 18 4 24 -3 5
-1 6 5 2 6 -3 13 -2 17 3 3 6 -3 8 -15 6 -23 -5 -25 4 -6 30 18 25 55 28 48 3
-2 -10 1 -18 7 -18 6 0 11 -4 11 -10 0 -5 -3 -9 -7 -9 -21 3 -34 -2 -28 -11 4
-6 11 -7 17 -4 7 4 8 2 4 -5 -6 -9 -11 -9 -21 -1 -8 7 -15 7 -19 1 -6 -8 30
-27 45 -24 3 1 6 -4 6 -12 0 -12 -4 -11 -21 1 -25 17 -46 18 -46 2 0 -6 3 -8
6 -5 4 3 15 2 26 -4 14 -8 17 -14 9 -23 -6 -7 -7 -17 -3 -21 4 -5 2 -5 -5 -1
-17 10 -35 -28 -21 -42 9 -9 9 -12 -1 -12 -7 0 -9 -5 -6 -10 4 -6 10 -8 14 -6
4 3 8 -2 8 -10 0 -10 -4 -11 -11 -4 -23 23 -28 8 -5 -17 l24 -28 -27 24 c-14
12 -31 20 -37 17 -6 -4 -21 -2 -33 4 -21 10 -21 10 -5 -3 18 -15 24 -32 7 -22
-6 4 -5 -5 2 -20 8 -18 17 -24 29 -20 13 5 17 1 16 -14 0 -11 -5 -17 -9 -15
-5 3 -5 11 -1 17 4 7 1 7 -9 -1 -15 -12 -19 -9 -33 17 -8 17 -18 31 -21 31 -2
0 0 -9 6 -21 17 -31 20 -59 8 -59 -7 0 -3 -6 7 -14 12 -8 16 -19 12 -31 -5
-13 -11 -14 -20 -7 -9 8 -17 8 -27 0 -12 -8 -11 -9 3 -4 13 4 20 0 24 -14 3
-11 10 -20 15 -20 5 0 6 -5 2 -12 -4 -6 -3 -8 4 -5 5 4 9 18 7 32 -1 14 2 28
7 31 4 3 6 9 3 14 -3 4 2 13 11 20 12 11 17 11 27 0 10 -10 9 -12 -5 -7 -21 7
-34 -9 -14 -16 7 -3 14 -17 13 -31 0 -24 -1 -25 -13 -9 -12 17 -13 16 -11 -4
1 -13 5 -24 9 -24 4 -1 12 -2 17 -3 6 0 16 -8 23 -16 11 -12 11 -12 -2 -3 -13
10 -18 8 -28 -8 -7 -11 -17 -17 -22 -14 -6 4 -8 11 -4 16 3 5 10 7 15 4 5 -4
9 -2 9 3 0 17 -28 22 -34 6 -6 -17 5 -52 18 -54 5 -1 13 5 18 14 10 19 28 21
28 4 0 -6 -3 -9 -6 -5 -4 3 -15 -4 -26 -16 -11 -12 -16 -16 -12 -8 4 9 3 12
-4 8 -5 -4 -8 -17 -5 -30 5 -22 5 -22 -11 -2 -17 20 -17 20 -6 -3 6 -12 8 -27
4 -33 -4 -6 0 -15 7 -20 22 -13 3 -22 -23 -9 -20 10 -21 10 -6 -3 10 -8 15
-17 11 -21 -4 -4 1 -4 12 -1 16 6 15 3 -5 -15 -22 -19 -22 -20 -3 -11 15 8 24
8 28 0 5 -7 14 -5 29 5 19 12 23 12 23 1 0 -8 -5 -11 -10 -8 -5 3 -8 0 -5 -8
3 -8 10 -14 16 -14 5 0 13 -3 17 -7 9 -9 -16 -5 -33 5 -6 5 -12 4 -12 0 0 -12
37 -43 43 -36 3 3 4 -2 3 -11 -1 -9 -8 -22 -16 -29 -12 -10 -12 -9 -1 6 9 12
10 17 2 17 -6 0 -16 -11 -21 -25 -5 -14 -17 -28 -25 -31 -8 -4 -15 -11 -15
-16 0 -6 6 -6 14 1 10 8 16 9 21 1 3 -5 0 -10 -7 -10 -8 0 -7 -4 4 -11 10 -5
15 -16 12 -24 -7 -18 12 -20 22 -3 5 7 3 8 -7 3 -12 -8 -12 -6 0 8 7 9 10 17
7 17 -4 0 0 7 9 16 13 13 19 14 28 5 9 -10 9 -12 -2 -9 -7 2 -16 -3 -19 -11
-3 -10 1 -13 16 -9 16 5 20 2 17 -14 -6 -29 -12 -33 -30 -18 -14 12 -17 9 -14
-17 0 -5 -10 -11 -23 -15 -23 -6 -23 -6 -1 -7 16 -1 21 -6 16 -16 -3 -9 2 -22
13 -30 17 -12 22 -11 49 13 16 15 24 20 17 10 -9 -11 -10 -18 -2 -23 6 -4 7
-13 1 -23 -10 -21 -3 -44 11 -36 6 4 8 2 4 -4 -3 -6 -1 -14 5 -17 5 -4 8 -13
5 -20 -3 -8 0 -15 7 -18 6 -2 4 -6 -6 -10 -9 -3 -16 -3 -15 1 1 4 -3 17 -10
28 -6 12 -8 24 -5 28 3 3 1 6 -6 6 -7 0 -10 4 -6 9 3 6 -5 15 -17 22 l-22 12
18 -29 c11 -15 20 -38 22 -50 3 -28 -22 -39 -35 -16 -9 15 -10 14 -8 -5 0 -12
4 -20 8 -17 4 2 10 -3 13 -12 5 -13 9 -14 21 -4 16 14 21 0 5 -16 -6 -6 -6
-15 0 -24 7 -11 10 -11 10 -2 0 7 5 10 10 7 8 -5 7 -12 -2 -23 -7 -9 -8 -13
-3 -10 6 3 19 -4 30 -15 17 -17 17 -19 3 -14 -27 10 -21 -6 7 -20 14 -6 23 -7
19 -2 -3 5 0 9 5 9 6 0 11 5 11 11 0 5 -5 7 -12 3 -7 -5 -8 -3 -3 6 6 9 4 11
-5 5 -9 -6 -11 -4 -5 5 6 9 4 11 -6 5 -11 -7 -12 -6 -2 6 8 9 9 20 3 29 -8 12
-10 13 -10 1 0 -11 -5 -10 -20 4 -22 20 -19 35 3 17 10 -9 14 -8 14 3 0 8 -5
11 -10 8 -6 -4 -7 -1 -2 7 6 9 4 11 -6 5 -12 -7 -12 -6 0 6 10 11 15 11 18 1
3 -6 10 -9 16 -5 8 5 8 2 0 -9 -13 -15 -8 -28 9 -28 5 0 6 4 3 10 -3 5 -1 10
4 10 12 0 14 -13 4 -24 -13 -13 -12 -38 2 -32 10 3 12 0 8 -11 -5 -12 -3 -14
8 -7 30 18 41 14 25 -11 -9 -13 -12 -26 -7 -30 5 -3 11 -2 14 2 2 5 2 2 1 -5
-2 -7 6 -17 19 -22 17 -7 18 -9 4 -9 -14 -1 -16 -5 -7 -21 9 -16 8 -18 -5 -14
-8 3 -13 10 -10 15 3 4 -4 13 -15 19 -12 7 -19 18 -16 25 3 8 1 17 -4 20 -6 4
-10 -3 -10 -15 0 -12 -4 -18 -10 -15 -5 3 -10 1 -10 -5 0 -7 7 -9 16 -6 12 4
14 1 9 -14 -4 -12 -2 -20 5 -20 6 0 8 5 5 10 -3 6 0 10 7 10 8 0 14 -9 15 -20
1 -11 -2 -18 -7 -15 -5 3 -12 1 -15 -5 -4 -6 -3 -10 2 -9 20 3 27 -2 13 -12
-12 -8 -11 -9 6 -4 21 5 43 -10 42 -30 0 -5 8 -14 18 -20 11 -5 22 -14 25 -19
4 -5 12 -5 18 -2 6 4 10 4 9 -1 -2 -5 12 -32 30 -60 19 -29 31 -57 28 -62 -4
-5 -1 -13 5 -17 8 -4 9 -3 5 4 -4 7 -2 12 4 12 6 0 9 4 6 9 -4 5 -3 11 1 14 5
2 2 2 -4 1 -7 -2 -14 1 -14 6 -1 6 -2 15 -3 20 0 6 -8 15 -16 20 -11 7 -11 10
-2 10 10 0 10 5 1 21 -8 16 -13 18 -19 9 -5 -9 -9 -9 -14 -1 -4 6 -3 11 3 11
5 0 13 9 16 20 3 11 11 20 18 20 8 0 8 -3 -1 -12 -19 -19 -14 -32 6 -17 14 11
15 11 5 0 -13 -15 -6 -44 8 -35 5 3 9 0 9 -5 0 -6 -5 -11 -11 -11 -5 0 -7 -5
-4 -10 5 -8 11 -8 19 -1 7 6 16 8 19 4 4 -3 7 2 8 13 0 11 3 14 6 6 6 -15 -16
-44 -28 -36 -5 3 -9 1 -9 -3 0 -5 10 -14 21 -22 19 -11 21 -11 16 2 -3 9 2 21
11 28 14 11 15 11 5 -1 -17 -18 2 -51 24 -43 11 4 14 3 9 -5 -4 -7 -2 -12 3
-12 6 0 11 -5 11 -11 0 -8 -4 -8 -15 1 -8 6 -20 8 -26 4 -8 -5 -9 -3 -4 6 6 9
4 11 -5 5 -8 -5 -11 -4 -7 2 3 5 0 10 -8 10 -20 0 -19 -13 1 -21 14 -5 14 -9
3 -24 -7 -9 -9 -14 -5 -10 5 4 15 3 22 -3 10 -8 12 -6 9 13 -4 22 -4 23 11 3
13 -18 13 -21 -3 -32 -14 -11 -14 -15 -4 -26 10 -10 12 -9 9 2 -2 7 3 16 10
18 6 3 12 -3 12 -12 0 -11 5 -15 14 -12 8 3 20 -1 27 -9 6 -8 14 -12 17 -9 3
3 11 -4 19 -15 8 -11 21 -20 29 -20 8 0 14 -3 14 -8 0 -4 9 -13 21 -20 12 -8
18 -9 14 -3 -3 6 1 11 9 11 9 0 16 6 16 13 0 8 3 8 9 -2 5 -8 18 -16 27 -17
10 -2 23 -10 29 -18 10 -13 13 -12 23 2 10 15 11 15 5 -2 -4 -13 -3 -17 5 -12
6 3 13 2 16 -3 3 -5 -8 -7 -24 -6 -17 1 -30 -1 -30 -6 0 -5 5 -9 11 -9 5 0 8
-4 5 -8 -3 -5 1 -9 9 -9 8 0 12 4 9 9 -5 8 30 13 51 8 6 -2 17 -3 26 -4 20 0
19 -33 -1 -46 -8 -5 -12 -10 -7 -10 4 0 16 6 28 13 17 10 22 9 35 -7 8 -11 14
-15 14 -8 0 7 -9 17 -20 24 -11 7 -20 18 -20 25 0 8 8 5 20 -7 13 -13 30 -18
50 -16 17 2 33 -1 36 -6 3 -5 12 -4 20 3 9 7 14 8 13 3 -8 -44 21 -54 60 -20
l24 21 -19 -30 -18 -30 28 25 c27 23 28 24 17 3 -16 -32 -14 -36 9 -13 22 22
40 26 40 9 0 -5 -5 -7 -12 -3 -7 4 -8 3 -4 -4 10 -17 36 -3 29 16 -7 18 -5 17
17 -12 10 -13 10 -17 3 -12 -7 4 -13 3 -13 -2 0 -6 6 -12 14 -15 10 -4 13 1
11 19 -1 13 2 27 7 30 4 3 8 2 7 -3 -4 -25 4 -41 25 -51 13 -6 27 -8 30 -5 10
10 7 45 -4 38 -5 -3 -7 -12 -3 -20 3 -8 3 -15 0 -15 -10 0 -37 31 -37 43 0 7
4 6 10 -3 7 -11 12 -12 21 -3 13 13 49 -3 45 -21 -2 -6 -1 -8 1 -3 3 4 10 4
16 0 7 -3 3 4 -8 18 -11 13 -16 21 -11 17 5 -4 16 -2 25 5 14 11 14 10 2 -5
-15 -20 -2 -25 17 -6 7 7 12 9 12 5 0 -4 9 -3 20 3 16 8 18 8 14 -4 -3 -8 -14
-13 -24 -11 -14 3 -16 -1 -12 -18 5 -19 7 -20 10 -4 4 18 4 18 18 0 13 -17 14
-17 7 1 -5 14 -3 17 7 11 9 -6 11 -4 5 5 -6 10 -4 12 9 7 10 -4 20 -7 23 -7 3
0 -1 -8 -8 -17 -13 -16 -12 -17 3 -4 10 7 15 18 12 23 -3 5 0 8 7 7 21 -4 89
28 89 42 0 7 7 4 15 -7 8 -10 15 -15 15 -10 0 5 7 3 15 -4 12 -10 16 -9 21 4
3 9 10 16 16 16 5 0 6 -6 2 -12 -6 -9 -3 -9 9 0 9 8 22 10 28 6 8 -4 9 -3 5 4
-10 16 7 15 23 -1 11 -10 12 -9 6 2 -6 11 -4 13 8 8 12 -5 15 0 12 26 -2 18
-1 26 2 20 2 -7 10 -13 16 -13 6 0 20 -8 31 -17 12 -10 15 -11 9 -3 -7 8 -13
17 -13 20 0 10 33 9 46 -1 7 -5 11 -3 11 6 0 8 -4 12 -9 9 -4 -3 -8 -2 -9 3 0
4 -2 18 -3 30 -2 13 0 21 2 18 3 -3 11 3 19 13 13 15 13 15 4 -4 -8 -16 -6
-26 5 -40 14 -18 15 -18 9 2 -7 28 21 60 39 44 7 -5 16 -7 19 -3 4 3 13 0 22
-7 13 -11 14 -10 9 4 -4 9 -3 16 2 15 21 -4 35 2 29 11 -9 14 8 13 23 -2 7 -7
12 -9 12 -6 0 4 -7 14 -16 23 -9 9 -13 19 -9 23 3 4 12 0 18 -9 23 -31 45 15
24 49 -5 6 -4 12 2 12 5 0 13 -9 16 -20 3 -11 11 -20 16 -20 6 0 7 5 3 12 -5
7 0 9 14 6 16 -4 19 -2 15 10 -4 10 -2 13 5 8 8 -5 10 -2 6 8 -3 9 -1 16 5 16
6 0 11 -4 11 -10 0 -5 5 -10 11 -10 8 0 8 5 -1 15 -10 12 -10 16 1 19 43 14
44 14 27 15 -10 1 -18 6 -18 12 0 6 9 8 20 4 12 -4 20 -2 20 6 0 8 4 8 15 -1
9 -7 18 -10 22 -6 3 3 0 6 -8 6 -12 0 -11 2 1 11 13 9 13 10 -1 6 -9 -3 -22 0
-29 6 -10 9 -11 9 -5 -2 6 -10 4 -12 -5 -6 -9 6 -11 4 -5 -4 6 -10 3 -11 -14
-2 -17 10 -21 9 -22 -4 -3 -31 -4 -35 -12 -35 -12 1 -35 -24 -31 -32 3 -4 -5
-12 -16 -18 -13 -7 -20 -7 -20 0 0 5 8 10 18 10 14 0 15 2 2 9 -8 6 -18 7 -24
4 -5 -3 -6 -1 -2 6 4 6 11 9 16 6 12 -8 50 25 61 52 6 16 13 21 25 16 13 -5
15 -3 9 8 -4 8 -5 11 0 7 4 -4 14 0 22 10 12 16 13 16 7 0 -3 -10 -1 -18 5
-18 6 0 11 9 11 20 0 12 -7 20 -17 20 -15 0 -16 2 -3 10 9 6 17 5 22 -3 4 -7
8 -9 9 -4 1 4 3 12 4 17 1 6 3 15 4 21 0 5 6 7 11 4 6 -3 10 -2 10 4 0 5 -6
11 -12 14 -17 6 22 38 39 32 7 -2 15 0 18 5 3 5 15 7 26 5 11 -2 30 0 42 5 21
8 21 9 2 9 -12 1 -27 7 -34 14 -11 10 -12 9 -6 -2 6 -10 4 -12 -5 -6 -8 5 -11
4 -7 -2 5 -8 -4 -9 -44 -4 -7 1 -21 31 -14 31 2 0 10 -6 18 -14 9 -9 19 -11
28 -5 12 7 12 9 0 9 -11 0 -11 3 -1 15 12 14 10 15 -15 11 -15 -3 -24 -2 -20
2 3 4 18 7 33 7 14 1 28 7 30 14 3 9 0 11 -8 6 -9 -5 -11 -4 -6 4 4 6 11 9 16
6 5 -3 12 4 15 16 4 11 13 18 20 15 8 -3 12 2 10 12 -2 9 -4 19 -4 22 -1 3 -5
-1 -10 -8 -7 -11 -9 -11 -14 0 -3 9 2 14 14 15 10 1 19 -3 19 -8 0 -6 5 -7 12
-3 7 5 5 11 -7 21 -18 12 -10 19 18 14 10 -1 9 7 -4 31 -9 16 -8 19 2 13 9 -6
11 -3 6 8 -4 10 3 21 19 31 13 9 24 21 24 27 0 7 -6 6 -17 -2 -15 -13 -15 -12
-2 8 9 16 16 19 21 10 7 -12 12 -2 9 17 -1 5 4 13 11 17 10 6 9 11 -6 22 -15
11 -16 16 -6 22 9 5 11 4 6 -3 -4 -7 -3 -12 3 -12 5 0 12 6 14 13 4 9 6 9 6
-1 1 -8 6 -10 14 -6 10 6 10 4 0 -7 -15 -16 -17 -33 -3 -24 6 3 7 -1 3 -10 -4
-12 -8 -13 -13 -5 -5 9 -9 9 -14 1 -4 -6 -2 -11 5 -11 7 0 5 -6 -6 -13 -11 -9
-15 -19 -10 -27 5 -8 4 -11 -3 -6 -7 4 -10 -2 -9 -14 1 -19 3 -19 13 -6 15 22
22 20 26 -6 2 -14 11 -22 25 -23 12 -1 20 2 17 7 -4 5 -13 7 -21 4 -11 -5 -14
-1 -10 14 3 13 -1 21 -14 25 -10 4 -19 11 -19 16 0 12 6 11 30 -3 23 -15 39
-3 20 15 -10 9 -11 9 -6 0 8 -15 -10 -18 -19 -4 -3 6 3 14 12 20 10 6 15 11
11 11 -5 0 1 9 13 21 17 17 18 23 7 37 -11 14 -11 15 6 9 17 -7 17 -6 5 9 -12
15 -12 16 8 10 12 -4 24 -2 28 3 4 7 -1 8 -11 4 -12 -4 -15 -3 -10 5 5 8 1 10
-11 6 -16 -5 -16 -4 1 10 16 13 17 18 6 31 -10 12 -10 18 0 30 7 9 19 14 27
11 8 -3 12 -2 8 3 -3 5 0 12 5 14 6 3 5 4 -2 3 -7 -2 -22 0 -34 5 -18 6 -21 4
-18 -17 1 -13 -1 -24 -6 -24 -4 0 -6 -13 -5 -30 1 -16 -1 -27 -6 -25 -4 3 -6
-6 -3 -20 3 -16 0 -25 -8 -25 -8 0 -6 -5 4 -11 17 -10 14 -39 -4 -39 -6 0 -8
7 -5 15 4 8 2 17 -4 20 -5 4 -6 11 -3 17 4 6 -2 8 -17 3 -19 -5 -21 -4 -9 4
14 10 7 15 -13 12 -5 -1 -5 4 -2 10 5 8 10 8 18 0 18 -18 31 -13 16 6 -10 11
-10 14 -1 9 6 -4 12 -3 12 3 0 5 -6 12 -12 15 -7 3 -2 3 12 -1 21 -5 23 -4 13
9 -10 11 -10 17 0 27 10 11 7 12 -13 8 -23 -6 -23 -5 3 5 15 7 27 16 27 21 0
4 -4 6 -9 2 -5 -3 -13 0 -17 6 -5 8 -3 9 6 4 9 -5 10 -2 5 14 -4 14 -1 28 8
39 15 17 17 21 17 43 0 5 5 7 11 3 8 -4 7 -9 -2 -15 -8 -5 -9 -9 -3 -9 6 0 19
10 30 22 18 22 18 22 0 8 -18 -14 -18 -13 -11 9 5 18 4 22 -5 16 -8 -5 -11 -4
-6 3 3 5 0 12 -6 15 -10 3 -10 7 -1 17 9 10 9 19 -3 43 -9 16 -11 26 -6 23 17
-10 25 14 10 32 -12 15 -11 16 5 3 9 -8 21 -11 24 -7 4 4 2 11 -5 15 -8 4 -10
15 -6 26 6 14 4 16 -7 10 -8 -5 -5 2 6 15 17 20 17 22 3 17 -10 -3 -20 -2 -23
4 -4 5 -3 9 2 8 20 -3 34 2 28 11 -3 5 -13 7 -23 3 -11 -3 -9 0 6 11 12 10 22
22 22 28 0 6 -10 3 -22 -8 -13 -11 -18 -13 -11 -3 10 12 10 18 0 29 -9 11 -7
10 7 0 18 -14 19 -13 13 2 -3 10 -2 20 3 23 6 4 10 11 10 18 0 8 -3 8 -12 -1
-7 -7 -17 -12 -22 -12 -6 0 0 7 12 16 18 13 20 19 11 36 -8 15 -8 19 0 14 7
-5 11 2 11 16 0 18 2 20 10 8 5 -8 5 -19 0 -25 -9 -11 -8 -40 2 -50 11 -11 31
25 20 38 -11 12 -12 17 -12 42 0 10 -9 13 -30 10 -16 -2 -32 1 -36 6 -3 5 -2
9 3 8 18 -3 33 2 33 11 0 5 -7 7 -15 4 -8 -4 -15 -1 -15 6 0 6 5 8 12 4 8 -5
9 -2 5 10 -4 10 -3 15 3 11 13 -8 13 1 -1 26 -8 15 -14 17 -23 10 -9 -8 -13
-7 -13 4 0 8 4 12 8 9 4 -2 7 5 6 17 -1 12 -9 24 -19 27 -10 2 -18 8 -18 13 0
5 6 6 14 3 11 -4 13 0 9 15 -3 11 -9 19 -13 16 -10 -6 -8 15 3 31 11 19 -5 25
-20 6 -11 -13 -10 -9 1 14 15 30 14 32 -9 50 -30 23 -31 26 -4 42 15 10 19 10
14 1 -6 -8 -4 -10 5 -4 9 6 11 4 5 -6 -6 -11 -5 -11 5 -2 7 6 20 9 29 6 10 -3
12 -2 5 4 -6 4 -10 15 -9 24 4 21 -28 18 -57 -7 -18 -15 -20 -15 -9 -1 15 19
2 24 -17 5 -9 -9 -12 -9 -12 0 0 7 5 12 10 12 6 0 10 5 10 11 0 5 -4 8 -9 5
-5 -4 -17 -3 -26 0 -14 6 -13 8 5 21 11 8 17 19 14 25 -4 7 -9 6 -14 -3 -5 -7
-16 -14 -24 -15 -9 -1 -14 2 -10 7 3 5 10 7 15 4 8 -6 13 9 10 28 -1 5 3 6 9
2 5 -3 10 -1 10 6 0 6 -8 9 -19 6 -15 -3 -18 -1 -14 12 3 9 -4 5 -15 -9 -11
-13 -18 -29 -15 -34 3 -5 1 -6 -6 -2 -8 5 -5 16 10 37 12 17 18 33 15 37 -4 3
-11 0 -16 -8 -5 -8 -12 -11 -16 -7 -4 3 4 16 17 28 17 15 19 19 7 15 -10 -3
-18 -1 -18 4 0 6 6 10 14 10 7 0 19 7 26 15 7 8 16 12 21 9 5 -3 9 0 9 5 0 14
-13 14 -28 -1 -15 -15 -16 3 -2 20 6 6 7 9 3 7 -4 -3 -13 5 -20 17 -7 13 -12
17 -13 10 0 -7 -5 -10 -10 -7 -8 5 -7 11 1 21 6 8 9 17 6 21 -10 9 -58 12 -52
3 3 -4 -6 -15 -20 -24 -14 -9 -26 -15 -26 -14 -6 13 -5 46 2 43 4 -3 10 -1 13
4 4 5 -6 14 -21 20 -19 8 -21 10 -6 7 15 -3 20 0 16 10 -3 8 -9 12 -13 9 -4
-3 -14 2 -21 11 -12 14 -14 14 -26 -2 -7 -10 -13 -14 -13 -9 0 5 7 17 17 27
15 17 15 19 -3 40 -10 12 -14 19 -8 15 6 -3 11 0 11 8 0 8 -4 12 -9 9 -4 -3
-11 2 -14 11 -5 13 -9 13 -22 3 -13 -11 -15 -10 -9 6 4 10 2 25 -4 32 -6 7 -8
18 -4 24 4 6 3 10 -2 9 -21 -4 -34 2 -27 13 4 7 3 8 -4 4 -8 -5 -8 -13 0 -31
6 -13 14 -22 19 -20 4 3 10 1 13 -4 4 -5 2 -12 -3 -15 -5 -4 -12 -2 -16 4 -9
15 -25 12 -25 -5 0 -8 3 -14 8 -14 19 3 32 -2 32 -12 0 -8 -4 -8 -12 -2 -7 6
-23 9 -36 8 -13 -1 -25 2 -28 7 -3 5 0 7 8 6 13 -3 13 1 3 59 -2 13 2 21 8 20
6 -1 12 7 13 18 2 15 2 16 -2 2 -3 -9 -10 -15 -15 -11 -5 3 -6 11 -3 17 5 8 3
8 -7 0 -7 -7 -18 -13 -24 -13 -5 1 0 9 13 20 12 10 18 21 13 24 -5 3 -12 -2
-16 -12 -6 -16 -7 -16 -21 2 -8 11 -14 16 -14 10 0 -5 -9 -15 -21 -22 -12 -8
-18 -9 -14 -3 3 6 2 11 -4 11 -5 0 -13 -4 -16 -10 -3 -5 -11 -10 -18 -10 -6 0
-2 6 9 14 15 12 16 17 7 27 -26 26 -50 18 -44 -14 1 -5 -3 -6 -9 -2 -7 4 -7
12 0 24 13 25 0 35 -17 13 -12 -16 -13 -16 -6 2 5 14 3 17 -7 11 -8 -5 -11 -4
-7 2 10 16 -18 34 -38 26 -15 -5 -17 -3 -11 13 12 32 12 39 -4 40 -8 1 -18 3
-22 4 -5 1 -13 3 -18 4 -6 0 -15 8 -20 16 -6 9 -10 10 -10 3 0 -7 -7 -10 -15
-7 -8 4 -15 1 -15 -4 0 -6 9 -9 19 -7 15 3 18 0 14 -13 -5 -11 -8 -12 -11 -4
-3 10 -7 10 -19 1 -11 -10 -14 -10 -11 2 2 9 -4 13 -14 11 -10 -2 -18 2 -18 8
0 5 5 9 11 8 6 -2 13 6 15 17 2 16 -2 15 -24 -10 -14 -16 -23 -22 -19 -12 9
22 15 44 9 34 -2 -4 -11 0 -19 10 -13 17 -13 16 -3 -4 6 -13 9 -24 8 -24 -2
-1 -15 -3 -30 -4 -26 -4 -57 19 -44 32 3 3 6 1 6 -7 0 -9 3 -10 14 -1 10 9 15
8 20 -4 3 -8 11 -15 17 -15 8 0 6 7 -4 18 -13 15 -14 21 -4 32 6 8 3 7 -9 -3
-22 -18 -39 -23 -30 -9 3 5 -1 9 -9 9 -8 0 -12 -4 -9 -9 3 -4 -1 -8 -8 -9 -7
0 -21 -2 -30 -4 -10 -2 -17 0 -16 3 3 19 -17 42 -36 41 -21 0 -21 -1 -1 -10
16 -7 13 -8 -13 -4 -19 3 -31 1 -27 -4 3 -5 0 -13 -6 -17 -8 -4 -9 -3 -5 4 4
7 2 12 -5 12 -9 0 -9 3 0 14 9 11 9 16 0 22 -8 4 -9 3 -5 -4 4 -7 3 -12 -3
-12 -5 0 -13 -9 -16 -20 -3 -11 -11 -20 -17 -20 -6 0 -5 6 2 16 11 12 10 18
-4 32 -11 12 -19 13 -24 6 -8 -12 -42 -15 -42 -3 0 9 -26 6 -36 -4 -4 -4 -13
-2 -21 4 -9 8 -17 8 -26 0 -8 -6 -17 -8 -21 -4 -4 4 -4 0 -1 -9 5 -12 2 -16
-12 -13 -10 2 -20 4 -23 4 -3 1 2 5 10 11 8 5 11 13 6 17 -5 4 -11 2 -13 -4
-3 -7 -13 -13 -24 -13 -19 0 -22 -19 -4 -33 6 -5 4 -7 -5 -4 -9 2 -15 16 -15
35 0 16 -3 34 -7 38 -4 3 -6 -3 -3 -15z m140 -21 c5 -7 11 -8 19 -1 7 6 17 6
26 1 8 -5 17 -7 21 -4 4 2 10 1 13 -4 3 -4 -17 -8 -44 -8 -28 0 -46 5 -43 10
4 5 -1 7 -11 3 -10 -4 -15 -3 -11 3 8 13 22 13 30 0z m116 -13 c-13 -13 -26
-3 -16 12 3 6 11 8 17 5 6 -4 6 -10 -1 -17z m-264 -17 c-5 -31 -12 -31 -13 1
-1 16 2 26 7 23 5 -3 7 -14 6 -24z m393 0 c0 -5 -10 -10 -22 -9 -22 0 -22 1
-3 9 11 5 21 9 23 9 1 1 2 -3 2 -9z m-623 -25 c0 -8 -4 -12 -9 -9 -4 3 -8 0
-8 -7 0 -7 -3 -9 -6 -6 -4 4 -1 13 6 22 15 19 17 19 17 0z m63 -12 c0 -3 -3
-3 -7 0 -3 4 -12 2 -20 -5 -11 -9 -12 -7 -7 7 6 14 4 16 -6 10 -9 -5 -11 -4
-6 3 5 9 13 9 27 2 10 -6 19 -14 19 -17z m250 17 c0 -5 -5 -10 -11 -10 -5 0
-7 5 -4 10 3 6 8 10 11 10 2 0 4 -4 4 -10z m-358 -28 c-7 -2 -9 -9 -6 -15 4
-7 2 -7 -7 1 -11 10 -17 8 -31 -10 -13 -16 -16 -17 -12 -5 5 13 2 16 -12 11
-17 -6 -17 -5 1 9 11 8 27 13 37 12 10 -2 18 1 18 6 0 6 5 7 12 3 9 -6 9 -9 0
-12z m698 8 c0 -5 -2 -10 -4 -10 -3 0 -8 5 -11 10 -3 6 -1 10 4 10 6 0 11 -4
11 -10z m-779 -45 c5 3 6 -1 3 -10 -6 -14 -8 -14 -19 2 -7 10 -10 22 -7 28 4
5 8 2 10 -8 2 -9 8 -15 13 -12z m50 -8 c-10 -9 -11 -8 -5 6 3 10 9 15 12 12 3
-3 0 -11 -7 -18z m684 13 c3 -5 1 -10 -4 -10 -6 0 -11 5 -11 10 0 6 2 10 4 10
3 0 8 -4 11 -10z m285 0 c0 10 3 11 11 3 6 -6 18 -9 27 -6 10 4 13 2 8 -6 -5
-7 -16 -9 -28 -5 -14 4 -18 2 -14 -5 5 -7 1 -9 -8 -5 -9 3 -16 14 -16 23 0 14
2 14 10 1 8 -13 10 -13 10 0z m-1043 -33 c0 -8 -6 -14 -14 -14 -9 0 -10 4 -2
14 6 7 12 13 14 13 1 0 2 -6 2 -13z m88 -7 c-3 -5 -12 -10 -18 -10 -7 0 -6 4
3 10 19 12 23 12 15 0z m-169 -39 c0 -11 -4 -17 -8 -15 -4 3 -8 12 -8 20 0 8
4 14 8 14 4 0 8 -9 8 -19z m39 10 c3 -5 2 -12 -3 -15 -5 -3 -9 1 -9 9 0 17 3
19 12 6z m1162 -6 c0 -8 -4 -12 -9 -9 -4 3 -8 9 -8 15 0 5 4 9 8 9 5 0 9 -7 9
-15z m-1273 -11 c4 -9 4 -19 1 -22 -3 -3 -5 0 -5 6 0 7 -7 12 -16 12 -8 0 -12
5 -9 10 9 15 22 12 29 -6z m-74 -35 c0 -6 -4 -7 -10 -4 -5 3 -10 11 -10 16 0
6 5 7 10 4 6 -3 10 -11 10 -16z m50 7 c-13 -13 -40 -17 -40 -6 0 9 17 17 38
17 9 0 9 -4 2 -11z m1390 -6 c0 -5 -2 -10 -4 -10 -3 0 -8 5 -11 10 -3 6 -1 10
4 10 6 0 11 -4 11 -10z m85 -33 c0 -7 8 -11 17 -11 10 1 14 -4 11 -12 -4 -10
-9 -11 -18 -4 -6 5 -14 8 -16 5 -3 -2 -6 8 -7 22 -1 15 1 23 5 19 5 -4 8 -13
8 -19z m-28 -19 c-3 -8 -6 -5 -6 6 -1 11 2 17 5 13 3 -3 4 -12 1 -19z m49 -40
c19 -23 19 -23 -2 -5 -11 9 -24 14 -27 10 -4 -3 -7 -1 -7 5 0 19 15 14 36 -10z
m-1623 3 c4 -1 7 -6 7 -12 0 -8 -5 -7 -16 1 -13 11 -16 10 -20 -7 -4 -14 -13
-20 -29 -19 l-22 1 20 21 c12 12 28 20 36 19 9 -2 19 -4 24 -4z m-113 -71 c-6
-11 -13 -20 -16 -20 -2 0 0 9 6 20 6 11 13 20 16 20 2 0 0 -9 -6 -20z m1864
-11 c-3 -5 0 -17 7 -25 10 -12 10 -17 -1 -27 -10 -10 -12 -9 -7 5 7 20 -9 35
-16 16 -3 -7 -4 1 -2 17 3 38 3 37 15 30 6 -4 8 -11 4 -16z m-1789 -9 c3 -6
-1 -7 -9 -4 -18 7 -21 14 -7 14 6 0 13 -4 16 -10z m1755 -14 c0 -2 -8 -10 -17
-17 -16 -13 -17 -12 -4 4 13 16 21 21 21 13z m-1876 -42 c3 -8 2 -13 -2 -11
-4 3 -13 -1 -20 -9 -7 -8 -9 -14 -3 -14 5 0 12 -8 15 -17 4 -10 4 -14 0 -11
-3 4 -14 -2 -23 -13 -19 -23 -58 -33 -67 -16 -4 7 -4 9 0 5 7 -6 51 30 51 42
1 6 36 60 40 60 2 0 6 -7 9 -16z m46 -4 c0 -5 -5 -10 -11 -10 -5 0 -7 5 -4 10
3 6 8 10 11 10 2 0 4 -4 4 -10z m-25 -30 c3 -6 -1 -7 -9 -4 -18 7 -21 14 -7
14 6 0 13 -4 16 -10z m1920 -18 c-3 -3 -11 0 -18 7 -9 10 -8 11 6 5 10 -3 15
-9 12 -12z m5 -16 c0 -2 -8 -10 -17 -17 -16 -13 -17 -12 -4 4 13 16 21 21 21
13z m125 -15 c3 -5 1 -13 -5 -16 -8 -5 -7 -11 1 -21 6 -7 16 -11 22 -7 6 3 7
1 3 -5 -4 -7 -1 -12 6 -13 10 0 11 -2 0 -6 -9 -3 -10 -9 -2 -18 8 -9 5 -12
-12 -10 -37 4 -38 4 -35 18 1 6 -4 11 -12 9 -9 -2 -11 3 -6 15 7 17 13 40 14
56 1 10 19 9 26 -2z m-108 -16 c0 -8 -4 -12 -9 -9 -5 3 -6 10 -3 15 9 13 12
11 12 -6z m63 -15 c0 -5 -5 -10 -11 -10 -5 0 -7 5 -4 10 3 6 8 10 11 10 2 0 4
-4 4 -10z m-2080 -20 c10 -18 9 -19 -14 -8 -14 6 -23 15 -20 19 9 15 23 10 34
-11z m-44 -36 c-11 -7 -25 -10 -32 -7 -7 2 -15 -1 -20 -8 -5 -8 -3 -10 6 -4 8
5 11 4 6 -3 -3 -6 -1 -14 5 -18 8 -4 9 -3 5 4 -4 7 -5 12 -2 12 2 0 11 3 20 6
9 3 16 1 16 -6 0 -6 -4 -8 -10 -5 -5 3 -10 -1 -10 -9 0 -31 -38 -11 -45 22 -2
14 1 22 10 22 8 0 19 9 25 20 10 19 11 19 28 2 17 -16 17 -17 -2 -28z m79 17
c3 -5 2 -12 -3 -15 -5 -3 -9 1 -9 9 0 17 3 19 12 6z m-40 -21 c-3 -5 -12 -10
-18 -10 -7 0 -6 4 3 10 19 12 23 12 15 0z m2123 -41 c-3 -8 -7 -3 -11 10 -4
17 -3 21 5 13 5 -5 8 -16 6 -23z m-2218 -64 c0 -6 -7 -12 -15 -12 -9 0 -14 9
-13 23 2 17 5 20 15 12 7 -6 13 -16 13 -23z m57 11 c0 -8 -6 -12 -15 -9 -11 5
-11 7 0 14 7 5 13 9 14 9 0 0 1 -6 1 -14z m2143 4 c0 -5 -5 -10 -11 -10 -5 0
-7 5 -4 10 3 6 8 10 11 10 2 0 4 -4 4 -10z m-2152 -61 c-3 -8 -7 -3 -11 10 -4
17 -3 21 5 13 5 -5 8 -16 6 -23z m2336 -70 c-6 -11 -24 -2 -24 11 0 5 7 7 15
4 8 -4 12 -10 9 -15z m-2344 -29 c0 -5 -2 -10 -4 -10 -3 0 -8 5 -11 10 -3 6
-1 10 4 10 6 0 11 -4 11 -10z m2275 -20 c3 -5 1 -10 -4 -10 -6 0 -11 5 -11 10
0 6 2 10 4 10 3 0 8 -4 11 -10z m26 -29 c-8 -5 -10 -14 -6 -22 6 -11 5 -11 -5
-2 -14 12 -6 33 13 33 8 0 7 -3 -2 -9z m-31 -5 c0 -2 -8 -10 -17 -17 -16 -13
-17 -12 -4 4 13 16 21 21 21 13z m-2400 -39 c0 -7 -10 -13 -22 -14 -22 -2 -22
-1 -4 13 24 17 26 17 26 1z m42 -9 c-4 -16 -2 -19 8 -13 9 5 11 4 6 -4 -4 -6
-12 -9 -17 -6 -12 8 -12 45 0 45 5 0 7 -10 3 -22z m43 -18 c3 -5 1 -10 -4 -10
-6 0 -11 5 -11 10 0 6 2 10 4 10 3 0 8 -4 11 -10z m-19 -56 c1 -9 0 -13 -4
-10 -3 4 -7 14 -8 22 -1 9 0 13 4 10 3 -4 7 -14 8 -22z m2404 -19 c0 -7 -30
-13 -34 -7 -3 4 4 9 15 9 10 1 19 0 19 -2z m24 -60 c-7 -16 -24 -21 -24 -6 0
8 7 13 27 20 1 1 0 -6 -3 -14z m-2471 -20 c-3 -9 -8 -14 -10 -11 -3 3 -2 9 2
15 9 16 15 13 8 -4z m-54 -144 c-1 -13 -2 -13 -6 1 -3 14 -9 16 -23 8 -24 -13
-37 5 -19 26 10 13 14 12 30 -2 11 -10 18 -24 18 -33z m2585 19 c-6 -6 -10 -2
-11 12 -2 16 1 18 10 9 7 -7 8 -14 1 -21z m-44 10 c0 -5 -2 -10 -4 -10 -3 0
-8 5 -11 10 -3 6 -1 10 4 10 6 0 11 -4 11 -10z m-2525 -50 c-3 -5 -12 -10 -18
-10 -7 0 -6 4 3 10 19 12 23 12 15 0z m-55 -19 c0 -8 -19 -37 -21 -31 0 3 -2
12 -4 21 -1 9 4 16 11 16 8 0 14 -3 14 -6z m2544 -39 c3 -5 -1 -9 -9 -9 -8 0
-12 4 -9 9 3 4 7 8 9 8 2 0 6 -4 9 -8z m16 -78 c0 -8 -19 -13 -24 -6 -3 5 1 9
9 9 8 0 15 -2 15 -3z m-2503 -77 c0 -8 -6 -14 -14 -14 -17 0 -17 14 0 20 6 3
12 6 13 6 0 1 1 -5 1 -12z m-26 -40 c-7 -7 -5 -14 7 -24 13 -10 13 -12 2 -8
-11 4 -16 -2 -18 -22 -1 -21 0 -24 8 -13 5 8 10 10 10 4 0 -12 -29 -41 -31
-30 -5 23 -4 32 3 42 5 7 3 14 -7 17 -8 4 -12 13 -9 22 3 8 11 12 17 8 6 -4 8
0 4 10 -4 11 -2 14 9 10 11 -4 12 -9 5 -16z m2509 -9 c0 -4 -4 -8 -9 -8 -6 0
-12 4 -15 8 -3 5 1 9 9 9 8 0 15 -4 15 -9z m-2452 -198 c-7 -10 -14 -17 -17
-15 -4 4 18 35 25 35 2 0 -1 -9 -8 -20z m-38 -20 c-13 -8 -12 -10 4 -10 14 0
16 -3 7 -13 -6 -8 -7 -18 -3 -22 4 -5 1 -5 -6 -1 -7 4 -10 11 -7 16 3 5 1 11
-5 15 -13 8 -3 25 13 25 7 0 6 -4 -3 -10z m2515 -39 c3 -5 2 -12 -3 -15 -5 -3
-9 1 -9 9 0 17 3 19 12 6z m-2456 -64 c13 4 14 3 1 -5 -8 -6 -18 -8 -24 -5 -5
3 -6 1 -2 -5 3 -6 15 -9 26 -7 19 4 19 3 3 -20 -22 -28 -38 -17 -39 26 0 18 3
26 9 20 5 -5 17 -7 26 -4z m2351 -57 c0 -5 -2 -10 -4 -10 -3 0 -8 5 -11 10 -3
6 -1 10 4 10 6 0 11 -4 11 -10z m-29 -37 c-12 -20 -14 -14 -5 12 4 9 9 14 11
11 3 -2 0 -13 -6 -23z m-31 -17 c0 -2 -7 -7 -16 -10 -8 -3 -12 -2 -9 4 6 10
25 14 25 6z m-2205 -34 c-3 -3 -11 0 -18 7 -9 10 -8 11 6 5 10 -3 15 -9 12
-12z m-49 -48 c1 -9 0 -13 -3 -10 -4 3 -12 1 -20 -5 -8 -7 -13 -8 -13 -1 0 5
7 13 16 16 9 3 12 11 8 18 -4 7 -3 9 1 5 5 -4 10 -15 11 -23z m94 -64 c0 -5
-5 -10 -11 -10 -5 0 -7 5 -4 10 3 6 8 10 11 10 2 0 4 -4 4 -10z m-50 -16 c0
-8 -19 -13 -24 -6 -3 5 1 9 9 9 8 0 15 -2 15 -3z m150 -98 c0 -3 -4 -8 -10
-11 -5 -3 -10 -1 -10 4 0 6 5 11 10 11 6 0 10 -2 10 -4z m-30 -26 c0 -5 -4
-10 -10 -10 -5 0 -10 5 -10 10 0 6 5 10 10 10 6 0 10 -4 10 -10z m15 -20 c-8
-13 14 -42 26 -34 9 5 13 -9 10 -33 -1 -7 2 -13 8 -13 5 0 12 6 14 13 4 9 6 9
6 0 1 -7 -8 -17 -18 -23 -16 -8 -22 -7 -29 6 -5 9 -12 15 -15 15 -18 -3 -27 0
-25 7 5 13 -28 52 -37 44 -5 -4 -5 -1 -1 6 4 7 12 10 17 7 5 -4 17 -1 26 4 23
13 26 13 18 1z m1910 -19 c-3 -6 -11 -11 -16 -11 -5 0 -4 6 3 14 14 16 24 13
13 -3z m-12 -47 c-7 -19 -10 -18 -16 5 -3 13 -1 18 9 14 7 -2 10 -11 7 -19z
m-65 -35 c-3 -8 -7 -3 -11 10 -4 17 -3 21 5 13 5 -5 8 -16 6 -23z m-1698 -19
c0 -5 -7 -7 -15 -4 -8 4 -15 8 -15 10 0 2 7 4 15 4 8 0 15 -4 15 -10z m1660 0
c0 -5 -5 -10 -11 -10 -5 0 -7 5 -4 10 3 6 8 10 11 10 2 0 4 -4 4 -10z m-64
-65 c1 -14 -2 -25 -6 -25 -6 0 -7 36 -1 48 4 7 6 -1 7 -23z m-1530 3 c4 -7 3
-8 -4 -4 -7 4 -12 2 -12 -5 0 -7 -3 -10 -6 -6 -6 5 3 27 11 27 2 0 7 -5 11
-12z m1589 2 c3 -6 -1 -7 -9 -4 -18 7 -21 14 -7 14 6 0 13 -4 16 -10z m-150
-60 c-3 -5 -12 -10 -18 -10 -7 0 -6 4 3 10 19 12 23 12 15 0z m60 0 c-3 -5
-12 -10 -18 -10 -7 0 -6 4 3 10 19 12 23 12 15 0z m-1467 -37 c-8 -10 -6 -13
6 -13 9 0 16 -6 17 -12 0 -10 2 -10 6 0 8 20 22 14 16 -8 -5 -19 -7 -19 -23
-5 -9 8 -19 13 -22 10 -2 -3 -10 6 -16 19 -9 21 -9 24 4 19 10 -4 13 0 8 13
-5 15 -4 16 4 4 8 -10 8 -18 0 -27z m52 22 c0 -1 -6 -7 -13 -13 -10 -8 -13 -6
-13 7 0 11 6 17 13 14 7 -3 13 -6 13 -8z m70 1 c0 -3 -4 -8 -10 -11 -5 -3 -10
-1 -10 4 0 6 5 11 10 11 6 0 10 -2 10 -4z m1298 -16 c-7 -10 -14 -17 -17 -15
-4 4 18 35 25 35 2 0 -1 -9 -8 -20z m-1324 -9 c3 -5 -2 -15 -12 -22 -15 -12
-16 -12 -5 2 7 9 10 19 6 22 -3 4 -4 7 0 7 3 0 8 -4 11 -9z m1390 -23 c-3 -5
-12 -4 -20 3 -19 16 -18 18 6 12 11 -3 17 -9 14 -15z m-60 -33 c-5 -13 -34
-16 -34 -3 0 4 7 8 15 8 9 0 12 6 9 18 -5 13 -4 14 4 3 6 -8 8 -19 6 -26z
m-1332 -15 c6 0 5 7 -3 18 -12 15 -12 16 2 5 9 -7 20 -9 24 -5 5 4 5 2 1 -5
-3 -6 3 -18 15 -26 14 -11 17 -16 7 -19 -21 -7 -87 43 -88 67 0 5 7 -1 16 -13
8 -12 20 -22 26 -22z m118 34 c0 -8 -19 -13 -24 -6 -3 5 1 9 9 9 8 0 15 -2 15
-3z m1161 -18 c5 3 9 0 9 -6 0 -15 -23 -7 -26 8 -1 7 0 8 3 2 2 -5 9 -8 14 -4z
m-1096 -25 c-9 -8 -36 -10 -30 -2 2 4 11 8 20 8 8 0 13 -3 10 -6z m800 -10 c3
-5 2 -12 -3 -15 -5 -3 -9 1 -9 9 0 17 3 19 12 6z m-840 -19 c-3 -3 -11 0 -18
7 -9 10 -8 11 6 5 10 -3 15 -9 12 -12z m105 -17 c0 -2 -9 -3 -19 -2 -11 0 -18
5 -15 9 4 6 34 0 34 -7z m40 5 c0 -5 -5 -10 -11 -10 -5 0 -7 5 -4 10 3 6 8 10
11 10 2 0 4 -4 4 -10z m656 -16 c1 -9 0 -13 -4 -10 -3 4 -7 14 -8 22 -1 9 0
13 4 10 3 -4 7 -14 8 -22z m99 17 c-9 -8 -36 -10 -30 -2 2 4 11 8 20 8 8 0 13
-3 10 -6z m125 -20 c0 -13 -29 -8 -34 5 -3 7 2 10 15 7 10 -3 19 -9 19 -12z
m-380 5 c0 -3 -4 -8 -10 -11 -5 -3 -10 -1 -10 4 0 6 5 11 10 11 6 0 10 -2 10
-4z m255 -26 c-3 -5 -12 -10 -18 -10 -7 0 -6 4 3 10 19 12 23 12 15 0z m49 -7
c3 -8 2 -12 -3 -8 -5 3 -11 0 -13 -7 -3 -7 -7 -3 -10 8 -6 23 18 30 26 7z
m-760 -11 c3 -5 -1 -9 -9 -9 -8 0 -12 4 -9 9 3 4 7 8 9 8 2 0 6 -4 9 -8z m633
1 c-4 -3 1 -12 11 -19 9 -7 15 -15 12 -17 -9 -9 -42 21 -35 32 3 6 9 11 12 11
4 0 3 -3 0 -7z m43 -3 c0 -5 -4 -10 -10 -10 -5 0 -10 5 -10 10 0 6 5 10 10 10
6 0 10 -4 10 -10z m50 5 c0 -2 -10 -9 -22 -15 -22 -11 -22 -10 -4 4 21 17 26
19 26 11z m-270 -19 c0 -3 -4 -8 -10 -11 -5 -3 -10 -1 -10 4 0 6 5 11 10 11 6
0 10 -2 10 -4z m-342 -24 c15 12 16 11 3 -4 -14 -19 -32 -15 -30 5 0 8 2 8 6
-1 4 -10 8 -10 21 0z m417 -2 c3 5 12 10 18 10 17 -1 -24 -24 -45 -25 -10 -1
-14 4 -11 12 4 10 9 11 18 3 9 -8 15 -8 20 0z"/>
<path d="M584 2522 c4 -6 -2 -17 -14 -24 -23 -15 -27 -30 -5 -22 23 9 38 41
23 50 -7 4 -8 3 -4 -4z"/>
<path d="M2670 2439 c1 -14 23 -49 32 -49 12 0 3 32 -14 47 -14 13 -18 13 -18
2z"/>
<path d="M505 2409 c-4 -6 -4 -13 -1 -16 3 -4 6 -1 6 6 0 7 5 9 12 5 7 -4 8
-3 4 4 -9 15 -13 15 -21 1z"/>
<path d="M305 1749 c-4 -6 -4 -13 -1 -16 3 -4 6 -1 6 6 0 7 5 9 12 5 7 -4 8
-3 4 4 -9 15 -13 15 -21 1z"/>
<path d="M400 1080 c-9 -6 -10 -10 -3 -10 6 0 15 5 18 10 8 12 4 12 -15 0z"/>
<path d="M607 683 c-3 -5 3 -19 14 -32 11 -14 19 -18 19 -10 0 12 2 12 9 0 5
-7 11 -9 13 -5 7 11 -49 57 -55 47z m24 -20 c13 -16 12 -17 -3 -4 -10 7 -18
15 -18 17 0 8 8 3 21 -13z"/>
<path d="M970 346 c0 -2 8 -10 18 -17 15 -13 16 -12 3 4 -13 16 -21 21 -21 13z"/>
<path d="M1250 3041 c0 -6 4 -13 10 -16 6 -3 7 1 4 9 -7 18 -14 21 -14 7z"/>
<path d="M1355 3031 c-3 -5 -2 -12 3 -15 5 -3 9 1 9 9 0 17 -3 19 -12 6z"/>
<path d="M1285 3019 c-4 -6 -5 -12 -2 -15 2 -3 7 2 10 11 7 17 1 20 -8 4z"/>
<path d="M1886 3011 c-4 -5 -2 -12 3 -15 5 -4 12 -2 15 3 4 5 2 12 -3 15 -5 4
-12 2 -15 -3z"/>
<path d="M1190 2996 c7 -7 13 -7 20 0 6 6 3 10 -10 10 -13 0 -16 -4 -10 -10z"/>
<path d="M2073 2975 c0 -8 4 -15 9 -15 4 0 8 4 8 9 0 6 -4 12 -8 15 -5 3 -9
-1 -9 -9z"/>
<path d="M2196 2962 c-3 -5 1 -9 9 -9 8 0 12 4 9 9 -3 4 -7 8 -9 8 -2 0 -6 -4
-9 -8z"/>
<path d="M2210 2920 c0 -5 5 -10 11 -10 5 0 7 5 4 10 -3 6 -8 10 -11 10 -2 0
-4 -4 -4 -10z"/>
<path d="M939 2908 c-7 -23 -4 -38 7 -42 11 -4 12 -1 5 13 -6 10 -7 21 -4 25
3 3 3 6 0 6 -4 0 -7 -1 -8 -2z"/>
<path d="M2184 2888 c-5 -7 -3 -8 5 -3 7 4 22 -2 37 -16 20 -19 24 -20 24 -6
0 9 5 17 11 17 5 0 7 -5 4 -10 -8 -12 14 -42 25 -35 4 2 17 -7 30 -20 21 -22
48 -26 35 -4 -4 5 2 9 12 10 11 0 13 3 5 6 -7 3 -20 -1 -29 -9 -15 -11 -16
-11 -10 4 3 10 2 20 -4 23 -5 4 -7 11 -4 16 4 5 1 9 -4 9 -14 0 -14 -13 1 -28
8 -8 8 -12 1 -12 -16 0 -34 25 -25 36 4 4 -1 2 -11 -6 -17 -12 -18 -12 -15 6
2 11 -3 20 -12 20 -8 1 -17 3 -20 4 -23 8 -50 8 -56 -2z"/>
<path d="M667 2739 c7 -7 15 -10 18 -7 3 3 -2 9 -12 12 -14 6 -15 5 -6 -5z"/>
<path d="M2430 2720 c0 -5 5 -10 11 -10 5 0 7 -5 3 -12 -4 -7 -3 -8 4 -4 6 4
9 13 5 21 -6 17 -23 20 -23 5z"/>
<path d="M2511 2714 c0 -11 3 -14 6 -6 3 7 2 16 -1 19 -3 4 -6 -2 -5 -13z"/>
<path d="M676 2703 c-6 -14 -5 -15 5 -6 7 7 10 15 7 18 -3 3 -9 -2 -12 -12z"/>
<path d="M2534 2692 c-9 -5 -8 -10 1 -19 11 -10 13 -9 12 7 -1 11 -1 20 -2 20
0 0 -5 -4 -11 -8z"/>
<path d="M2569 2637 c-8 -33 4 -43 22 -20 8 10 9 14 2 10 -7 -5 -13 1 -15 15
-3 21 -4 21 -9 -5z"/>
<path d="M2615 2620 c3 -5 8 -10 11 -10 2 0 4 5 4 10 0 6 -5 10 -11 10 -5 0
-7 -4 -4 -10z"/>
<path d="M566 2598 c3 -4 9 -8 15 -8 5 0 9 4 9 8 0 5 -7 9 -15 9 -8 0 -12 -4
-9 -9z"/>
<path d="M2586 2591 c-15 -16 -15 -19 -1 -31 11 -9 15 -9 15 -1 0 8 4 8 14 -1
8 -7 12 -15 10 -17 -2 -2 1 -12 6 -21 7 -13 5 -21 -5 -30 -22 -18 -18 -32 4
-18 11 7 17 16 15 20 -3 5 2 11 10 14 22 9 20 31 -3 39 -13 4 -18 12 -15 23 5
13 4 14 -4 3 -7 -9 -12 -10 -16 -2 -4 6 -12 8 -18 5 -6 -4 -9 -1 -6 7 3 8 12
13 22 11 20 -4 21 4 2 11 -8 3 -21 -2 -30 -12z m69 -60 c3 -5 0 -13 -6 -17 -7
-4 -9 -3 -5 4 3 5 0 13 -6 15 -9 4 -10 6 -1 6 6 1 14 -3 18 -8z"/>
<path d="M2665 2559 c-3 -4 2 -6 10 -5 21 3 28 13 10 13 -9 0 -18 -4 -20 -8z"/>
<path d="M2730 2459 c0 -5 5 -7 10 -4 6 3 10 8 10 11 0 2 -4 4 -10 4 -5 0 -10
-5 -10 -11z"/>
<path d="M2750 2446 c0 -2 7 -7 16 -10 8 -3 12 -2 9 4 -6 10 -25 14 -25 6z"/>
<path d="M2800 2380 c-9 -6 -10 -10 -3 -10 6 0 15 5 18 10 8 12 4 12 -15 0z"/>
<path d="M2745 2372 c-15 -11 -17 -30 -4 -54 11 -20 12 -21 25 -4 11 16 12 13
10 -18 -2 -20 1 -39 6 -42 5 -3 1 -15 -9 -27 -16 -18 -16 -20 -1 -14 9 3 22
-1 29 -9 11 -14 13 -14 21 0 5 8 16 13 26 10 15 -5 15 -4 -1 6 -9 6 -15 15
-12 21 4 5 1 9 -5 9 -7 0 -9 -7 -6 -16 5 -12 2 -15 -10 -10 -8 3 -19 6 -22 6
-4 0 0 5 8 10 11 7 11 10 2 10 -7 0 -11 4 -7 10 3 5 13 7 23 4 14 -5 14 -4 2
4 -8 6 -18 8 -22 6 -4 -3 -8 -1 -8 4 0 6 7 12 15 16 8 3 15 11 14 18 0 10 -2
10 -6 1 -2 -7 -9 -13 -15 -13 -6 0 -8 7 -4 15 5 14 -4 19 -31 16 -17 -2 -23
13 -11 29 8 12 9 12 4 -3 -3 -11 -2 -16 4 -12 12 7 14 35 3 35 -5 0 -12 -4
-18 -8z"/>
<path d="M435 2350 c-3 -5 -1 -10 4 -10 6 0 11 5 11 10 0 6 -2 10 -4 10 -3 0
-8 -4 -11 -10z"/>
<path d="M2788 2353 c7 -3 16 -2 19 1 4 3 -2 6 -13 5 -11 0 -14 -3 -6 -6z"/>
<path d="M2835 2320 c3 -5 8 -10 11 -10 2 0 4 5 4 10 0 6 -5 10 -11 10 -5 0
-7 -4 -4 -10z"/>
<path d="M397 2279 c7 -7 15 -10 18 -7 3 3 -2 9 -12 12 -14 6 -15 5 -6 -5z"/>
<path d="M2820 2286 c0 -2 7 -6 15 -10 8 -3 15 -1 15 4 0 6 -7 10 -15 10 -8 0
-15 -2 -15 -4z"/>
<path d="M387 2260 c10 -11 9 -16 -5 -27 -12 -10 -7 -9 16 2 17 8 32 11 32 6
0 -5 -10 -13 -22 -17 l-23 -7 23 -8 c13 -5 21 -12 18 -17 -2 -4 4 -8 15 -8 26
0 24 12 -3 19 -18 5 -19 8 -9 21 8 9 18 13 25 10 6 -3 2 1 -8 10 -10 8 -23 13
-28 10 -5 -3 -17 0 -26 7 -14 11 -15 11 -5 -1z"/>
<path d="M330 2220 c0 -5 5 -10 11 -10 5 0 7 5 4 10 -3 6 -8 10 -11 10 -2 0
-4 -4 -4 -10z"/>
<path d="M2810 2142 c0 -5 9 -17 20 -27 11 -10 17 -22 14 -27 -3 -5 -1 -15 6
-23 8 -9 8 -15 0 -20 -6 -3 -8 -11 -4 -16 3 -5 9 -7 14 -4 5 3 7 -8 5 -25 -2
-16 1 -32 6 -36 5 -3 6 -10 3 -16 -5 -7 -2 -8 6 -3 10 6 12 4 7 -8 -3 -8 1
-21 9 -27 8 -7 15 -10 15 -6 5 23 4 33 -2 46 -4 9 -3 23 2 33 8 13 6 19 -5 23
-9 3 -13 10 -10 15 3 5 2 9 -3 8 -23 -4 -25 3 -5 17 22 15 21 39 -2 31 -7 -3
-18 4 -25 15 -10 16 -9 19 6 16 11 -2 18 3 18 12 0 9 -9 15 -25 15 -14 0 -31
4 -37 8 -7 5 -13 4 -13 -1z m75 -76 c24 10 17 -2 -12 -22 -22 -14 -25 -14 -15
-2 9 11 10 18 2 23 -5 3 -10 12 -10 18 0 7 5 4 11 -5 5 -10 16 -15 24 -12z m9
-62 c12 -4 13 -11 6 -24 -5 -9 -6 -21 -2 -26 4 -5 -1 -2 -11 5 -12 10 -14 17
-7 26 8 9 7 15 -2 18 -7 3 -10 6 -6 6 3 1 13 -2 22 -5z m13 -79 c0 -8 -4 -12
-9 -9 -5 3 -6 10 -3 15 9 13 12 11 12 -6z"/>
<path d="M315 2131 c-3 -5 -2 -12 3 -15 5 -3 9 1 9 9 0 17 -3 19 -12 6z"/>
<path d="M2895 2100 c-3 -5 -1 -10 4 -10 6 0 11 5 11 10 0 6 -2 10 -4 10 -3 0
-8 -4 -11 -10z"/>
<path d="M314 2083 c3 -4 1 -12 -6 -20 -8 -11 -7 -12 6 -7 9 3 16 10 16 16 0
5 6 6 13 2 6 -4 8 -3 4 1 -4 5 -15 10 -23 11 -9 1 -13 0 -10 -3z"/>
<path d="M2910 2036 c0 -8 4 -17 9 -20 5 -4 7 3 4 14 -6 23 -13 26 -13 6z"/>
<path d="M274 2016 c1 -8 5 -18 8 -22 4 -3 5 1 4 10 -1 8 -5 18 -8 22 -4 3 -5
-1 -4 -10z"/>
<path d="M354 2009 c-3 -6 0 -15 7 -20 23 -14 30 -10 19 11 -12 23 -16 24 -26
9z"/>
<path d="M2923 1975 c-3 -9 -3 -18 -1 -21 3 -3 8 4 11 16 6 23 -1 27 -10 5z"/>
<path d="M2930 1921 c0 -11 4 -22 9 -25 4 -3 6 6 3 19 -5 30 -12 33 -12 6z"/>
<path d="M310 1920 c0 -5 6 -10 13 -10 8 0 7 -4 -3 -10 -20 -13 -33 -12 -24 2
4 7 3 8 -5 4 -6 -4 -9 -11 -6 -16 3 -4 2 -10 -2 -13 -5 -2 -3 -2 4 -1 7 2 15
-1 18 -6 4 -6 1 -10 -4 -10 -6 0 -11 -5 -11 -11 0 -8 4 -8 14 0 9 8 16 8 20 2
4 -5 -3 -12 -14 -16 -11 -3 -20 -10 -20 -15 0 -5 -7 -10 -15 -12 -10 -2 -7 -7
10 -15 31 -14 57 6 51 39 -2 14 7 30 22 43 23 20 23 22 7 28 -12 5 -16 3 -12
-7 4 -10 1 -13 -8 -10 -8 3 -14 9 -13 12 0 4 0 13 -1 20 -1 14 -21 17 -21 2z
m21 -43 c-1 -12 -15 -9 -19 4 -3 6 1 10 8 8 6 -3 11 -8 11 -12z m-11 -57 c-8
-5 -11 -10 -7 -10 5 0 5 -5 2 -10 -4 -6 -11 -8 -16 -4 -12 7 8 34 25 34 6 0 4
-5 -4 -10z"/>
<path d="M2909 1883 c-7 -38 -3 -60 8 -56 7 3 11 9 8 13 -3 5 -2 10 2 13 5 2
2 2 -5 0 -8 -1 -12 3 -9 9 2 7 13 12 23 10 16 -2 17 -1 4 7 -18 13 -30 14 -31
4z"/>
<path d="M253 1835 c0 -7 6 -11 14 -8 7 3 13 6 13 8 0 2 -6 5 -13 8 -8 3 -14
-1 -14 -8z"/>
<path d="M2962 1798 c-7 -7 -12 -17 -12 -22 0 -6 5 -3 11 7 6 9 15 14 21 11 7
-4 8 -2 4 4 -9 15 -9 15 -24 0z"/>
<path d="M210 1779 c0 -5 5 -7 10 -4 6 3 10 8 10 11 0 2 -4 4 -10 4 -5 0 -10
-5 -10 -11z"/>
<path d="M2950 1725 c-7 -9 -10 -18 -6 -22 3 -3 6 -1 6 6 0 7 4 10 8 7 5 -3 9
1 9 9 0 19 -2 19 -17 0z"/>
<path d="M215 1700 c-3 -5 -1 -10 4 -10 6 0 11 5 11 10 0 6 -2 10 -4 10 -3 0
-8 -4 -11 -10z"/>
<path d="M2907 1703 c-4 -3 0 -16 8 -29 13 -20 12 -23 -3 -29 -16 -6 -15 -8 2
-21 11 -8 14 -14 7 -14 -7 0 -10 -4 -6 -9 3 -5 1 -12 -3 -15 -10 -6 -9 -36 2
-54 4 -7 -1 -23 -13 -38 -15 -20 -18 -31 -11 -44 7 -13 7 -21 -1 -25 -15 -10
18 -44 41 -42 10 1 16 5 13 11 -4 5 1 7 10 3 10 -3 17 -2 17 4 0 6 -8 9 -17 8
-31 -3 -44 1 -38 11 3 5 13 7 23 4 15 -5 15 -4 -1 6 -9 6 -15 16 -11 22 4 6
10 5 15 -3 5 -8 9 -9 9 -3 0 6 -7 17 -15 24 -8 7 -12 16 -9 21 3 5 14 -1 25
-13 11 -13 7 -2 -10 24 -31 46 -31 47 -9 46 13 -1 30 -6 38 -12 13 -10 13 -9
1 7 -8 10 -20 16 -28 13 -7 -3 -13 1 -13 10 0 9 5 12 13 8 8 -5 8 -2 -2 9 -11
14 -11 20 0 34 10 11 10 14 2 9 -8 -4 -13 -2 -13 7 0 10 9 13 28 11 16 -2 19
-1 7 2 -26 8 -45 24 -45 37 0 7 4 7 12 -1 16 -16 25 -15 32 4 5 14 4 15 -9 4
-12 -10 -16 -9 -21 4 -7 17 -16 20 -27 9z m14 -207 c-9 -10 -9 -16 -1 -21 8
-5 8 -11 -1 -21 -6 -8 -8 -14 -4 -14 4 0 2 -6 -4 -14 -10 -11 -8 -17 6 -25 10
-6 13 -11 7 -11 -16 0 -37 27 -26 34 5 3 8 18 7 33 -2 25 10 53 22 53 3 0 0
-6 -6 -14z"/>
<path d="M250 1646 c0 -2 7 -7 16 -10 8 -3 12 -2 9 4 -6 10 -25 14 -25 6z"/>
<path d="M306 1622 c-3 -5 1 -9 9 -9 8 0 15 4 15 9 0 4 -4 8 -9 8 -6 0 -12 -4
-15 -8z"/>
<path d="M2950 1597 c0 -4 12 -5 26 -3 38 7 40 14 5 12 -17 0 -31 -4 -31 -9z"/>
<path d="M2970 1576 c0 -2 8 -10 18 -17 15 -13 16 -12 3 4 -13 16 -21 21 -21
13z"/>
<path d="M246 1562 c-3 -5 1 -9 9 -9 8 0 15 4 15 9 0 4 -4 8 -9 8 -6 0 -12 -4
-15 -8z"/>
<path d="M271 1523 c-1 -12 4 -25 9 -28 12 -7 12 2 0 30 -8 19 -9 19 -9 -2z"/>
<path d="M2945 1520 c3 -5 11 -10 16 -10 6 0 7 5 4 10 -3 6 -11 10 -16 10 -6
0 -7 -4 -4 -10z"/>
<path d="M2986 1502 c-3 -5 1 -9 9 -9 8 0 12 4 9 9 -3 4 -7 8 -9 8 -2 0 -6 -4
-9 -8z"/>
<path d="M236 1481 c9 -9 34 -9 34 -1 0 5 -9 8 -20 7 -10 -1 -17 -3 -14 -6z"/>
<path d="M272 1440 c0 -14 2 -19 5 -12 2 6 2 18 0 25 -3 6 -5 1 -5 -13z"/>
<path d="M2960 1446 c0 -2 8 -10 18 -17 15 -13 16 -12 3 4 -13 16 -21 21 -21
13z"/>
<path d="M215 1400 c-3 -5 -1 -10 4 -10 6 0 11 5 11 10 0 6 -2 10 -4 10 -3 0
-8 -4 -11 -10z"/>
<path d="M2930 1360 c0 -5 5 -10 10 -10 6 0 10 5 10 10 0 6 -4 10 -10 10 -5 0
-10 -4 -10 -10z"/>
<path d="M2970 1366 c0 -2 7 -7 16 -10 8 -3 12 -2 9 4 -6 10 -25 14 -25 6z"/>
<path d="M296 1332 c15 -10 11 -47 -4 -44 -8 1 -11 -2 -7 -8 5 -8 11 -7 21 1
8 6 18 9 21 5 4 -4 1 -11 -6 -15 -11 -7 -11 -10 0 -15 8 -3 3 -4 -11 -2 -24 5
-24 4 -6 -9 17 -13 21 -12 38 11 19 24 19 26 3 44 -9 10 -15 22 -12 27 3 4 -6
9 -20 10 -15 0 -22 -2 -17 -5z m45 -64 c-11 -11 -13 -10 -6 0 4 8 -1 23 -11
35 -18 22 -18 22 6 0 20 -19 22 -25 11 -35z"/>
<path d="M2883 1320 c-30 -18 -45 -49 -25 -51 4 0 17 -2 29 -5 15 -2 26 3 34
17 6 11 8 23 6 26 -3 2 -8 -5 -12 -16 -3 -12 -11 -21 -16 -21 -6 0 -8 4 -4 9
3 5 0 13 -6 17 -8 5 -9 3 -4 -6 6 -9 4 -11 -5 -5 -9 6 -11 4 -5 -5 6 -9 4 -11
-4 -6 -9 6 -8 13 5 27 18 20 29 25 19 9 -3 -5 -1 -10 4 -10 6 0 11 7 11 16 0
8 5 12 10 9 6 -3 10 -1 10 4 0 16 -11 14 -47 -9z"/>
<path d="M2947 1326 c-4 -10 -1 -13 8 -9 8 3 12 9 9 14 -7 12 -11 11 -17 -5z"/>
<path d="M2950 1290 c-14 -10 -21 -22 -17 -26 4 -4 7 -2 7 5 0 7 5 9 10 6 6
-4 7 -11 4 -17 -4 -7 -2 -8 5 -4 6 4 9 12 5 17 -3 5 0 16 6 24 17 20 10 18
-20 -5z"/>
<path d="M2996 1302 c-3 -5 1 -9 9 -9 8 0 12 4 9 9 -3 4 -7 8 -9 8 -2 0 -6 -4
-9 -8z"/>
<path d="M2890 1201 c0 -6 5 -13 11 -16 6 -4 8 -13 6 -19 -3 -7 0 -13 7 -13
17 0 16 25 -1 31 -8 3 -11 10 -8 16 3 5 1 10 -4 10 -6 0 -11 -4 -11 -9z"/>
<path d="M2926 1198 c3 -5 10 -6 15 -3 13 9 11 12 -6 12 -8 0 -12 -4 -9 -9z"/>
<path d="M380 1165 c0 -10 29 -24 34 -17 3 6 -3 12 -14 15 -11 3 -20 4 -20 2z"/>
<path d="M279 1158 c-5 -19 -8 -50 -4 -46 7 7 15 48 9 48 -2 0 -4 -1 -5 -2z"/>
<path d="M295 1109 c-4 -6 -5 -12 -2 -15 2 -3 7 2 10 11 7 17 1 20 -8 4z"/>
<path d="M330 1086 c0 -2 7 -7 16 -10 8 -3 12 -2 9 4 -6 10 -25 14 -25 6z"/>
<path d="M2886 1079 c4 -8 30 -6 38 2 3 3 -5 5 -19 5 -13 0 -22 -3 -19 -7z"/>
<path d="M2874 1063 c4 -8 2 -13 -6 -13 -9 0 -9 -3 2 -10 14 -9 7 -14 -13 -11
-5 1 -6 -3 -2 -9 5 -8 11 -8 20 0 14 12 14 35 0 47 -4 4 -5 2 -1 -4z"/>
<path d="M426 1045 c-3 -8 -1 -17 3 -20 5 -3 11 2 15 10 3 8 1 17 -3 20 -5 3
-11 -2 -15 -10z"/>
<path d="M321 1036 c-9 -10 -8 -15 3 -19 11 -4 13 -1 9 10 -5 12 -3 14 7 8 9
-5 11 -4 6 3 -9 15 -11 15 -25 -2z"/>
<path d="M2913 1035 c0 -8 4 -12 9 -9 5 3 6 10 3 15 -9 13 -12 11 -12 -6z"/>
<path d="M380 1031 c0 -7 -5 -9 -12 -5 -7 5 -8 3 -3 -5 5 -9 10 -10 18 -2 6 6
8 14 4 18 -4 3 -7 1 -7 -6z"/>
<path d="M355 1000 c3 -6 1 -10 -6 -10 -7 0 -10 -3 -6 -6 3 -3 13 -2 22 4 16
8 16 9 1 15 -10 4 -15 3 -11 -3z"/>
<path d="M396 983 c7 -4 14 -17 17 -28 5 -16 5 -15 4 4 -1 14 -9 26 -17 28
-10 3 -11 2 -4 -4z"/>
<path d="M2857 975 c-4 -8 -3 -16 1 -19 4 -3 9 4 9 15 2 23 -3 25 -10 4z"/>
<path d="M456 967 c3 -10 9 -15 12 -12 3 3 0 11 -7 18 -10 9 -11 8 -5 -6z"/>
<path d="M353 964 c4 -4 1 -14 -6 -23 -11 -14 -10 -15 8 -1 11 8 21 15 23 16
2 1 -5 5 -15 8 -9 4 -14 4 -10 0z"/>
<path d="M2750 959 c0 -5 -4 -8 -8 -5 -13 8 -8 -40 6 -56 10 -13 8 -15 -13
-13 -32 4 -31 1 3 -20 15 -10 24 -14 20 -10 -4 4 0 14 10 21 9 8 12 14 5 14
-6 0 -10 9 -8 20 4 21 -9 28 -18 10 -3 -6 -4 -5 -3 2 4 22 26 20 34 -3 l9 -23
5 26 c3 19 1 25 -11 24 -9 0 -15 5 -13 12 1 6 -2 12 -8 12 -5 0 -10 -5 -10
-11z"/>
<path d="M393 885 c0 -8 4 -12 9 -9 5 3 6 10 3 15 -9 13 -12 11 -12 -6z"/>
<path d="M2810 891 c0 -7 -5 -9 -12 -5 -7 5 -8 3 -3 -5 5 -9 10 -10 18 -2 6 6
8 14 4 18 -4 3 -7 1 -7 -6z"/>
<path d="M417 849 c4 -13 8 -18 11 -10 2 7 -1 18 -6 23 -8 8 -9 4 -5 -13z"/>
<path d="M2769 849 c-12 -24 3 -50 16 -28 6 8 4 10 -5 4 -10 -6 -12 -4 -7 9 4
10 7 20 7 22 0 3 5 2 12 -2 7 -4 8 -3 4 4 -10 16 -14 15 -27 -9z"/>
<path d="M2713 848 c-4 -7 -8 -17 -9 -23 -4 -38 -6 -40 -13 -21 -6 17 -10 14
-31 -20 -33 -53 -33 -51 -15 -51 8 0 15 4 15 8 0 5 7 6 15 3 8 -4 15 -1 15 6
0 6 5 8 10 5 6 -4 7 -11 4 -17 -5 -7 -2 -8 5 -4 9 6 9 12 -3 25 -9 10 -13 20
-10 24 4 3 15 -4 26 -16 l20 -22 -16 27 c-24 41 -19 45 16 12 26 -23 28 -24
11 -3 -18 19 -20 28 -11 37 9 9 9 12 -1 12 -7 0 -10 4 -6 9 3 5 1 12 -4 15 -5
4 -13 1 -18 -6z m14 -20 c2 -17 0 -19 -7 -8 -5 8 -6 18 -4 22 8 12 10 10 11
-14z m-41 -55 c-2 -9 -10 -17 -19 -19 -13 -2 -14 1 -4 17 15 23 26 25 23 2z"/>
<path d="M438 813 c7 -3 16 -2 19 1 4 3 -2 6 -13 5 -11 0 -14 -3 -6 -6z"/>
<path d="M547 813 c-4 -3 -7 -11 -7 -17 0 -6 5 -5 12 2 6 6 9 14 7 17 -3 3 -9
2 -12 -2z"/>
<path d="M475 760 c-3 -6 1 -7 9 -4 18 7 21 14 7 14 -6 0 -13 -4 -16 -10z"/>
<path d="M550 761 c0 -5 7 -12 16 -15 14 -5 15 -4 4 9 -14 17 -20 19 -20 6z"/>
<path d="M490 719 c0 -5 5 -7 10 -4 6 3 10 8 10 11 0 2 -4 4 -10 4 -5 0 -10
-5 -10 -11z"/>
<path d="M514 696 c1 -8 5 -18 8 -22 4 -3 5 1 4 10 -1 8 -5 18 -8 22 -4 3 -5
-1 -4 -10z"/>
<path d="M2615 680 c-3 -5 -12 -7 -19 -4 -23 9 -29 -16 -9 -38 10 -12 12 -18
6 -14 -7 4 -21 2 -30 -4 -16 -10 -16 -11 2 -6 20 6 20 6 1 -9 -26 -20 -32 -55
-8 -55 9 0 13 4 7 8 -14 10 -17 32 -5 32 6 0 10 -6 10 -12 0 -9 3 -8 9 2 6 8
7 18 5 22 -3 4 2 8 11 8 11 0 15 5 11 15 -20 51 -20 51 -4 38 8 -7 18 -9 23
-5 4 4 5 -4 1 -18 -3 -14 -3 -19 0 -12 3 6 11 9 17 5 7 -3 9 -3 5 2 -4 4 -3
14 3 21 8 9 5 15 -10 23 -12 7 -22 7 -26 1z m35 -15 c0 -2 -9 -3 -19 -2 -11 0
-18 5 -15 9 4 6 34 0 34 -7z"/>
<path d="M555 641 c-3 -5 -2 -12 3 -15 5 -3 9 1 9 9 0 17 -3 19 -12 6z"/>
<path d="M584 603 c4 -4 16 -8 28 -10 28 -4 18 6 -12 12 -12 2 -20 1 -16 -2z"/>
<path d="M643 574 c9 -3 15 -10 12 -15 -4 -5 -1 -9 5 -9 19 0 5 25 -16 27 -16
2 -16 1 -1 -3z"/>
<path d="M2593 565 c0 -8 4 -12 9 -9 5 3 6 10 3 15 -9 13 -12 11 -12 -6z"/>
<path d="M673 525 c0 -8 4 -15 9 -15 4 0 8 7 8 15 0 8 -4 15 -8 15 -5 0 -9 -7
-9 -15z"/>
<path d="M855 360 c-4 -6 1 -7 11 -3 13 5 15 3 9 -7 -5 -9 -4 -11 4 -6 6 4 9
12 6 17 -8 12 -22 12 -30 -1z"/>
<path d="M2201 327 c-10 -12 -6 -15 23 -14 19 1 32 5 30 9 -3 5 -10 5 -16 2
-6 -4 -14 -1 -18 5 -5 9 -10 8 -19 -2z"/>
<path d="M1026 303 c-3 -3 -6 -11 -6 -17 0 -6 4 -5 9 2 6 11 13 8 29 -12 17
-22 21 -24 26 -10 7 19 4 25 -16 28 -7 1 -18 5 -24 9 -6 3 -14 4 -18 0z"/>
<path d="M1035 260 c3 -5 8 -10 11 -10 2 0 4 5 4 10 0 6 -5 10 -11 10 -5 0 -7
-4 -4 -10z"/>
<path d="M1172 237 c10 -8 15 -17 11 -21 -4 -4 1 -4 10 0 20 7 20 7 -13 23
-22 11 -23 10 -8 -2z"/>
<path d="M1140 226 c0 -2 7 -7 16 -10 8 -3 12 -2 9 4 -6 10 -25 14 -25 6z"/>
<path d="M1291 197 c-1 -13 5 -16 25 -13 19 4 27 0 34 -17 8 -21 9 -20 7 5 -1
15 -4 25 -8 22 -4 -2 -11 0 -14 6 -5 8 -11 8 -20 0 -10 -8 -14 -7 -18 2 -4 8
-6 6 -6 -5z"/>
<path d="M1890 201 c0 -9 30 -24 36 -18 2 1 -6 8 -16 15 -11 7 -20 8 -20 3z"/>
<path d="M1870 180 c0 -5 5 -10 11 -10 5 0 7 5 4 10 -3 6 -8 10 -11 10 -2 0
-4 -4 -4 -10z"/>
<path d="M1841 171 c-8 -5 -9 -11 -3 -15 5 -3 12 1 16 9 6 17 6 18 -13 6z"/>
<path d="M1296 158 c3 -5 10 -6 15 -3 13 9 11 12 -6 12 -8 0 -12 -4 -9 -9z"/>
<path d="M1470 160 c0 -5 5 -10 10 -10 6 0 10 5 10 10 0 6 -4 10 -10 10 -5 0
-10 -4 -10 -10z"/>
</g>
</svg>
